{
.appVersion = "3201";
.formatVersion = 3;
axes = (
{
name = "Optical size";
tag = opsz;
},
{
name = Weight;
tag = wght;
},
{
name = Width;
tag = wdth;
}
);
customParameters = (
{
name = "Family Alignment Zones";
value = (
{
pos = 623;
size = 8;
},
{
pos = 607;
size = 16;
},
{
pos = 526;
size = 16;
},
{
pos = 0;
size = -16;
},
{
pos = -129;
size = -12;
}
);
},
{
name = codePageRanges;
value = (
1252
);
},
{
name = openTypeOS2Panose;
value = (
2,
11,
6,
5,
4,
4,
2,
0,
2,
4
);
},
{
name = fsType;
value = (
);
},
{
name = unicodeRanges;
value = (
0,
1
);
},
{
name = "Enforce Compatibility Check";
value = 1;
},
{
name = "Use Typo Metrics";
value = 1;
},
{
name = "Use Extension Kerning";
value = 1;
},
{
name = "Variable Font Origin";
value = "240BF9EB-FB0D-4A7D-9EDB-8E544078904A";
}
);
date = "2020-06-15 16:00:35 +0000";
familyName = "Bricolage Grotesque";
featurePrefixes = (
{
automatic = 1;
code = "languagesystem DFLT dflt;

languagesystem latn dflt;
languagesystem latn AZE;
languagesystem latn CRT;
languagesystem latn KAZ;
languagesystem latn TAT;
languagesystem latn TRK;
languagesystem latn ROM;
languagesystem latn MOL;
languagesystem latn CAT;
";
name = Languagesystems;
}
);
features = (
{
automatic = 1;
code = "feature locl;
feature subs;
feature sinf;
feature sups;
feature numr;
feature dnom;
feature ordn;
feature lnum;
feature pnum;
feature tnum;
feature onum;
feature case;
feature frac;
";
tag = aalt;
},
{
code = "lookup ccmp_DFLT_1 {
	lookupflag 0;
	sub brevecomb acutecomb by brevecomb_acutecomb;
	sub brevecomb gravecomb by brevecomb_gravecomb;
	sub brevecomb hookabovecomb by brevecomb_hookabovecomb;
	sub brevecomb tildecomb by brevecomb_tildecomb;
	sub circumflexcomb acutecomb by circumflexcomb_acutecomb;
	sub circumflexcomb gravecomb by circumflexcomb_gravecomb;
	sub circumflexcomb hookabovecomb by circumflexcomb_hookabovecomb;
	sub circumflexcomb tildecomb by circumflexcomb_tildecomb;
} ccmp_DFLT_1;

lookup ccmp_Other_1 {

glyphs = (
{
color = 4;
glyphname = A;
kernLeft = KO_A;
kernRight = KO_A;
lastChange = "2023-07-05 06:04:28 +0000";
layers = (
{
anchors = (
{
name = bottom;
pos = (238,0);
},
{
name = ogonek;
pos = (437,0);
},
{
name = top;
pos = (218,660);
}
);
layerId = "240BF9EB-FB0D-4A7D-9EDB-8E544078904A";
shapes = (
{
closed = 1;
nodes = (
(163,0,l),
(214,543,l),
(222,543,l),
(279,0,l),
(439,0,l),
(330,660,l),
(112,660,l),
(2,0,l)
);
},
{
closed = 1;
nodes = (
(333,110,l),
(333,210,l),
(102,210,l),
(102,110,l)
);
}
);
userData = {
com.schriftgestaltung.Glyphs.lastChange = "2020-05-30 06:58:04 +0000";
com.typemytype.robofont.Image.Brightness = 0;
com.typemytype.robofont.Image.Contrast = 1;
com.typemytype.robofont.Image.Saturation = 1;
com.typemytype.robofont.Image.Sharpness = 0.4;
};
width = 441;
},
{
anchors = (
{
name = bottom;
pos = (161,0);
},
{
name = ogonek;
pos = (311,0);
},
{
name = top;
pos = (161,660);
}
);
layerId = "6FE9FA8B-990F-4278-A730-82C9E963D7AD";
shapes = (
{
closed = 1;
nodes = (
(65,0,l),
(158,607,l),
(164,607,l),
(257,0,l),
(314,0,l),
(203,660,l),
(119,660,l),
(9,0,l)
);
},
{
closed = 1;
nodes = (
(236,161,l),
(236,214,l),
(83,214,l),
(83,161,l)
);
}
);
width = 323;
},
{
anchors = (
{
name = bottom;
pos = (274,0);
},
{
name = ogonek;
pos = (496,0);
},
{
name = top;
pos = (252,660);
}
);
layerId = "C665A7CC-B666-4F49-BFE5-A31D06CCF39B";
shapes = (
{
closed = 1;
nodes = (
(170,0,l),
(244,539,l),
(259,539,l),
(329,0,l),
(498,0,l),
(376,660,l),
(133,660,l),
(9,0,l)
);
},
{
closed = 1;
nodes = (
(390,110,l),
(390,208,l),
(128,208,l),
(128,110,l)
);
}
);
userData = {
com.schriftgestaltung.Glyphs.lastChange = "2020-05-30 06:58:04 +0000";
com.typemytype.robofont.Image.Brightness = 0;
com.typemytype.robofont.Image.Contrast = 1;
com.typemytype.robofont.Image.Saturation = 1;
com.typemytype.robofont.Image.Sharpness = 0.4;
};
width = 507;
},
{
anchors = (
{
name = bottom;
pos = (208,0);
},
{
name = ogonek;
pos = (388,0);
},
{
name = top;
pos = (211,660);
}
);
layerId = "5F0F23F3-8289-4A13-984A-DE8C8AB95B73";
shapes = (
{
closed = 1;
nodes = (
(87,0,l),
(203,606,l),
(216,606,l),
(331,0,l),
(389,0,l),
(259,660,l),
(158,660,l),
(28,0,l)
);
},
{
closed = 1;
nodes = (
(321,155,l),
(321,207,l),
(97,207,l),
(97,155,l)
);
}
);
width = 417;
},
{
anchors = (
{
name = bottom;
pos = (332,0);
},
{
name = ogonek;
pos = (650,0);
},
{
name = top;
pos = (330,660);
}
);
layerId = "C1A2FA2E-3F34-46D0-916F-7EEB4942386E";
shapes = (
{
closed = 1;
nodes = (
(177,0,l),
(326,529,l),
(332,529,l),
(480,0,l),
(655,0,l),
(435,660,l),
(225,660,l),
(4,0,l)
);
},
{
closed = 1;
nodes = (
(550,117,l),
(550,231,l),
(129,231,l),
(129,117,l)
);
}
);
userData = {
com.schriftgestaltung.Glyphs.lastChange = "2020-05-30 06:58:04 +0000";
com.typemytype.robofont.Image.Brightness = 0;
com.typemytype.robofont.Image.Contrast = 1;
com.typemytype.robofont.Image.Saturation = 1;
com.typemytype.robofont.Image.Sharpness = 0.4;
};
width = 659;
},
{
anchors = (
{
name = bottom;
pos = (291,0);
},
{
name = ogonek;
pos = (570,0);
},
{
name = top;
pos = (291,660);
}
);
layerId = "9F71C57A-214D-4B4D-A956-3B8F1C0FEA05";
shapes = (
{
closed = 1;
nodes = (
(74,0,l),
(288,607,l),
(293,607,l),
(510,0,l),
(571,0,l),
(331,660,l),
(252,660,l),
(12,0,l)
);
},
{
closed = 1;
nodes = (
(477,160,l),
(477,212,l),
(111,212,l),
(111,160,l)
);
}
);
width = 583;
},
{
anchors = (
{
name = bottom;
pos = (359,0);
},
{
name = ogonek;
pos = (681,0);
},
{
name = top;
pos = (359,660);
}
);
layerId = "13870E78-3F0A-41D5-8A20-B477F2D0CF38";
name = "Small Black";
shapes = (
{
closed = 1;
nodes = (
(190,0,l),
(349,534,l),
(365,534,l),
(523,0,l),
(699,0,l),
(475,660,l),
(238,660,l),
(14,0,l)
);
},
{
closed = 1;
nodes = (
(590,124,l),
(590,232,l),
(147,232,l),
(147,124,l)
);
}
);
userData = {
com.schriftgestaltung.Glyphs.lastChange = "2020-05-30 06:58:04 +0000";
com.typemytype.robofont.Image.Brightness = 0;
com.typemytype.robofont.Image.Contrast = 1;
com.typemytype.robofont.Image.Saturation = 1;
com.typemytype.robofont.Image.Sharpness = 0.4;
};
width = 713;
},
{
anchors = (
{
name = bottom;
pos = (315,0);
},
{
name = ogonek;
pos = (591,0);
},
{
name = top;
pos = (315,660);
}
);
layerId = "FA4F2279-C2CB-4D21-8447-C28A701A0705";
name = "Small Thin";
shapes = (
{
closed = 1;
nodes = (
(99,0,l),
(311,608,l),
(321,608,l),
(533,0,l),
(593,0,l),
(357,660,l),
(274,660,l),
(38,0,l)
);
},
{
closed = 1;
nodes = (
(500,160,l),
(500,211,l),
(137,211,l),
(137,160,l)
);
}
);
width = 631;
}
);
metricRight = "=|";
unicode = 65;
userData = {
KernOnName = A;
};
},
{
glyphname = AE;
kernLeft = KO_AE;
kernRight = KO_E;
lastChange = "2023-02-25 23:04:58 +0000";
layers = (
{
anchors = (
{
name = bottom;
pos = (417,0);
},
{
name = top;
pos = (417,660);
}
);
layerId = "9F71C57A-214D-4B4D-A956-3B8F1C0FEA05";
shapes = (
{
closed = 1;
nodes = (
(75,0,l),
(388,607,l),
(409,607,l),
(445,660,l),
(352,660,l),
(12,0,l)
);
},
{
closed = 1;
nodes = (
(437,160,l),
(437,213,l),
(144,213,l),
(144,160,l)
);
},
{
closed = 1;
nodes = (
(803,0,l),
(803,53,l),
(423,53,l),
(423,0,l)
);
},
{
closed = 1;
nodes = (
(465,0,l),
(465,660,l),
(409,660,l),
(409,0,l)
);
},
{
closed = 1;
nodes = (
(756,307,l),
(756,361,l),
(423,361,l),
(423,307,l)
);
},
{
closed = 1;
nodes = (
(803,607,l),
(803,660,l),
(423,660,l),
(423,607,l)
);
}
);
width = 829;
},
{
anchors = (
{
name = bottom;
pos = (488,0);
},
{
name = top;
pos = (488,660);
}
);
layerId = "13870E78-3F0A-41D5-8A20-B477F2D0CF38";
shapes = (
{
closed = 1;
nodes = (
(190,0,l),
(414,534,l),
(454,534,l),
(564,660,l),
(302,660,l),
(14,0,l)
);
},
{
closed = 1;
nodes = (
(516,124,l),
(516,230,l),
(147,230,l),
(147,124,l)
);
},
{
closed = 1;
nodes = (
(936,0,l),
(936,130,l),
(570,130,l),
(570,0,l)
);
},
{
closed = 1;
nodes = (
(613,0,l),
(613,660,l),
(452,660,l),
(452,0,l)
);
},
{
closed = 1;
nodes = (
(885,274,l),
(885,391,l),
(570,391,l),
(570,274,l)
);
},
{
closed = 1;
nodes = (
(933,531,l),
(933,660,l),
(570,660,l),
(570,531,l)
);
}
);
width = 975;
},
{
anchors = (
{
name = bottom;
pos = (274,0);
},
{
name = top;
pos = (274,660);
}
);
layerId = "240BF9EB-FB0D-4A7D-9EDB-8E544078904A";
shapes = (
{
closed = 1;
nodes = (
(163,0,l),
(230,543,l),
(254,543,l),
(363,660,l),
(128,660,l),
(2,0,l)
);
},
{
closed = 1;
nodes = (
(366,110,l),
(366,210,l),
(102,210,l),
(102,110,l)
);
},
{
closed = 1;
nodes = (
(537,0,l),
(537,123,l),
(364,123,l),
(364,0,l)
);
},
{
closed = 1;
nodes = (
(408,0,l),
(408,660,l),
(254,660,l),
(254,0,l)
);
},
{
closed = 1;
nodes = (
(511,279,l),
(511,392,l),
(364,392,l),
(364,279,l)
);
},
{
closed = 1;
nodes = (
(537,537,l),
(537,660,l),
(364,660,l),
(364,537,l)
);
}
);
width = 547;
},
{
anchors = (
{
name = bottom;
pos = (215,0);
},
{
name = top;
pos = (215,660);
}
);
layerId = "6FE9FA8B-990F-4278-A730-82C9E963D7AD";
shapes = (
{
closed = 1;
nodes = (
(64,0,l),
(190,607,l),
(204,607,l),
(241,660,l),
(153,660,l),
(9,0,l)
);
},
{
closed = 1;
nodes = (
(243,160,l),
(243,214,l),
(82,214,l),
(82,160,l)
);
},
{
closed = 1;
nodes = (
(401,0,l),
(401,53,l),
(217,53,l),
(217,0,l)
);
},
{
closed = 1;
nodes = (
(261,0,l),
(261,660,l),
(204,660,l),
(204,0,l)
);
},
{
closed = 1;
nodes = (
(384,305,l),
(384,359,l),
(217,359,l),
(217,305,l)
);
},
{
closed = 1;
nodes = (
(401,607,l),
(401,660,l),
(217,660,l),
(217,607,l)
);
}
);
width = 421;
},
{
anchors = (
{
name = bottom;
pos = (331,0);
},
{
name = top;
pos = (331,660);
}
);
layerId = "C665A7CC-B666-4F49-BFE5-A31D06CCF39B";
shapes = (
{
closed = 1;
nodes = (
(170,0,l),
(260,539,l),
(291,539,l),
(408,660,l),
(149,660,l),
(9,0,l)
);
},
{
closed = 1;
nodes = (
(422,118,l),
(422,216,l),
(128,216,l),
(128,118,l)
);
},
{
closed = 1;
nodes = (
(623,0,l),
(623,122,l),
(396,122,l),
(396,0,l)
);
},
{
closed = 1;
nodes = (
(444,0,l),
(444,660,l),
(291,660,l),
(291,0,l)
);
},
{
closed = 1;
nodes = (
(595,279,l),
(595,393,l),
(396,393,l),
(396,279,l)
);
},
{
closed = 1;
nodes = (
(623,538,l),
(623,660,l),
(396,660,l),
(396,538,l)
);
}
);
width = 652;
},
{
anchors = (
{
name = bottom;
pos = (285,0);
},
{
name = top;
pos = (285,660);
}
);
layerId = "5F0F23F3-8289-4A13-984A-DE8C8AB95B73";
shapes = (
{
closed = 1;
nodes = (
(87,0,l),
(240,607,l),
(278,607,l),
(320,660,l),
(196,660,l),
(28,0,l)
);
},
{
closed = 1;
nodes = (
(304,157,l),
(304,206,l),
(97,206,l),
(97,157,l)
);
},
{
closed = 1;
nodes = (
(529,0,l),
(529,53,l),
(284,53,l),
(284,0,l)
);
},
{
closed = 1;
nodes = (
(333,0,l),
(333,660,l),
(278,660,l),
(278,0,l)
);
},
{
closed = 1;
nodes = (
(507,311,l),
(507,360,l),
(284,360,l),
(284,311,l)
);
},
{
closed = 1;
nodes = (
(529,607,l),
(529,660,l),
(284,660,l),
(284,607,l)
);
}
);
width = 559;
},
{
anchors = (
{
name = bottom;
pos = (430,0);
},
{
name = top;
pos = (430,660);
}
);
layerId = "C1A2FA2E-3F34-46D0-916F-7EEB4942386E";
name = "Display Bold";
shapes = (
{
closed = 1;
nodes = (
(177,0,l),
(391,529,l),
(413,529,l),
(516,660,l),
(290,660,l),
(4,0,l)
);
},
{
closed = 1;
nodes = (
(444,117,l),
(444,229,l),
(129,229,l),
(129,117,l)
);
},
{
closed = 1;
nodes = (
(835,0,l),
(835,135,l),
(525,135,l),
(525,0,l)
);
},
{
closed = 1;
nodes = (
(566,0,l),
(566,660,l),
(412,660,l),
(412,0,l)
);
},
{
closed = 1;
nodes = (
(788,272,l),
(788,393,l),
(525,393,l),
(525,272,l)
);
},
{
closed = 1;
nodes = (
(834,525,l),
(834,660,l),
(525,660,l),
(525,525,l)
);
}
);
width = 863;
},
{
anchors = (
{
name = bottom;
pos = (437,0);
},
{
name = top;
pos = (437,660);
}
);
layerId = "FA4F2279-C2CB-4D21-8447-C28A701A0705";
shapes = (
{
closed = 1;
nodes = (
(100,0,l),
(401,607,l),
(438,607,l),
(475,660,l),
(364,660,l),
(38,0,l)
);
},
{
closed = 1;
nodes = (
(466,160,l),
(466,212,l),
(162,212,l),
(162,160,l)
);
},
{
closed = 1;
nodes = (
(823,0,l),
(823,53,l),
(452,53,l),
(452,0,l)
);
},
{
closed = 1;
nodes = (
(495,0,l),
(495,660,l),
(438,660,l),
(438,0,l)
);
},
{
closed = 1;
nodes = (
(779,307,l),
(779,361,l),
(452,361,l),
(452,307,l)
);
},
{
closed = 1;
nodes = (
(823,607,l),
(823,660,l),
(452,660,l),
(452,607,l)
);
}
);
width = 862;
}
);
metricLeft = "=A";
metricRight = "=E";
unicode = 198;
},
{
color = 4;
glyphname = B;
kernLeft = KO_H;
kernRight = KO_B;
lastChange = "2023-07-05 06:04:28 +0000";
layers = (
{
anchors = (
{
name = bottom;
pos = (374,0);
},
{
name = top;
pos = (374,660);
}
);
layerId = "5F0F23F3-8289-4A13-984A-DE8C8AB95B73";
shapes = (
{
closed = 1;
nodes = (
(237,0,ls),
(364,0,o),
(412,63,o),
(412,169,cs),
(412,265,o),
(372,321,o),
(288,334,c),
(288,347,l),
(362,363,o),
(387,416,o),
(387,490,cs),
(387,648,o),
(278,660,o),
(219,660,cs),
(77,660,l),
(77,0,l)
);
},
{
closed = 1;
nodes = (
(133,316,l),
(210,316,ls),
(304,316,o),
(357,263,o),
(357,168,cs),
(357,94,o),
(325,52,o),
(242,52,cs),
(133,52,l)
);
},
{
closed = 1;
nodes = (
(133,608,l),
(208,608,ls),
(294,608,o),
(332,571,o),
(332,487,cs),
(332,403,o),
(294,366,o),
(198,366,cs),
(133,366,l)
);
}
);
userData = {
com.schriftgestaltung.Glyphs.lastChange = "2020-05-30 07:42:19 +0000";
};
width = 460;
},
{
anchors = (
{
name = bottom;
pos = (305,0);
},
{
name = top;
pos = (305,658);
}
);
layerId = "6FE9FA8B-990F-4278-A730-82C9E963D7AD";
name = "Display Compressed Thin";
shapes = (
{
closed = 1;
nodes = (
(154,0,ls),
(248,0,o),
(302,74,o),
(302,169,cs),
(302,268,o),
(247,340,o),
(164,340,c),
(164,348,l),
(229,356,o),
(275,404,o),
(275,500,cs),
(275,598,o),
(224,660,o),
(134,660,cs),
(41,660,l),
(41,0,l)
);
},
{
closed = 1;
nodes = (
(98,315,l),
(126,315,ls),
(204,315,o),
(243,268,o),
(243,173,cs),
(243,93,o),
(215,53,o),
(152,53,cs),
(98,53,l)
);
},
{
closed = 1;
nodes = (
(98,607,l),
(128,607,ls),
(188,607,o),
(216,569,o),
(216,493,cs),
(216,410,o),
(183,369,o),
(116,369,cs),
(98,369,l)
);
}
);
userData = {
com.schriftgestaltung.Glyphs.lastChange = "2020-05-30 07:42:19 +0000";
};
width = 320;
},
{
anchors = (
{
name = bottom;
pos = (359,0);
},
{
name = top;
pos = (359,660);
}
);
layerId = "FA4F2279-C2CB-4D21-8447-C28A701A0705";
shapes = (
{
closed = 1;
nodes = (
(339,0,ls),
(508,0,o),
(576,65,o),
(576,175,cs),
(576,265,o),
(528,325,o),
(409,337,c),
(409,346,l),
(508,367,o),
(550,412,o),
(550,489,cs),
(550,612,o),
(455,660,o),
(316,660,cs),
(95,660,l),
(95,0,l)
);
},
{
closed = 1;
nodes = (
(151,314,l),
(285,314,ls),
(441,314,o),
(519,267,o),
(519,172,cs),
(519,92,o),
(465,53,o),
(356,53,cs),
(151,53,l)
);
},
{
closed = 1;
nodes = (
(151,607,l),
(303,607,ls),
(429,607,o),
(492,567,o),
(492,487,cs),
(492,406,o),
(417,366,o),
(267,366,cs),
(151,366,l)
);
}
);
userData = {
com.schriftgestaltung.Glyphs.lastChange = "2020-05-30 07:42:19 +0000";
};
width = 641;
},
{
anchors = (
{
name = bottom;
pos = (320,0);
},
{
name = top;
pos = (320,660);
}
);
layerId = "C1A2FA2E-3F34-46D0-916F-7EEB4942386E";
name = "96pt ExtraBold";
shapes = (
{
closed = 1;
nodes = (
(331,0,ls),
(500,0,o),
(591,58,o),
(591,173,cs),
(591,265,o),
(534,324,o),
(399,331,c),
(399,340,l),
(517,349,o),
(564,408,o),
(564,488,cs),
(564,602,o),
(468,660,o),
(306,660,cs),
(40,660,l),
(40,0,l)
);
},
{
closed = 1;
nodes = (
(202,276,l),
(305,276,ls),
(389,276,o),
(431,251,o),
(431,201,cs),
(431,155,o),
(392,130,o),
(324,130,cs),
(202,130,l)
);
},
{
closed = 1;
nodes = (
(202,531,l),
(298,531,ls),
(370,531,o),
(406,508,o),
(406,461,cs),
(406,411,o),
(365,386,o),
(289,386,cs),
(202,386,l)
);
}
);
userData = {
com.schriftgestaltung.Glyphs.lastChange = "2020-05-30 07:42:19 +0000";
};
width = 608;
},
{
anchors = (
{
name = bottom;
pos = (307,0);
},
{
name = top;
pos = (307,660);
}
);
layerId = "9F71C57A-214D-4B4D-A956-3B8F1C0FEA05";
name = "96pt ExtraLight";
shapes = (
{
closed = 1;
nodes = (
(300,0,ls),
(457,0,o),
(534,63,o),
(534,175,cs),
(534,276,o),
(470,328,o),
(346,337,c),
(346,345,l),
(466,352,o),
(510,423,o),
(510,496,cs),
(510,597,o),
(435,660,o),
(273,660,cs),
(58,660,l),
(58,0,l)
);
},
{
closed = 1;
nodes = (
(114,315,l),
(255,315,ls),
(402,315,o),
(475,270,o),
(475,174,cs),
(475,91,o),
(418,53,o),
(300,53,cs),
(114,53,l)
);
},
{
closed = 1;
nodes = (
(114,607,l),
(266,607,ls),
(391,607,o),
(449,569,o),
(449,487,cs),
(449,407,o),
(396,366,o),
(281,366,cs),
(114,366,l)
);
}
);
userData = {
com.schriftgestaltung.Glyphs.lastChange = "2020-05-30 07:42:19 +0000";
};
width = 568;
},
{
anchors = (
{
name = bottom;
pos = (399,0);
},
{
name = top;
pos = (399,660);
}
);
layerId = "13870E78-3F0A-41D5-8A20-B477F2D0CF38";
name = "12pt ExtraBold";
shapes = (
{
closed = 1;
nodes = (
(380,0,ls),
(555,0,o),
(650,58,o),
(650,173,cs),
(650,263,o),
(590,319,o),
(462,327,c),
(462,344,l),
(577,356,o),
(623,404,o),
(623,483,cs),
(623,606,o),
(520,660,o),
(355,660,cs),
(70,660,l),
(70,0,l)
);
},
{
closed = 1;
nodes = (
(223,285,l),
(351,285,ls),
(447,285,o),
(493,257,o),
(493,201,cs),
(493,150,o),
(455,128,o),
(374,128,cs),
(223,128,l)
);
},
{
closed = 1;
nodes = (
(223,534,l),
(343,534,ls),
(426,534,o),
(466,512,o),
(466,461,cs),
(466,409,o),
(423,383,o),
(329,383,cs),
(223,383,l)
);
}
);
userData = {
com.schriftgestaltung.Glyphs.lastChange = "2020-05-30 07:42:19 +0000";
};
width = 694;
},
{
anchors = (
{
name = bottom;
pos = (303,0);
},
{
name = top;
pos = (303,660);
}
);
layerId = "240BF9EB-FB0D-4A7D-9EDB-8E544078904A";
name = "96pt Condensed ExtraBold";
shapes = (
{
closed = 1;
nodes = (
(214,0,ls),
(341,0,o),
(423,58,o),
(423,176,cs),
(423,272,o),
(369,320,o),
(275,331,c),
(275,340,l),
(353,351,o),
(398,397,o),
(398,483,cs),
(398,602,o),
(312,660,o),
(204,660,cs),
(20,660,l),
(20,0,l)
);
},
{
closed = 1;
nodes = (
(173,283,l),
(193,283,ls),
(237,283,o),
(266,249,o),
(266,195,cs),
(266,144,o),
(243,118,o),
(198,118,cs),
(173,118,l)
);
},
{
closed = 1;
nodes = (
(173,542,l),
(191,542,ls),
(228,542,o),
(246,515,o),
(246,460,cs),
(246,406,o),
(230,379,o),
(190,379,cs),
(173,379,l)
);
}
);
userData = {
com.schriftgestaltung.Glyphs.lastChange = "2020-05-30 07:42:19 +0000";
};
width = 428;
},
{
anchors = (
{
name = bottom;
pos = (372,0);
},
{
name = top;
pos = (372,660);
}
);
layerId = "C665A7CC-B666-4F49-BFE5-A31D06CCF39B";
name = "12pt Condensed ExtraBold";
shapes = (
{
closed = 1;
nodes = (
(276,0,ls),
(422,0,o),
(502,56,o),
(502,176,cs),
(502,270,o),
(453,321,o),
(343,328,c),
(343,343,l),
(435,352,o),
(478,390,o),
(478,480,cs),
(478,612,o),
(375,660,o),
(264,660,cs),
(54,660,l),
(54,0,l)
);
},
{
closed = 1;
nodes = (
(205,282,l),
(256,282,ls),
(306,282,o),
(342,246,o),
(342,196,cs),
(342,145,o),
(316,119,o),
(263,119,cs),
(205,119,l)
);
},
{
closed = 1;
nodes = (
(205,541,l),
(251,541,ls),
(303,541,o),
(325,513,o),
(325,460,cs),
(325,404,o),
(299,380,o),
(240,380,cs),
(205,380,l)
);
}
);
userData = {
com.schriftgestaltung.Glyphs.lastChange = "2020-05-30 07:42:19 +0000";
};
width = 525;
}
);
metricLeft = "=H";
unicode = 66;
userData = {
KernOnName = B;
};
},
{
color = 4;
glyphname = C;
kernLeft = KO_O;
kernRight = KO_C;
lastChange = "2023-07-05 06:04:28 +0000";
layers = (
{
anchors = (
{
name = bottom;
pos = (157,0);
},
{
name = top;
pos = (157,660);
}
);
layerId = "6FE9FA8B-990F-4278-A730-82C9E963D7AD";
shapes = (
{
closed = 1;
nodes = (
(281,-10,o),
(309,106,o),
(289,274,c),
(233,282,l),
(250,131,o),
(231,44,o),
(171,44,cs),
(117,44,o),
(92,116,o),
(92,341,cs),
(92,480,o),
(107,614,o),
(173,614,cs),
(229,614,o),
(244,517,o),
(230,411,c),
(286,421,l),
(302,589,o),
(257,670,o),
(172,670,cs),
(49,670,o),
(33,501,o),
(33,339,cs),
(33,118,o),
(54,-10,o),
(171,-10,cs)
);
}
);
userData = {
com.schriftgestaltung.Glyphs.lastChange = "2020-05-30 07:42:29 +0000";
};
width = 319;
},
{
anchors = (
{
name = bottom;
pos = (261,0);
},
{
name = top;
pos = (261,660);
}
);
layerId = "C665A7CC-B666-4F49-BFE5-A31D06CCF39B";
shapes = (
{
closed = 1;
nodes = (
(452,-14,o),
(498,114,o),
(484,271,c),
(339,290,l),
(347,195,o),
(323,109,o),
(271,109,cs),
(229,109,o),
(192,164,o),
(192,334,cs),
(192,489,o),
(222,554,o),
(268,554,cs),
(302,554,o),
(341,517,o),
(331,410,c),
(474,426,l),
(486,564,o),
(430,671,o),
(275,671,cs),
(103,671,o),
(38,540,o),
(38,323,cs),
(38,111,o),
(101,-14,o),
(274,-14,cs)
);
}
);
userData = {
com.schriftgestaltung.Glyphs.lastChange = "2020-05-30 07:42:29 +0000";
};
width = 511;
},
{
anchors = (
{
name = bottom;
pos = (241,0);
},
{
name = top;
pos = (231,660);
}
);
layerId = "5F0F23F3-8289-4A13-984A-DE8C8AB95B73";
shapes = (
{
closed = 1;
nodes = (
(380,-11,o),
(411,121,o),
(402,263,c),
(347,266,l),
(358,127,o),
(321,42,o),
(242,42,cs),
(168,42,o),
(120,113,o),
(120,316,cs),
(120,498,o),
(159,618,o),
(248,618,cs),
(314,618,o),
(347,548,o),
(343,440,c),
(397,444,l),
(401,559,o),
(366,672,o),
(248,672,cs),
(117,672,o),
(62,537,o),
(62,315,cs),
(62,131,o),
(102,-11,o),
(242,-11,cs)
);
}
);
userData = {
com.schriftgestaltung.Glyphs.lastChange = "2020-05-30 07:42:29 +0000";
};
width = 450;
},
{
anchors = (
{
name = bottom;
pos = (331,0);
},
{
name = top;
pos = (319,660);
}
);
layerId = "C1A2FA2E-3F34-46D0-916F-7EEB4942386E";
metricLeft = "=O-1";
name = "Display Black";
shapes = (
{
closed = 1;
nodes = (
(552,-14,o),
(628,122,o),
(614,268,c),
(461,281,l),
(468,188,o),
(435,119,o),
(344,119,cs),
(243,119,o),
(196,202,o),
(196,335,cs),
(196,470,o),
(244,541,o),
(333,541,cs),
(410,541,o),
(450,487,o),
(446,402,c),
(595,420,l),
(612,554,o),
(531,674,o),
(338,674,cs),
(117,674,o),
(26,518,o),
(26,328,cs),
(26,144,o),
(116,-14,o),
(341,-14,cs)
);
}
);
userData = {
com.schriftgestaltung.Glyphs.lastChange = "2020-05-30 07:42:29 +0000";
};
width = 631;
},
{
anchors = (
{
name = bottom;
pos = (311,0);
},
{
name = top;
pos = (311,660);
}
);
layerId = "9F71C57A-214D-4B4D-A956-3B8F1C0FEA05";
shapes = (
{
closed = 1;
nodes = (
(495,-13,o),
(589,101,o),
(586,263,c),
(532,275,l),
(533,123,o),
(458,41,o),
(334,41,cs),
(192,41,o),
(100,144,o),
(100,329,cs),
(100,526,o),
(205,618,o),
(327,618,cs),
(433,618,o),
(501,553,o),
(511,439,c),
(564,450,l),
(556,588,o),
(462,673,o),
(327,673,cs),
(163,673,o),
(42,544,o),
(42,326,cs),
(42,117,o),
(154,-13,o),
(331,-13,cs)
);
}
);
userData = {
com.schriftgestaltung.Glyphs.lastChange = "2020-05-30 07:42:29 +0000";
};
width = 619;
},
{
anchors = (
{
name = bottom;
pos = (347,0);
},
{
name = top;
pos = (347,660);
}
);
layerId = "13870E78-3F0A-41D5-8A20-B477F2D0CF38";
shapes = (
{
closed = 1;
nodes = (
(583,-14,o),
(656,95,o),
(658,240,c),
(518,263,l),
(515,193,o),
(487,115,o),
(384,115,cs),
(289,115,o),
(214,178,o),
(214,334,cs),
(214,493,o),
(295,544,o),
(363,544,cs),
(423,544,o),
(481,504,o),
(482,425,c),
(631,466,l),
(627,597,o),
(519,674,o),
(369,674,cs),
(178,674,o),
(45,551,o),
(45,323,cs),
(45,99,o),
(172,-14,o),
(380,-14,cs)
);
}
);
userData = {
com.schriftgestaltung.Glyphs.lastChange = "2020-05-30 07:42:29 +0000";
};
width = 686;
},
{
anchors = (
{
name = bottom;
pos = (337,0);
},
{
name = top;
pos = (336,660);
}
);
layerId = "FA4F2279-C2CB-4D21-8447-C28A701A0705";
shapes = (
{
closed = 1;
nodes = (
(532,-12,o),
(607,99,o),
(610,229,c),
(556,240,l),
(550,115,o),
(493,46,o),
(362,46,cs),
(220,46,o),
(129,125,o),
(129,320,cs),
(129,524,o),
(232,617,o),
(356,617,cs),
(452,617,o),
(536,562,o),
(532,449,c),
(588,462,l),
(588,591,o),
(489,672,o),
(356,672,cs),
(180,672,o),
(72,532,o),
(72,321,cs),
(72,112,o),
(177,-12,o),
(359,-12,cs)
);
}
);
userData = {
com.schriftgestaltung.Glyphs.lastChange = "2020-05-30 07:42:29 +0000";
};
width = 657;
},
{
anchors = (
{
name = bottom;
pos = (212,0);
},
{
name = top;
pos = (212,660);
}
);
layerId = "240BF9EB-FB0D-4A7D-9EDB-8E544078904A";
name = "96pt Condensed ExtraBold";
shapes = (
{
closed = 1;
nodes = (
(370,-12,o),
(437,85,o),
(405,288,c),
(257,307,l),
(268,207,o),
(265,105,o),
(220,105,cs),
(185,105,o),
(171,165,o),
(171,346,cs),
(171,496,o),
(182,553,o),
(216,553,cs),
(251,553,o),
(264,493,o),
(252,393,c),
(396,409,l),
(421,542,o),
(386,671,o),
(223,671,cs),
(51,671,o),
(16,526,o),
(16,328,cs),
(16,113,o),
(59,-12,o),
(225,-12,cs)
);
}
);
userData = {
com.schriftgestaltung.Glyphs.lastChange = "2020-05-30 07:42:29 +0000";
};
width = 424;
}
);
metricLeft = "=O";
unicode = 67;
userData = {
KernOnName = C;
};
},
{
color = 4;
glyphname = D;
kernLeft = KO_H;
kernRight = KO_D;
lastChange = "2023-07-05 06:04:28 +0000";
layers = (
{
anchors = (
{
name = bottom;
pos = (305,0);
},
{
name = center;
pos = (305,330);
},
{
name = top;
pos = (184,660);
}
);
layerId = "240BF9EB-FB0D-4A7D-9EDB-8E544078904A";
metricRight = "=O-1";
shapes = (
{
closed = 1;
nodes = (
(195,0,ls),
(267,0,o),
(415,39,o),
(415,329,cs),
(415,541,o),
(325,660,o),
(180,660,cs),
(87,660,l),
(87,537,l),
(186,537,ls),
(232,537,o),
(261,505,o),
(261,330,cs),
(261,159,o),
(232,123,o),
(189,123,cs),
(87,123,l),
(87,0,l)
);
},
{
closed = 1;
nodes = (
(174,0,l),
(174,660,l),
(20,660,l),
(20,0,l)
);
}
);
userData = {
com.schriftgestaltung.Glyphs.lastChange = "2020-05-30 07:43:09 +0000";
};
width = 430;
},
{
anchors = (
{
name = bottom;
pos = (315,0);
},
{
name = center;
pos = (315,330);
},
{
name = top;
pos = (295,660);
}
);
layerId = "C1A2FA2E-3F34-46D0-916F-7EEB4942386E";
metricRight = "=O-2";
shapes = (
{
closed = 1;
nodes = (
(290,0,ls),
(434,0,o),
(596,75,o),
(596,336,cs),
(596,537,o),
(495,660,o),
(261,660,cs),
(114,660,l),
(114,525,l),
(268,525,ls),
(368,525,o),
(428,477,o),
(428,328,cs),
(428,172,o),
(361,135,o),
(285,135,cs),
(114,135,l),
(114,0,l)
);
},
{
closed = 1;
nodes = (
(202,0,l),
(202,660,l),
(40,660,l),
(40,0,l)
);
}
);
userData = {
com.schriftgestaltung.Glyphs.lastChange = "2020-05-30 07:43:09 +0000";
};
width = 621;
},
{
anchors = (
{
name = bottom;
pos = (319,0);
},
{
name = center;
pos = (319,330);
},
{
name = top;
pos = (289,660);
}
);
layerId = "9F71C57A-214D-4B4D-A956-3B8F1C0FEA05";
shapes = (
{
closed = 1;
nodes = (
(286,0,ls),
(412,0,o),
(564,78,o),
(564,337,cs),
(564,537,o),
(469,660,o),
(255,660,cs),
(92,660,l),
(92,607,l),
(255,607,ls),
(453,607,o),
(505,474,o),
(505,328,cs),
(505,175,o),
(435,53,o),
(286,53,cs),
(92,53,l),
(92,0,l)
);
},
{
closed = 1;
nodes = (
(115,0,l),
(115,660,l),
(58,660,l),
(58,0,l)
);
}
);
userData = {
com.schriftgestaltung.Glyphs.lastChange = "2020-05-30 07:43:09 +0000";
};
width = 606;
},
{
anchors = (
{
name = bottom;
pos = (355,0);
},
{
name = center;
pos = (355,330);
},
{
name = top;
pos = (352,660);
}
);
layerId = "13870E78-3F0A-41D5-8A20-B477F2D0CF38";
name = "12pt ExtraBold";
shapes = (
{
closed = 1;
nodes = (
(341,0,ls),
(490,0,o),
(662,76,o),
(662,336,cs),
(662,538,o),
(556,660,o),
(310,660,cs),
(145,660,l),
(145,530,l),
(316,530,ls),
(437,530,o),
(494,468,o),
(494,328,cs),
(494,196,o),
(442,130,o),
(336,130,cs),
(145,130,l),
(145,0,l)
);
},
{
closed = 1;
nodes = (
(231,0,l),
(231,660,l),
(70,660,l),
(70,0,l)
);
}
);
userData = {
com.schriftgestaltung.Glyphs.lastChange = "2020-05-30 07:43:09 +0000";
};
width = 707;
},
{
anchors = (
{
name = bottom;
pos = (375,0);
},
{
name = center;
pos = (375,330);
},
{
name = top;
pos = (321,660);
}
);
layerId = "FA4F2279-C2CB-4D21-8447-C28A701A0705";
name = "12pt ExtraLight ";
shapes = (
{
closed = 1;
nodes = (
(330,0,ls),
(500,0,o),
(606,129,o),
(606,334,cs),
(606,538,o),
(509,660,o),
(298,660,cs),
(131,660,l),
(131,607,l),
(298,607,ls),
(469,607,o),
(548,519,o),
(548,328,cs),
(548,173,o),
(479,53,o),
(329,53,cs),
(131,53,l),
(131,0,l)
);
},
{
closed = 1;
nodes = (
(152,0,l),
(152,660,l),
(95,660,l),
(95,0,l)
);
}
);
userData = {
com.schriftgestaltung.Glyphs.lastChange = "2020-05-30 07:43:09 +0000";
};
width = 678;
},
{
anchors = (
{
name = bottom;
pos = (312,0);
},
{
name = center;
pos = (312,330);
},
{
name = top;
pos = (131,660);
}
);
layerId = "6FE9FA8B-990F-4278-A730-82C9E963D7AD";
metricRight = "=O-5";
name = "96pt Condensed ExtraLight";
shapes = (
{
closed = 1;
nodes = (
(128,0,ls),
(246,0,o),
(294,89,o),
(294,337,cs),
(294,537,o),
(263,660,o),
(121,660,cs),
(77,660,l),
(77,607,l),
(120,607,ls),
(206,607,o),
(235,537,o),
(235,338,cs),
(235,124,o),
(207,53,o),
(127,53,cs),
(77,53,l),
(77,0,l)
);
},
{
closed = 1;
nodes = (
(98,0,l),
(98,660,l),
(41,660,l),
(41,0,l)
);
}
);
userData = {
com.schriftgestaltung.Glyphs.lastChange = "2020-05-30 07:43:09 +0000";
};
width = 322;
},
{
anchors = (
{
name = bottom;
pos = (355,0);
},
{
name = center;
pos = (355,330);
},
{
name = top;
pos = (223,660);
}
);
layerId = "C665A7CC-B666-4F49-BFE5-A31D06CCF39B";
metricRight = "=O";
name = "12pt Condensed ExtraBold";
shapes = (
{
closed = 1;
nodes = (
(249,0,ls),
(319,0,o),
(497,35,o),
(497,328,cs),
(497,541,o),
(383,660,o),
(237,660,cs),
(131,660,l),
(131,538,l),
(238,538,ls),
(313,538,o),
(343,475,o),
(343,330,cs),
(343,191,o),
(311,122,o),
(244,122,cs),
(131,122,l),
(131,0,l)
);
},
{
closed = 1;
nodes = (
(208,0,l),
(208,660,l),
(54,660,l),
(54,0,l)
);
}
);
userData = {
com.schriftgestaltung.Glyphs.lastChange = "2020-05-30 07:43:09 +0000";
};
width = 535;
},
{
anchors = (
{
name = bottom;
pos = (364,0);
},
{
name = center;
pos = (364,330);
},
{
name = top;
pos = (202,660);
}
);
layerId = "5F0F23F3-8289-4A13-984A-DE8C8AB95B73";
metricRight = "=O-6";
name = "12pt Condensed ExtraLight";
shapes = (
{
closed = 1;
nodes = (
(224,0,ls),
(297,0,o),
(414,59,o),
(414,327,cs),
(414,541,o),
(339,660,o),
(196,660,cs),
(120,660,l),
(120,608,l),
(196,608,ls),
(305,608,o),
(357,522,o),
(357,328,cs),
(357,143,o),
(310,52,o),
(215,52,cs),
(120,52,l),
(120,0,l)
);
},
{
closed = 1;
nodes = (
(133,0,l),
(133,660,l),
(77,660,l),
(77,0,l)
);
}
);
userData = {
com.schriftgestaltung.Glyphs.lastChange = "2020-05-30 07:43:09 +0000";
};
width = 470;
}
);
metricLeft = "=H";
metricRight = "=O";
unicode = 68;
userData = {
KernOnName = D;
};
},
{
glyphname = Eth;
kernLeft = KO_Eth;
kernRight = KO_D;
lastChange = "2023-03-02 07:21:02 +0000";
layers = (
{
layerId = "C1A2FA2E-3F34-46D0-916F-7EEB4942386E";
metricLeft = "=D-25";
shapes = (
{
closed = 1;
nodes = (
(15,286,l),
(287,286,l),
(287,412,l),
(15,412,l)
);
},
{
pos = (24,0);
ref = D;
}
);
width = 645;
},
{
layerId = "9F71C57A-214D-4B4D-A956-3B8F1C0FEA05";
metricLeft = "=D-30";
shapes = (
{
closed = 1;
nodes = (
(28,323,l),
(301,323,l),
(301,375,l),
(28,375,l)
);
},
{
pos = (38,0);
ref = D;
}
);
width = 644;
},
{
layerId = "13870E78-3F0A-41D5-8A20-B477F2D0CF38";
metricLeft = "=D-30";
shapes = (
{
closed = 1;
nodes = (
(40,290,l),
(358,290,l),
(358,408,l),
(40,408,l)
);
},
{
pos = (43,0);
ref = D;
}
);
width = 750;
},
{
layerId = "240BF9EB-FB0D-4A7D-9EDB-8E544078904A";
metricLeft = "=D-10";
shapes = (
{
closed = 1;
nodes = (
(10,288,l),
(226,288,l),
(226,408,l),
(10,408,l)
);
},
{
pos = (21,0);
ref = D;
}
);
width = 451;
},
{
layerId = "6FE9FA8B-990F-4278-A730-82C9E963D7AD";
metricLeft = "=D-30";
shapes = (
{
closed = 1;
nodes = (
(11,323,l),
(146,323,l),
(146,375,l),
(11,375,l)
);
},
{
pos = (-4,0);
ref = D;
}
);
width = 318;
},
{
layerId = "C665A7CC-B666-4F49-BFE5-A31D06CCF39B";
metricLeft = "=D-20";
shapes = (
{
closed = 1;
nodes = (
(34,290,l),
(285,290,l),
(285,400,l),
(34,400,l)
);
},
{
pos = (27,0);
ref = D;
}
);
width = 562;
},
{
layerId = "5F0F23F3-8289-4A13-984A-DE8C8AB95B73";
metricLeft = "=D-25";
shapes = (
{
closed = 1;
nodes = (
(52,323,l),
(227,323,l),
(227,375,l),
(52,375,l)
);
},
{
pos = (38,0);
ref = D;
}
);
width = 508;
},
{
layerId = "FA4F2279-C2CB-4D21-8447-C28A701A0705";
shapes = (
{
closed = 1;
nodes = (
(70,325,l),
(323,325,l),
(323,373,l),
(70,373,l)
);
},
{
pos = (70,0);
ref = D;
}
);
width = 748;
}
);
metricLeft = "=D-25";
metricRight = "=D";
unicode = 208;
},
{
color = 4;
glyphname = E;
kernLeft = KO_H;
kernRight = KO_E;
lastChange = "2023-07-05 06:04:28 +0000";
layers = (
{
anchors = (
{
name = bottom;
pos = (161,0);
},
{
name = ogonek;
pos = (312,0);
},
{
name = top;
pos = (163,660);
},
{
name = topleft;
pos = (16,660);
}
);
layerId = "240BF9EB-FB0D-4A7D-9EDB-8E544078904A";
shapes = (
{
closed = 1;
nodes = (
(175,0,l),
(175,660,l),
(20,660,l),
(20,0,l)
);
},
{
closed = 1;
nodes = (
(312,0,l),
(312,126,l),
(130,126,l),
(130,0,l)
);
},
{
closed = 1;
nodes = (
(286,278,l),
(286,393,l),
(130,393,l),
(130,278,l)
);
},
{
closed = 1;
nodes = (
(312,534,l),
(312,660,l),
(130,660,l),
(130,534,l)
);
}
);
userData = {
com.schriftgestaltung.Glyphs.lastChange = "2020-05-30 06:58:04 +0000";
};
width = 322;
},
{
anchors = (
{
name = bottom;
pos = (134,0);
},
{
name = ogonek;
pos = (247,0);
},
{
name = top;
pos = (134,660);
},
{
name = topleft;
pos = (12,660);
}
);
layerId = "6FE9FA8B-990F-4278-A730-82C9E963D7AD";
shapes = (
{
closed = 1;
nodes = (
(98,0,l),
(98,660,l),
(41,660,l),
(41,0,l)
);
},
{
closed = 1;
nodes = (
(247,0,l),
(247,53,l),
(54,53,l),
(54,0,l)
);
},
{
closed = 1;
nodes = (
(229,310,l),
(229,363,l),
(54,363,l),
(54,310,l)
);
},
{
closed = 1;
nodes = (
(247,607,l),
(247,660,l),
(54,660,l),
(54,607,l)
);
}
);
userData = {
com.schriftgestaltung.Glyphs.lastChange = "2020-05-30 06:58:04 +0000";
};
width = 267;
},
{
anchors = (
{
name = bottom;
pos = (218,0);
},
{
name = ogonek;
pos = (395,0);
},
{
name = top;
pos = (218,660);
},
{
name = topleft;
pos = (17,660);
}
);
layerId = "C665A7CC-B666-4F49-BFE5-A31D06CCF39B";
shapes = (
{
closed = 1;
nodes = (
(209,0,l),
(209,660,l),
(54,660,l),
(54,0,l)
);
},
{
closed = 1;
nodes = (
(395,0,l),
(395,122,l),
(159,122,l),
(159,0,l)
);
},
{
closed = 1;
nodes = (
(368,279,l),
(368,393,l),
(159,393,l),
(159,279,l)
);
},
{
closed = 1;
nodes = (
(395,538,l),
(395,660,l),
(159,660,l),
(159,538,l)
);
}
);
userData = {
com.schriftgestaltung.Glyphs.lastChange = "2020-05-30 06:58:04 +0000";
};
width = 424;
},
{
anchors = (
{
name = bottom;
pos = (192,0);
},
{
name = ogonek;
pos = (338,0);
},
{
name = top;
pos = (203,660);
},
{
name = topleft;
pos = (17,660);
}
);
layerId = "5F0F23F3-8289-4A13-984A-DE8C8AB95B73";
shapes = (
{
closed = 1;
nodes = (
(133,0,l),
(133,660,l),
(77,660,l),
(77,0,l)
);
},
{
closed = 1;
nodes = (
(338,0,l),
(338,53,l),
(84,53,l),
(84,0,l)
);
},
{
closed = 1;
nodes = (
(316,312,l),
(316,365,l),
(84,365,l),
(84,312,l)
);
},
{
closed = 1;
nodes = (
(338,607,l),
(338,660,l),
(84,660,l),
(84,607,l)
);
}
);
userData = {
com.schriftgestaltung.Glyphs.lastChange = "2020-05-30 06:58:04 +0000";
};
width = 368;
},
{
anchors = (
{
name = bottom;
pos = (275,0);
},
{
name = ogonek;
pos = (512,0);
},
{
name = top;
pos = (277,660);
},
{
name = topleft;
pos = (17,660);
}
);
layerId = "C1A2FA2E-3F34-46D0-916F-7EEB4942386E";
shapes = (
{
closed = 1;
nodes = (
(202,0,l),
(202,660,l),
(40,660,l),
(40,0,l)
);
},
{
closed = 1;
nodes = (
(512,0,l),
(512,135,l),
(161,135,l),
(161,0,l)
);
},
{
closed = 1;
nodes = (
(466,272,l),
(466,393,l),
(161,393,l),
(161,272,l)
);
},
{
closed = 1;
nodes = (
(512,525,l),
(512,660,l),
(161,660,l),
(161,525,l)
);
}
);
userData = {
com.schriftgestaltung.Glyphs.lastChange = "2020-05-30 06:58:04 +0000";
};
width = 540;
},
{
anchors = (
{
name = bottom;
pos = (276,0);
},
{
name = ogonek;
pos = (495,0);
},
{
name = top;
pos = (269,660);
},
{
name = topleft;
pos = (18,660);
}
);
layerId = "9F71C57A-214D-4B4D-A956-3B8F1C0FEA05";
shapes = (
{
closed = 1;
nodes = (
(115,0,l),
(115,660,l),
(58,660,l),
(58,0,l)
);
},
{
closed = 1;
nodes = (
(495,0,l),
(495,53,l),
(72,53,l),
(72,0,l)
);
},
{
closed = 1;
nodes = (
(448,308,l),
(448,361,l),
(72,361,l),
(72,308,l)
);
},
{
closed = 1;
nodes = (
(495,607,l),
(495,660,l),
(72,660,l),
(72,607,l)
);
}
);
userData = {
com.schriftgestaltung.Glyphs.lastChange = "2020-05-30 06:58:04 +0000";
};
width = 521;
},
{
anchors = (
{
name = bottom;
pos = (317,0);
},
{
name = ogonek;
pos = (595,0);
},
{
name = top;
pos = (317,660);
},
{
name = topleft;
pos = (22,660);
}
);
layerId = "13870E78-3F0A-41D5-8A20-B477F2D0CF38";
shapes = (
{
closed = 1;
nodes = (
(232,0,l),
(232,660,l),
(70,660,l),
(70,0,l)
);
},
{
closed = 1;
nodes = (
(595,0,l),
(595,130,l),
(187,130,l),
(187,0,l)
);
},
{
closed = 1;
nodes = (
(544,274,l),
(544,391,l),
(187,391,l),
(187,274,l)
);
},
{
closed = 1;
nodes = (
(592,531,l),
(592,660,l),
(187,660,l),
(187,531,l)
);
}
);
userData = {
com.schriftgestaltung.Glyphs.lastChange = "2020-05-30 06:58:04 +0000";
};
width = 634;
},
{
anchors = (
{
name = bottom;
pos = (286,0);
},
{
name = ogonek;
pos = (528,0);
},
{
name = top;
pos = (288,660);
},
{
name = topleft;
pos = (24,660);
}
);
layerId = "FA4F2279-C2CB-4D21-8447-C28A701A0705";
shapes = (
{
closed = 1;
nodes = (
(152,0,l),
(152,660,l),
(95,660,l),
(95,0,l)
);
},
{
closed = 1;
nodes = (
(528,0,l),
(528,53,l),
(107,53,l),
(107,0,l)
);
},
{
closed = 1;
nodes = (
(482,313,l),
(482,366,l),
(107,366,l),
(107,313,l)
);
},
{
closed = 1;
nodes = (
(528,607,l),
(528,660,l),
(107,660,l),
(107,607,l)
);
}
);
userData = {
com.schriftgestaltung.Glyphs.lastChange = "2020-05-30 06:58:04 +0000";
};
width = 567;
}
);
metricLeft = "=H";
unicode = 69;
userData = {
KernOnName = E;
};
},
{
color = 4;
glyphname = F;
kernLeft = KO_H;
kernRight = KO_F;
lastChange = "2023-07-05 06:04:28 +0000";
layers = (
{
anchors = (
{
name = bottom;
pos = (157,0);
},
{
name = top;
pos = (157,660);
}
);
layerId = "240BF9EB-FB0D-4A7D-9EDB-8E544078904A";
shapes = (
{
closed = 1;
nodes = (
(174,0,l),
(174,660,l),
(20,660,l),
(20,0,l)
);
},
{
closed = 1;
nodes = (
(286,248,l),
(286,369,l),
(92,369,l),
(92,248,l)
);
},
{
closed = 1;
nodes = (
(304,534,l),
(304,660,l),
(92,660,l),
(92,534,l)
);
}
);
userData = {
com.schriftgestaltung.Glyphs.lastChange = "2020-05-30 06:58:04 +0000";
};
width = 312;
},
{
anchors = (
{
name = bottom;
pos = (131,0);
},
{
name = top;
pos = (131,660);
}
);
layerId = "6FE9FA8B-990F-4278-A730-82C9E963D7AD";
shapes = (
{
closed = 1;
nodes = (
(98,0,l),
(98,660,l),
(41,660,l),
(41,0,l)
);
},
{
closed = 1;
nodes = (
(237,310,l),
(237,363,l),
(57,363,l),
(57,310,l)
);
},
{
closed = 1;
nodes = (
(256,607,l),
(256,660,l),
(57,660,l),
(57,607,l)
);
}
);
userData = {
com.schriftgestaltung.Glyphs.lastChange = "2020-05-30 06:58:04 +0000";
};
width = 265;
},
{
anchors = (
{
name = bottom;
pos = (206,0);
},
{
name = top;
pos = (206,660);
}
);
layerId = "C665A7CC-B666-4F49-BFE5-A31D06CCF39B";
shapes = (
{
closed = 1;
nodes = (
(208,0,l),
(208,660,l),
(54,660,l),
(54,0,l)
);
},
{
closed = 1;
nodes = (
(366,249,l),
(366,367,l),
(124,367,l),
(124,249,l)
);
},
{
closed = 1;
nodes = (
(387,538,l),
(387,660,l),
(124,660,l),
(124,538,l)
);
}
);
userData = {
com.schriftgestaltung.Glyphs.lastChange = "2020-05-30 06:58:04 +0000";
};
width = 403;
},
{
anchors = (
{
name = bottom;
pos = (185,0);
},
{
name = top;
pos = (185,660);
}
);
layerId = "5F0F23F3-8289-4A13-984A-DE8C8AB95B73";
shapes = (
{
closed = 1;
nodes = (
(133,0,l),
(133,660,l),
(77,660,l),
(77,0,l)
);
},
{
closed = 1;
nodes = (
(323,312,l),
(323,365,l),
(89,365,l),
(89,312,l)
);
},
{
closed = 1;
nodes = (
(350,607,l),
(350,660,l),
(89,660,l),
(89,607,l)
);
}
);
userData = {
com.schriftgestaltung.Glyphs.lastChange = "2020-05-30 06:58:04 +0000";
};
width = 374;
},
{
anchors = (
{
name = bottom;
pos = (256,0);
},
{
name = top;
pos = (256,660);
}
);
layerId = "C1A2FA2E-3F34-46D0-916F-7EEB4942386E";
shapes = (
{
closed = 1;
nodes = (
(202,0,l),
(202,660,l),
(40,660,l),
(40,0,l)
);
},
{
closed = 1;
nodes = (
(457,235,l),
(457,367,l),
(121,367,l),
(121,235,l)
);
},
{
closed = 1;
nodes = (
(491,525,l),
(491,660,l),
(121,660,l),
(121,525,l)
);
}
);
userData = {
com.schriftgestaltung.Glyphs.lastChange = "2020-05-30 06:58:04 +0000";
};
width = 510;
},
{
anchors = (
{
name = bottom;
pos = (263,0);
},
{
name = top;
pos = (263,660);
}
);
layerId = "9F71C57A-214D-4B4D-A956-3B8F1C0FEA05";
shapes = (
{
closed = 1;
nodes = (
(115,0,l),
(115,660,l),
(58,660,l),
(58,0,l)
);
},
{
closed = 1;
nodes = (
(441,292,l),
(441,345,l),
(75,345,l),
(75,292,l)
);
},
{
closed = 1;
nodes = (
(489,607,l),
(489,660,l),
(75,660,l),
(75,607,l)
);
}
);
userData = {
com.schriftgestaltung.Glyphs.lastChange = "2020-05-30 06:58:04 +0000";
};
width = 504;
},
{
anchors = (
{
name = bottom;
pos = (302,0);
},
{
name = top;
pos = (302,660);
}
);
layerId = "13870E78-3F0A-41D5-8A20-B477F2D0CF38";
shapes = (
{
closed = 1;
nodes = (
(231,0,l),
(231,660,l),
(70,660,l),
(70,0,l)
);
},
{
closed = 1;
nodes = (
(537,235,l),
(537,366,l),
(149,366,l),
(149,235,l)
);
},
{
closed = 1;
nodes = (
(573,523,l),
(573,660,l),
(149,660,l),
(149,523,l)
);
}
);
userData = {
com.schriftgestaltung.Glyphs.lastChange = "2020-05-30 06:58:04 +0000";
};
width = 603;
},
{
anchors = (
{
name = bottom;
pos = (279,0);
},
{
name = top;
pos = (279,660);
}
);
layerId = "FA4F2279-C2CB-4D21-8447-C28A701A0705";
shapes = (
{
closed = 1;
nodes = (
(152,0,l),
(152,660,l),
(95,660,l),
(95,0,l)
);
},
{
closed = 1;
nodes = (
(485,307,l),
(485,360,l),
(110,360,l),
(110,307,l)
);
},
{
closed = 1;
nodes = (
(532,607,l),
(532,660,l),
(110,660,l),
(110,607,l)
);
}
);
userData = {
com.schriftgestaltung.Glyphs.lastChange = "2020-05-30 06:58:04 +0000";
};
width = 556;
}
);
metricLeft = "=H";
unicode = 70;
userData = {
KernOnName = F;
};
},
{
color = 4;
glyphname = G;
kernLeft = KO_O;
kernRight = KO_G;
lastChange = "2023-07-05 06:04:28 +0000";
layers = (
{
anchors = (
{
name = bottom;
pos = (213,0);
},
{
name = top;
pos = (213,660);
}
);
layerId = "240BF9EB-FB0D-4A7D-9EDB-8E544078904A";
metricLeft = "=O+1";
shapes = (
{
closed = 1;
nodes = (
(294,-12,o),
(309,87,o),
(304,191,c),
(313,191,l),
(317,0,l),
(413,0,l),
(413,225,l),
(413,337,l),
(229,337,l),
(229,230,l),
(278,230,l),
(274,155,o),
(258,106,o),
(226,106,cs),
(191,106,o),
(172,165,o),
(172,357,cs),
(172,474,o),
(179,556,o),
(219,556,cs),
(254,556,o),
(263,492,o),
(252,401,c),
(397,417,l),
(423,551,o),
(383,672,o),
(226,672,cs),
(53,672,o),
(17,524,o),
(17,326,cs),
(17,134,o),
(51,-12,o),
(184,-12,cs)
);
}
);
userData = {
com.schriftgestaltung.Glyphs.lastChange = "2020-05-30 07:43:48 +0000";
com.typemytype.robofont.Image.Brightness = 0;
com.typemytype.robofont.Image.Contrast = 1;
com.typemytype.robofont.Image.Saturation = 1;
com.typemytype.robofont.Image.Sharpness = 0.4;
};
width = 429;
},
{
anchors = (
{
name = bottom;
pos = (269,0);
},
{
name = top;
pos = (269,660);
}
);
layerId = "C665A7CC-B666-4F49-BFE5-A31D06CCF39B";
shapes = (
{
closed = 1;
nodes = (
(342,-14,o),
(378,63,o),
(383,192,c),
(401,192,l),
(400,0,l),
(489,0,l),
(489,225,l),
(489,335,l),
(272,335,l),
(272,227,l),
(353,227,l),
(345,150,o),
(320,106,o),
(274,106,cs),
(228,106,o),
(192,157,o),
(192,334,cs),
(192,487,o),
(221,554,o),
(275,554,cs),
(325,554,o),
(348,491,o),
(339,421,c),
(483,435,l),
(506,547,o),
(463,672,o),
(284,672,cs),
(90,672,o),
(38,524,o),
(38,331,cs),
(38,139,o),
(91,-14,o),
(232,-14,cs)
);
}
);
userData = {
com.schriftgestaltung.Glyphs.lastChange = "2020-05-30 07:43:48 +0000";
com.typemytype.robofont.Image.Brightness = 0;
com.typemytype.robofont.Image.Contrast = 1;
com.typemytype.robofont.Image.Saturation = 1;
com.typemytype.robofont.Image.Sharpness = 0.4;
};
width = 528;
},
{
anchors = (
{
name = bottom;
pos = (238,0);
},
{
name = top;
pos = (238,660);
}
);
layerId = "5F0F23F3-8289-4A13-984A-DE8C8AB95B73";
shapes = (
{
closed = 1;
nodes = (
(287,-11,o),
(335,63,o),
(349,186,c),
(364,186,l),
(334,0,l),
(397,0,l),
(396,233,l),
(396,308,l),
(245,308,l),
(245,256,l),
(336,256,l),
(332,122,o),
(289,42,o),
(227,42,cs),
(167,42,o),
(120,117,o),
(120,322,cs),
(120,522,o),
(165,618,o),
(245,618,cs),
(303,618,o),
(348,568,o),
(333,425,c),
(388,427,l),
(398,558,o),
(372,672,o),
(247,672,cs),
(96,672,o),
(62,504,o),
(62,329,cs),
(62,105,o),
(117,-11,o),
(212,-11,cs)
);
}
);
userData = {
com.schriftgestaltung.Glyphs.lastChange = "2020-05-30 07:43:48 +0000";
com.typemytype.robofont.Image.Brightness = 0;
com.typemytype.robofont.Image.Contrast = 1;
com.typemytype.robofont.Image.Saturation = 1;
com.typemytype.robofont.Image.Sharpness = 0.4;
};
visible = 1;
width = 462;
},
{
anchors = (
{
name = bottom;
pos = (325,0);
},
{
name = top;
pos = (326,660);
}
);
layerId = "C1A2FA2E-3F34-46D0-916F-7EEB4942386E";
name = "Display Black";
shapes = (
{
closed = 1;
nodes = (
(419,-14,o),
(488,53,o),
(499,178,c),
(508,178,l),
(508,0,l),
(619,0,l),
(619,212,l),
(619,336,l),
(371,336,l),
(371,222,l),
(475,222,l),
(475,160,o),
(429,117,o),
(354,117,cs),
(252,117,o),
(197,196,o),
(197,333,cs),
(197,471,o),
(252,540,o),
(339,540,cs),
(411,540,o),
(453,499,o),
(450,410,c),
(601,428,l),
(615,564,o),
(531,674,o),
(345,674,cs),
(124,674,o),
(27,523,o),
(27,325,cs),
(27,125,o),
(128,-14,o),
(301,-14,cs)
);
}
);
userData = {
com.schriftgestaltung.Glyphs.lastChange = "2020-05-30 07:43:48 +0000";
com.typemytype.robofont.Image.Brightness = 0;
com.typemytype.robofont.Image.Contrast = 1;
com.typemytype.robofont.Image.Saturation = 1;
com.typemytype.robofont.Image.Sharpness = 0.4;
};
width = 649;
},
{
anchors = (
{
name = bottom;
pos = (344,0);
},
{
name = top;
pos = (344,660);
}
);
layerId = "FA4F2279-C2CB-4D21-8447-C28A701A0705";
shapes = (
{
closed = 1;
nodes = (
(473,-12,o),
(543,51,o),
(567,187,c),
(579,187,l),
(549,0,l),
(607,0,l),
(607,227,l),
(607,312,l),
(382,312,l),
(382,259,l),
(550,259,l),
(533,114,o),
(462,46,o),
(347,46,cs),
(239,46,o),
(131,109,o),
(131,329,cs),
(131,537,o),
(227,617,o),
(358,617,cs),
(446,617,o),
(535,577,o),
(546,451,c),
(602,465,l),
(584,599,o),
(493,672,o),
(358,672,cs),
(172,672,o),
(72,541,o),
(72,329,cs),
(72,99,o),
(185,-12,o),
(348,-12,cs)
);
}
);
userData = {
com.schriftgestaltung.Glyphs.lastChange = "2020-05-30 07:43:48 +0000";
com.typemytype.robofont.Image.Brightness = 0;
com.typemytype.robofont.Image.Contrast = 1;
com.typemytype.robofont.Image.Saturation = 1;
com.typemytype.robofont.Image.Sharpness = 0.4;
};
width = 683;
},
{
anchors = (
{
name = bottom;
pos = (320,0);
},
{
name = top;
pos = (320,660);
}
);
layerId = "9F71C57A-214D-4B4D-A956-3B8F1C0FEA05";
name = "96pt ExtraLight";
shapes = (
{
closed = 1;
nodes = (
(441,-13,o),
(519,60,o),
(542,194,c),
(551,194,l),
(533,0,l),
(591,0,l),
(589,224,l),
(589,319,l),
(392,319,l),
(392,263,l),
(532,263,l),
(519,120,o),
(460,42,o),
(335,42,cs),
(214,42,o),
(100,117,o),
(100,325,cs),
(100,526,o),
(207,618,o),
(328,618,cs),
(435,618,o),
(505,557,o),
(512,447,c),
(571,458,l),
(555,614,o),
(447,673,o),
(330,673,cs),
(155,673,o),
(42,540,o),
(42,325,cs),
(42,98,o),
(168,-13,o),
(320,-13,cs)
);
}
);
userData = {
com.schriftgestaltung.Glyphs.lastChange = "2020-05-30 07:43:48 +0000";
com.typemytype.robofont.Image.Brightness = 0;
com.typemytype.robofont.Image.Contrast = 1;
com.typemytype.robofont.Image.Saturation = 1;
com.typemytype.robofont.Image.Sharpness = 0.4;
};
width = 641;
},
{
anchors = (
{
name = bottom;
pos = (367,0);
},
{
name = top;
pos = (367,660);
}
);
layerId = "13870E78-3F0A-41D5-8A20-B477F2D0CF38";
name = "12pt ExtraBold";
shapes = (
{
closed = 1;
nodes = (
(455,-14,o),
(515,48,o),
(549,165,c),
(569,165,l),
(572,0,l),
(681,0,l),
(681,221,l),
(681,349,l),
(404,349,l),
(404,235,l),
(521,235,l),
(518,151,o),
(464,113,o),
(381,113,cs),
(270,113,o),
(214,186,o),
(214,329,cs),
(214,473,o),
(271,544,o),
(375,544,cs),
(449,544,o),
(507,503,o),
(509,430,c),
(661,478,l),
(658,597,o),
(546,674,o),
(382,674,cs),
(164,674,o),
(45,543,o),
(45,322,cs),
(45,96,o),
(170,-14,o),
(332,-14,cs)
);
}
);
userData = {
com.schriftgestaltung.Glyphs.lastChange = "2020-05-30 07:43:48 +0000";
com.typemytype.robofont.Image.Brightness = 0;
com.typemytype.robofont.Image.Contrast = 1;
com.typemytype.robofont.Image.Saturation = 1;
com.typemytype.robofont.Image.Sharpness = 0.4;
};
width = 731;
},
{
anchors = (
{
name = bottom;
pos = (163,0);
},
{
name = top;
pos = (163,660);
}
);
layerId = "6FE9FA8B-990F-4278-A730-82C9E963D7AD";
name = "96pt Condensed ExtraLight";
shapes = (
{
closed = 1;
nodes = (
(199,-10,o),
(233,57,o),
(245,198,c),
(257,198,l),
(231,0,l),
(290,0,l),
(288,246,l),
(288,322,l),
(168,322,l),
(168,269,l),
(228,269,l),
(228,145,o),
(198,43,o),
(155,43,cs),
(113,43,o),
(92,137,o),
(92,325,cs),
(92,518,o),
(121,615,o),
(172,615,cs),
(215,615,o),
(235,546,o),
(224,419,c),
(279,431,l),
(288,541,o),
(275,670,o),
(172,670,cs),
(78,670,o),
(33,566,o),
(33,328,cs),
(33,93,o),
(66,-10,o),
(140,-10,cs)
);
}
);
userData = {
com.schriftgestaltung.Glyphs.lastChange = "2020-05-30 07:43:48 +0000";
com.typemytype.robofont.Image.Brightness = 0;
com.typemytype.robofont.Image.Contrast = 1;
com.typemytype.robofont.Image.Saturation = 1;
com.typemytype.robofont.Image.Sharpness = 0.4;
};
width = 324;
}
);
metricLeft = "=O";
unicode = 71;
userData = {
KernOnName = G;
};
},
{
color = 4;
glyphname = H;
kernLeft = KO_H;
kernRight = KO_H;
lastChange = "2023-07-05 06:04:28 +0000";
layers = (
{
anchors = (
{
name = bottom;
pos = (306,0);
},
{
name = center;
pos = (306,330);
},
{
name = top;
pos = (306,660);
},
{
name = topleft;
pos = (-24,660);
}
);
layerId = "240BF9EB-FB0D-4A7D-9EDB-8E544078904A";
shapes = (
{
closed = 1;
nodes = (
(405,0,l),
(405,660,l),
(251,660,l),
(251,0,l)
);
},
{
closed = 1;
nodes = (
(174,0,l),
(174,660,l),
(20,660,l),
(20,0,l)
);
},
{
closed = 1;
nodes = (
(319,275,l),
(319,401,l),
(116,401,l),
(116,275,l)
);
}
);
userData = {
com.schriftgestaltung.Glyphs.lastChange = "2020-05-30 06:58:04 +0000";
};
width = 425;
},
{
anchors = (
{
name = bottom;
pos = (322,0);
},
{
name = center;
pos = (322,330);
},
{
name = top;
pos = (322,660);
},
{
name = topleft;
pos = (6,660);
}
);
layerId = "6FE9FA8B-990F-4278-A730-82C9E963D7AD";
shapes = (
{
closed = 1;
nodes = (
(300,0,l),
(300,660,l),
(243,660,l),
(243,0,l)
);
},
{
closed = 1;
nodes = (
(98,0,l),
(98,660,l),
(41,660,l),
(41,0,l)
);
},
{
closed = 1;
nodes = (
(261,310,l),
(261,363,l),
(74,363,l),
(74,310,l)
);
}
);
userData = {
com.schriftgestaltung.Glyphs.lastChange = "2020-05-30 06:58:04 +0000";
};
width = 341;
},
{
anchors = (
{
name = bottom;
pos = (357,0);
},
{
name = center;
pos = (357,330);
},
{
name = top;
pos = (357,660);
},
{
name = topleft;
pos = (8,660);
}
);
layerId = "C665A7CC-B666-4F49-BFE5-A31D06CCF39B";
shapes = (
{
closed = 1;
nodes = (
(491,0,l),
(491,660,l),
(337,660,l),
(337,0,l)
);
},
{
closed = 1;
nodes = (
(208,0,l),
(208,660,l),
(54,660,l),
(54,0,l)
);
},
{
closed = 1;
nodes = (
(399,275,l),
(399,401,l),
(143,401,l),
(143,275,l)
);
}
);
userData = {
com.schriftgestaltung.Glyphs.lastChange = "2020-05-30 06:58:04 +0000";
};
width = 545;
},
{
anchors = (
{
name = bottom;
pos = (373,0);
},
{
name = center;
pos = (373,330);
},
{
name = top;
pos = (373,660);
},
{
name = topleft;
pos = (38,660);
}
);
layerId = "5F0F23F3-8289-4A13-984A-DE8C8AB95B73";
shapes = (
{
closed = 1;
nodes = (
(416,0,l),
(416,660,l),
(360,660,l),
(360,0,l)
);
},
{
closed = 1;
nodes = (
(133,0,l),
(133,660,l),
(77,660,l),
(77,0,l)
);
},
{
closed = 1;
nodes = (
(388,312,l),
(388,365,l),
(110,365,l),
(110,312,l)
);
}
);
userData = {
com.schriftgestaltung.Glyphs.lastChange = "2020-05-30 06:58:04 +0000";
};
width = 493;
},
{
anchors = (
{
name = bottom;
pos = (325,0);
},
{
name = center;
pos = (325,330);
},
{
name = top;
pos = (325,660);
},
{
name = topleft;
pos = (9,660);
}
);
layerId = "C1A2FA2E-3F34-46D0-916F-7EEB4942386E";
shapes = (
{
closed = 1;
nodes = (
(597,0,l),
(597,660,l),
(435,660,l),
(435,0,l)
);
},
{
closed = 1;
nodes = (
(202,0,l),
(202,660,l),
(40,660,l),
(40,0,l)
);
},
{
closed = 1;
nodes = (
(520,264,l),
(520,400,l),
(161,400,l),
(161,264,l)
);
}
);
userData = {
com.schriftgestaltung.Glyphs.lastChange = "2020-05-30 06:58:04 +0000";
};
width = 637;
},
{
anchors = (
{
name = bottom;
pos = (323,0);
},
{
name = center;
pos = (323,330);
},
{
name = top;
pos = (323,660);
},
{
name = topleft;
pos = (24,660);
}
);
layerId = "9F71C57A-214D-4B4D-A956-3B8F1C0FEA05";
shapes = (
{
closed = 1;
nodes = (
(555,0,l),
(555,660,l),
(498,660,l),
(498,0,l)
);
},
{
closed = 1;
nodes = (
(115,0,l),
(115,660,l),
(58,660,l),
(58,0,l)
);
},
{
closed = 1;
nodes = (
(519,307,l),
(519,360,l),
(75,360,l),
(75,307,l)
);
}
);
userData = {
com.schriftgestaltung.Glyphs.lastChange = "2020-05-30 06:58:04 +0000";
};
width = 613;
},
{
anchors = (
{
name = bottom;
pos = (363,0);
},
{
name = center;
pos = (363,330);
},
{
name = top;
pos = (363,660);
},
{
name = topleft;
pos = (34,660);
}
);
layerId = "13870E78-3F0A-41D5-8A20-B477F2D0CF38";
shapes = (
{
closed = 1;
nodes = (
(662,0,l),
(662,660,l),
(501,660,l),
(501,0,l)
);
},
{
closed = 1;
nodes = (
(231,0,l),
(231,660,l),
(70,660,l),
(70,0,l)
);
},
{
closed = 1;
nodes = (
(565,268,l),
(565,398,l),
(167,398,l),
(167,268,l)
);
}
);
userData = {
com.schriftgestaltung.Glyphs.lastChange = "2020-05-30 06:58:04 +0000";
};
width = 732;
},
{
anchors = (
{
name = bottom;
pos = (373,0);
},
{
name = center;
pos = (373,330);
},
{
name = top;
pos = (373,660);
},
{
name = topleft;
pos = (59,660);
}
);
layerId = "FA4F2279-C2CB-4D21-8447-C28A701A0705";
shapes = (
{
closed = 1;
nodes = (
(594,0,l),
(594,660,l),
(537,660,l),
(537,0,l)
);
},
{
closed = 1;
nodes = (
(152,0,l),
(152,660,l),
(95,660,l),
(95,0,l)
);
},
{
closed = 1;
nodes = (
(560,313,l),
(560,366,l),
(115,366,l),
(115,313,l)
);
}
);
userData = {
com.schriftgestaltung.Glyphs.lastChange = "2020-05-30 06:58:04 +0000";
};
width = 689;
}
);
metricRight = "=|H";
unicode = 72;
userData = {
KernOnName = H;
};
},
{
glyphname = Hbar;
lastChange = "2023-02-24 17:14:22 +0000";
layers = (
{
layerId = "C1A2FA2E-3F34-46D0-916F-7EEB4942386E";
metricLeft = "=H-25";
shapes = (
{
pos = (23,0);
ref = H;
},
{
closed = 1;
nodes = (
(15,471,l),
(664,471,l),
(664,578,l),
(15,578,l)
);
}
);
width = 679;
},
{
layerId = "9F71C57A-214D-4B4D-A956-3B8F1C0FEA05";
metricLeft = "=H-30";
shapes = (
{
pos = (38,0);
ref = H;
},
{
closed = 1;
nodes = (
(28,492,l),
(655,492,l),
(655,541,l),
(28,541,l)
);
}
);
width = 683;
},
{
layerId = "13870E78-3F0A-41D5-8A20-B477F2D0CF38";
metricLeft = "=H-30";
shapes = (
{
pos = (39,0);
ref = H;
},
{
closed = 1;
nodes = (
(40,478,l),
(757,478,l),
(757,586,l),
(40,586,l)
);
}
);
width = 797;
},
{
layerId = "240BF9EB-FB0D-4A7D-9EDB-8E544078904A";
metricLeft = "=H-10";
shapes = (
{
pos = (26,0);
ref = H;
},
{
closed = 1;
nodes = (
(10,483,l),
(465,483,l),
(465,583,l),
(10,583,l)
);
}
);
width = 475;
},
{
layerId = "6FE9FA8B-990F-4278-A730-82C9E963D7AD";
metricLeft = "=H-30";
shapes = (
{
pos = (-1,0);
ref = H;
},
{
closed = 1;
nodes = (
(11,494,l),
(333,494,l),
(333,539,l),
(11,539,l)
);
}
);
width = 344;
},
{
layerId = "C665A7CC-B666-4F49-BFE5-A31D06CCF39B";
metricLeft = "=H-20";
shapes = (
{
pos = (32,0);
ref = H;
},
{
closed = 1;
nodes = (
(34,483,l),
(571,483,l),
(571,583,l),
(34,583,l)
);
}
);
width = 605;
},
{
layerId = "5F0F23F3-8289-4A13-984A-DE8C8AB95B73";
metricLeft = "=H-25";
shapes = (
{
pos = (41,0);
ref = H;
},
{
closed = 1;
nodes = (
(52,494,l),
(515,494,l),
(515,539,l),
(52,539,l)
);
}
);
width = 567;
},
{
layerId = "FA4F2279-C2CB-4D21-8447-C28A701A0705";
shapes = (
{
pos = (88,0);
ref = H;
},
{
closed = 1;
nodes = (
(95,492,l),
(751,492,l),
(751,541,l),
(95,541,l)
);
}
);
width = 846;
}
);
metricLeft = "=H";
metricRight = "=|Hbar";
unicode = 294;
},
{
color = 4;
glyphname = I;
kernLeft = KO_H;
kernRight = KO_H;
lastChange = "2023-02-24 18:24:16 +0000";
layers = (
{
anchors = (
{
name = bottom;
pos = (102,0);
},
{
name = ogonek;
pos = (184,0);
},
{
name = top;
pos = (102,660);
},
{
name = topleft;
pos = (-191,660);
}
);
layerId = "240BF9EB-FB0D-4A7D-9EDB-8E544078904A";
shapes = (
{
closed = 1;
nodes = (
(178,0,l),
(178,660,l),
(20,660,l),
(20,0,l)
);
}
);
userData = {
com.schriftgestaltung.Glyphs.lastChange = "2020-05-30 06:58:04 +0000";
};
width = 198;
},
{
anchors = (
{
name = bottom;
pos = (70,0);
},
{
name = ogonek;
pos = (99,0);
},
{
name = top;
pos = (70,660);
},
{
name = topleft;
pos = (-1119,660);
}
);
layerId = "6FE9FA8B-990F-4278-A730-82C9E963D7AD";
shapes = (
{
closed = 1;
nodes = (
(98,0,l),
(98,660,l),
(41,660,l),
(41,0,l)
);
}
);
userData = {
com.schriftgestaltung.Glyphs.lastChange = "2020-05-30 06:58:04 +0000";
};
width = 139;
},
{
anchors = (
{
name = bottom;
pos = (136,0);
},
{
name = ogonek;
pos = (218,0);
},
{
name = top;
pos = (136,660);
},
{
name = topleft;
pos = (-206,660);
}
);
layerId = "C665A7CC-B666-4F49-BFE5-A31D06CCF39B";
shapes = (
{
closed = 1;
nodes = (
(210,0,l),
(210,660,l),
(54,660,l),
(54,0,l)
);
}
);
userData = {
com.schriftgestaltung.Glyphs.lastChange = "2020-05-30 06:58:04 +0000";
};
width = 264;
},
{
anchors = (
{
name = bottom;
pos = (107,0);
},
{
name = ogonek;
pos = (136,0);
},
{
name = top;
pos = (107,660);
},
{
name = topleft;
pos = (18,660);
}
);
layerId = "5F0F23F3-8289-4A13-984A-DE8C8AB95B73";
shapes = (
{
closed = 1;
nodes = (
(134,0,l),
(134,660,l),
(77,660,l),
(77,0,l)
);
}
);
userData = {
com.schriftgestaltung.Glyphs.lastChange = "2020-05-30 06:58:04 +0000";
};
width = 211;
},
{
anchors = (
{
name = bottom;
pos = (122,0);
},
{
name = ogonek;
pos = (204,0);
},
{
name = top;
pos = (122,660);
},
{
name = topleft;
pos = (-131,660);
}
);
layerId = "C1A2FA2E-3F34-46D0-916F-7EEB4942386E";
shapes = (
{
closed = 1;
nodes = (
(203,0,l),
(203,660,l),
(40,660,l),
(40,0,l)
);
}
);
userData = {
com.schriftgestaltung.Glyphs.lastChange = "2020-05-30 06:58:04 +0000";
};
width = 243;
},
{
anchors = (
{
name = bottom;
pos = (87,0);
},
{
name = ogonek;
pos = (116,0);
},
{
name = top;
pos = (87,660);
},
{
name = topleft;
pos = (17,660);
}
);
layerId = "9F71C57A-214D-4B4D-A956-3B8F1C0FEA05";
shapes = (
{
closed = 1;
nodes = (
(116,0,l),
(116,660,l),
(58,660,l),
(58,0,l)
);
}
);
userData = {
com.schriftgestaltung.Glyphs.lastChange = "2020-05-30 06:58:04 +0000";
};
width = 174;
},
{
anchors = (
{
name = bottom;
pos = (152,0);
},
{
name = ogonek;
pos = (234,0);
},
{
name = top;
pos = (152,660);
},
{
name = topleft;
pos = (-2072,660);
}
);
layerId = "13870E78-3F0A-41D5-8A20-B477F2D0CF38";
shapes = (
{
closed = 1;
nodes = (
(234,0,l),
(234,660,l),
(70,660,l),
(70,0,l)
);
}
);
userData = {
com.schriftgestaltung.Glyphs.lastChange = "2020-05-30 06:58:04 +0000";
};
width = 304;
},
{
anchors = (
{
name = bottom;
pos = (125,0);
},
{
name = ogonek;
pos = (154,0);
},
{
name = top;
pos = (124,660);
},
{
name = topleft;
pos = (34,660);
}
);
layerId = "FA4F2279-C2CB-4D21-8447-C28A701A0705";
shapes = (
{
closed = 1;
nodes = (
(153,0,l),
(153,660,l),
(95,660,l),
(95,0,l)
);
}
);
userData = {
com.schriftgestaltung.Glyphs.lastChange = "2020-05-30 06:58:04 +0000";
};
width = 248;
}
);
metricLeft = "=H";
metricRight = "=H";
unicode = 73;
},
{
color = 4;
glyphname = J;
kernLeft = KO_J;
kernRight = KO_U;
lastChange = "2023-07-05 06:04:23 +0000";
layers = (
{
anchors = (
{
name = bottom;
pos = (150,0);
},
{
name = top;
pos = (174,660);
}
);
layerId = "240BF9EB-FB0D-4A7D-9EDB-8E544078904A";
metricRight = "=U+1";
shapes = (
{
closed = 1;
nodes = (
(21,-10,o),
(30,-10,o),
(39,-10,cs),
(190,-10,o),
(251,69,o),
(251,239,cs),
(251,660,l),
(93,660,l),
(93,243,ls),
(93,164,o),
(72,133,o),
(34,133,cs),
(24,133,o),
(16,134,o),
(5,137,c),
(11,-9,l)
);
}
);
userData = {
com.schriftgestaltung.Glyphs.lastChange = "2020-05-30 07:44:11 +0000";
};
width = 271;
},
{
anchors = (
{
name = bottom;
pos = (229,0);
},
{
name = top;
pos = (176,660);
}
);
layerId = "5F0F23F3-8289-4A13-984A-DE8C8AB95B73";
metricRight = "=U";
shapes = (
{
closed = 1;
nodes = (
(56,-11,o),
(65,-11,o),
(74,-11,cs),
(151,-11,o),
(203,43,o),
(203,151,cs),
(203,660,l),
(146,660,l),
(146,161,ls),
(146,66,o),
(122,45,o),
(43,45,cs),
(37,45,o),
(31,45,o),
(24,46,c),
(34,-10,l)
);
}
);
userData = {
com.schriftgestaltung.Glyphs.lastChange = "2020-05-30 07:44:11 +0000";
};
width = 278;
},
{
anchors = (
{
name = bottom;
pos = (163,0);
},
{
name = top;
pos = (204,660);
}
);
layerId = "C1A2FA2E-3F34-46D0-916F-7EEB4942386E";
shapes = (
{
closed = 1;
nodes = (
(40,-8,o),
(50,-9,o),
(70,-9,cs),
(214,-9,o),
(286,74,o),
(286,243,cs),
(286,660,l),
(124,660,l),
(124,244,ls),
(124,167,o),
(105,136,o),
(45,136,cs),
(42,136,o),
(24,137,o),
(8,141,c),
(26,-6,l)
);
}
);
userData = {
com.schriftgestaltung.Glyphs.lastChange = "2020-05-30 07:44:11 +0000";
};
width = 323;
},
{
anchors = (
{
name = bottom;
pos = (185,0);
},
{
name = top;
pos = (234,660);
}
);
layerId = "13870E78-3F0A-41D5-8A20-B477F2D0CF38";
metricRight = "=U+2";
shapes = (
{
closed = 1;
nodes = (
(53,-10,o),
(70,-11,o),
(83,-11,cs),
(241,-11,o),
(315,74,o),
(315,242,cs),
(315,660,l),
(153,660,l),
(153,243,ls),
(153,165,o),
(131,137,o),
(56,137,cs),
(47,137,o),
(30,138,o),
(15,141,c),
(22,-7,l)
);
}
);
userData = {
com.schriftgestaltung.Glyphs.lastChange = "2020-05-30 07:44:11 +0000";
};
width = 383;
},
{
anchors = (
{
name = bottom;
pos = (161,0);
},
{
name = top;
pos = (215,660);
}
);
layerId = "FA4F2279-C2CB-4D21-8447-C28A701A0705";
metricRight = "=U+3";
shapes = (
{
closed = 1;
nodes = (
(32,-10,o),
(38,-10,o),
(44,-10,cs),
(208,-10,o),
(241,90,o),
(241,223,cs),
(241,660,l),
(185,660,l),
(185,223,ls),
(185,108,o),
(164,45,o),
(40,45,cs),
(31,45,o),
(20,45,o),
(6,46,c),
(24,-10,l)
);
}
);
userData = {
com.schriftgestaltung.Glyphs.lastChange = "2020-05-30 07:44:11 +0000";
};
width = 334;
},
{
anchors = (
{
name = bottom;
pos = (143,0);
},
{
name = top;
pos = (205,660);
}
);
layerId = "9F71C57A-214D-4B4D-A956-3B8F1C0FEA05";
name = "96pt ExtraLight";
shapes = (
{
closed = 1;
nodes = (
(33,-9,o),
(39,-9,o),
(44,-9,cs),
(175,-9,o),
(233,64,o),
(233,222,cs),
(233,660,l),
(176,660,l),
(176,232,ls),
(176,92,o),
(142,45,o),
(40,45,cs),
(34,45,o),
(20,45,o),
(10,46,c),
(27,-9,l)
);
}
);
userData = {
com.schriftgestaltung.Glyphs.lastChange = "2020-05-30 07:44:11 +0000";
};
width = 288;
},
{
anchors = (
{
name = bottom;
pos = (156,0);
},
{
name = top;
pos = (127,660);
}
);
layerId = "6FE9FA8B-990F-4278-A730-82C9E963D7AD";
name = "96pt Condensed ExtraLight";
shapes = (
{
closed = 1;
nodes = (
(22,-10,o),
(30,-10,o),
(35,-10,cs),
(115,-10,o),
(154,55,o),
(154,152,cs),
(154,660,l),
(97,660,l),
(97,150,ls),
(97,74,o),
(76,45,o),
(14,45,cs),
(12,45,o),
(9,45,o),
(6,45,c),
(14,-9,l)
);
}
);
userData = {
com.schriftgestaltung.Glyphs.lastChange = "2020-05-30 07:44:11 +0000";
};
width = 193;
},
{
anchors = (
{
name = bottom;
pos = (205,0);
},
{
name = top;
pos = (213,660);
}
);
layerId = "C665A7CC-B666-4F49-BFE5-A31D06CCF39B";
name = "12pt Condensed ExtraBold";
shapes = (
{
closed = 1;
nodes = (
(42,-8,o),
(51,-8,o),
(60,-8,cs),
(215,-8,o),
(290,55,o),
(290,231,cs),
(290,660,l),
(130,660,l),
(130,237,ls),
(130,168,o),
(108,142,o),
(41,142,cs),
(32,142,o),
(19,142,o),
(10,143,c),
(16,-8,l)
);
}
);
userData = {
com.schriftgestaltung.Glyphs.lastChange = "2020-05-30 07:44:11 +0000";
};
width = 341;
}
);
metricRight = "=U";
unicode = 74;
},
{
color = 4;
glyphname = K;
kernLeft = KO_H;
kernRight = KO_K;
lastChange = "2023-07-05 06:04:28 +0000";
layers = (
{
anchors = (
{
name = bottom;
pos = (211,0);
},
{
name = top;
pos = (211,660);
}
);
layerId = "5F0F23F3-8289-4A13-984A-DE8C8AB95B73";
shapes = (
{
closed = 1;
nodes = (
(133,0,l),
(133,273,l),
(188,273,ls),
(284,273,o),
(291,241,o),
(308,129,cs),
(328,0,l),
(387,0,l),
(354,191,ls),
(336,298,o),
(280,311,o),
(194,311,c),
(194,322,l),
(266,369,o),
(371,463,o),
(377,660,c),
(320,660,l),
(314,476,o),
(209,370,o),
(133,329,c),
(133,660,l),
(77,660,l),
(77,0,l)
);
}
);
userData = {
com.schriftgestaltung.Glyphs.lastChange = "2020-05-30 07:45:09 +0000";
com.typemytype.robofont.Image.Brightness = 0;
com.typemytype.robofont.Image.Contrast = 1;
com.typemytype.robofont.Image.Saturation = 1;
com.typemytype.robofont.Image.Sharpness = 0.4;
};
width = 436;
},
{
anchors = (
{
name = bottom;
pos = (154,0);
},
{
name = top;
pos = (154,660);
}
);
layerId = "6FE9FA8B-990F-4278-A730-82C9E963D7AD";
shapes = (
{
closed = 1;
nodes = (
(97,0,l),
(97,273,l),
(123,273,ls),
(207,273,o),
(223,235,o),
(237,129,cs),
(254,0,l),
(312,0,l),
(289,158,ls),
(268,299,o),
(219,309,o),
(141,309,c),
(141,315,l),
(219,359,o),
(290,484,o),
(306,660,c),
(248,660,l),
(237,514,o),
(182,387,o),
(97,330,c),
(97,660,l),
(41,660,l),
(41,0,l)
);
}
);
userData = {
com.schriftgestaltung.Glyphs.lastChange = "2020-05-30 07:45:09 +0000";
com.typemytype.robofont.Image.Brightness = 0;
com.typemytype.robofont.Image.Contrast = 1;
com.typemytype.robofont.Image.Saturation = 1;
com.typemytype.robofont.Image.Sharpness = 0.4;
};
width = 332;
},
{
anchors = (
{
name = bottom;
pos = (260,0);
},
{
name = top;
pos = (260,660);
}
);
layerId = "C665A7CC-B666-4F49-BFE5-A31D06CCF39B";
shapes = (
{
closed = 1;
nodes = (
(208,0,l),
(208,264,l),
(239,264,ls),
(302,264,o),
(312,233,o),
(323,121,cs),
(335,0,l),
(495,0,l),
(473,173,ls),
(458,294,o),
(395,325,o),
(304,326,c),
(304,335,l),
(414,400,o),
(474,517,o),
(493,660,c),
(323,660,l),
(314,517,o),
(269,434,o),
(208,362,c),
(208,660,l),
(54,660,l),
(54,0,l)
);
}
);
userData = {
com.schriftgestaltung.Glyphs.lastChange = "2020-05-30 07:45:09 +0000";
com.typemytype.robofont.Image.Brightness = 0;
com.typemytype.robofont.Image.Contrast = 1;
com.typemytype.robofont.Image.Saturation = 1;
com.typemytype.robofont.Image.Sharpness = 0.4;
};
width = 526;
},
{
anchors = (
{
name = bottom;
pos = (287,0);
},
{
name = top;
pos = (287,660);
}
);
layerId = "9F71C57A-214D-4B4D-A956-3B8F1C0FEA05";
name = "Display Thin";
shapes = (
{
closed = 1;
nodes = (
(115,0,l),
(115,288,l),
(176,288,ls),
(359,288,o),
(415,222,o),
(448,95,cs),
(473,0,l),
(533,0,l),
(495,131,ls),
(462,243,o),
(402,318,o),
(231,322,c),
(231,329,l),
(379,358,o),
(509,508,o),
(529,660,c),
(471,660,l),
(460,518,o),
(315,354,o),
(115,341,c),
(115,660,l),
(58,660,l),
(58,0,l)
);
}
);
userData = {
com.schriftgestaltung.Glyphs.lastChange = "2020-05-30 07:45:09 +0000";
com.typemytype.robofont.Image.Brightness = 0;
com.typemytype.robofont.Image.Contrast = 1;
com.typemytype.robofont.Image.Saturation = 1;
com.typemytype.robofont.Image.Sharpness = 0.4;
};
width = 565;
},
{
anchors = (
{
name = bottom;
pos = (212,0);
},
{
name = top;
pos = (212,660);
}
);
layerId = "240BF9EB-FB0D-4A7D-9EDB-8E544078904A";
name = "Display Compressed Bold";
shapes = (
{
closed = 1;
nodes = (
(174,0,l),
(174,264,l),
(182,264,ls),
(230,264,o),
(244,235,o),
(252,121,cs),
(261,0,l),
(421,0,l),
(403,177,ls),
(391,297,o),
(332,317,o),
(246,320,c),
(246,327,l),
(360,385,o),
(414,510,o),
(421,660,c),
(250,660,l),
(240,510,o),
(219,428,o),
(174,362,c),
(174,660,l),
(20,660,l),
(20,0,l)
);
}
);
userData = {
com.schriftgestaltung.Glyphs.lastChange = "2020-05-30 07:45:09 +0000";
com.typemytype.robofont.Image.Brightness = 0;
com.typemytype.robofont.Image.Contrast = 1;
com.typemytype.robofont.Image.Saturation = 1;
com.typemytype.robofont.Image.Sharpness = 0.4;
};
width = 434;
},
{
anchors = (
{
name = bottom;
pos = (325,0);
},
{
name = top;
pos = (311,660);
}
);
layerId = "FA4F2279-C2CB-4D21-8447-C28A701A0705";
shapes = (
{
closed = 1;
nodes = (
(152,0,l),
(152,285,l),
(212,285,ls),
(379,285,o),
(446,210,o),
(502,65,cs),
(524,0,l),
(588,0,l),
(553,92,ls),
(488,246,o),
(404,317,o),
(269,319,c),
(269,331,l),
(385,380,o),
(520,490,o),
(584,660,c),
(524,660,l),
(469,507,o),
(308,381,o),
(152,331,c),
(152,660,l),
(95,660,l),
(95,0,l)
);
}
);
userData = {
com.schriftgestaltung.Glyphs.lastChange = "2020-05-30 07:45:09 +0000";
com.typemytype.robofont.Image.Brightness = 0;
com.typemytype.robofont.Image.Contrast = 1;
com.typemytype.robofont.Image.Saturation = 1;
com.typemytype.robofont.Image.Sharpness = 0.4;
};
width = 637;
},
{
anchors = (
{
name = bottom;
pos = (314,0);
},
{
name = top;
pos = (314,660);
}
);
layerId = "C1A2FA2E-3F34-46D0-916F-7EEB4942386E";
name = "96pt ExtraBold";
shapes = (
{
closed = 1;
nodes = (
(202,0,l),
(202,248,l),
(259,248,ls),
(338,248,o),
(374,219,o),
(393,147,cs),
(431,0,l),
(611,0,l),
(558,164,ls),
(531,246,o),
(491,337,o),
(328,324,c),
(328,332,l),
(480,388,o),
(568,508,o),
(600,660,c),
(418,660,l),
(393,542,o),
(331,421,o),
(202,378,c),
(202,660,l),
(40,660,l),
(40,0,l)
);
}
);
userData = {
com.schriftgestaltung.Glyphs.lastChange = "2020-05-30 07:45:09 +0000";
com.typemytype.robofont.Image.Brightness = 0;
com.typemytype.robofont.Image.Contrast = 1;
com.typemytype.robofont.Image.Saturation = 1;
com.typemytype.robofont.Image.Sharpness = 0.4;
};
width = 623;
},
{
anchors = (
{
name = bottom;
pos = (345,0);
},
{
name = top;
pos = (345,660);
}
);
layerId = "13870E78-3F0A-41D5-8A20-B477F2D0CF38";
name = "12pt ExtraBold";
shapes = (
{
closed = 1;
nodes = (
(231,0,l),
(231,249,l),
(289,249,ls),
(392,249,o),
(435,218,o),
(460,131,cs),
(497,0,l),
(680,0,l),
(623,160,ls),
(581,276,o),
(516,329,o),
(395,329,c),
(395,344,l),
(513,397,o),
(636,537,o),
(669,660,c),
(483,660,l),
(457,554,o),
(362,430,o),
(231,371,c),
(231,660,l),
(70,660,l),
(70,0,l)
);
}
);
userData = {
com.schriftgestaltung.Glyphs.lastChange = "2020-05-30 07:45:09 +0000";
com.typemytype.robofont.Image.Brightness = 0;
com.typemytype.robofont.Image.Contrast = 1;
com.typemytype.robofont.Image.Saturation = 1;
com.typemytype.robofont.Image.Sharpness = 0.4;
};
width = 699;
}
);
metricLeft = "=H";
unicode = 75;
userData = {
KernOnName = K;
};
},
{
color = 4;
glyphname = L;
kernLeft = KO_H;
kernRight = KO_L;
lastChange = "2023-07-05 06:04:28 +0000";
layers = (
{
anchors = (
{
name = bottom;
pos = (161,0);
},
{
name = center;
pos = (161,330);
},
{
name = top;
pos = (100,660);
},
{
name = topright;
pos = (179,660);
}
);
layerId = "240BF9EB-FB0D-4A7D-9EDB-8E544078904A";
shapes = (
{
closed = 1;
nodes = (
(176,0,l),
(176,660,l),
(20,660,l),
(20,0,l)
);
},
{
closed = 1;
nodes = (
(327,0,l),
(327,130,l),
(46,130,l),
(46,0,l)
);
}
);
userData = {
com.schriftgestaltung.Glyphs.lastChange = "2020-05-30 06:58:04 +0000";
com.typemytype.robofont.Image.Brightness = 0;
com.typemytype.robofont.Image.Contrast = 1;
com.typemytype.robofont.Image.Saturation = 1;
com.typemytype.robofont.Image.Sharpness = 0.4;
};
width = 332;
},
{
anchors = (
{
name = bottom;
pos = (132,0);
},
{
name = center;
pos = (132,330);
},
{
name = top;
pos = (72,660);
},
{
name = topright;
pos = (143,660);
}
);
layerId = "6FE9FA8B-990F-4278-A730-82C9E963D7AD";
shapes = (
{
closed = 1;
nodes = (
(98,0,l),
(98,660,l),
(41,660,l),
(41,0,l)
);
},
{
closed = 1;
nodes = (
(249,0,l),
(249,53,l),
(72,53,l),
(72,0,l)
);
}
);
userData = {
com.schriftgestaltung.Glyphs.lastChange = "2020-05-30 06:58:04 +0000";
com.typemytype.robofont.Image.Brightness = 0;
com.typemytype.robofont.Image.Contrast = 1;
com.typemytype.robofont.Image.Saturation = 1;
com.typemytype.robofont.Image.Sharpness = 0.4;
};
width = 255;
},
{
anchors = (
{
name = bottom;
pos = (199,0);
},
{
name = center;
pos = (199,330);
},
{
name = top;
pos = (134,660);
},
{
name = topright;
pos = (260,660);
}
);
layerId = "C665A7CC-B666-4F49-BFE5-A31D06CCF39B";
shapes = (
{
closed = 1;
nodes = (
(208,0,l),
(208,660,l),
(54,660,l),
(54,0,l)
);
},
{
closed = 1;
nodes = (
(387,0,l),
(387,134,l),
(84,134,l),
(84,0,l)
);
}
);
userData = {
com.schriftgestaltung.Glyphs.lastChange = "2020-05-30 06:58:04 +0000";
com.typemytype.robofont.Image.Brightness = 0;
com.typemytype.robofont.Image.Contrast = 1;
com.typemytype.robofont.Image.Saturation = 1;
com.typemytype.robofont.Image.Sharpness = 0.4;
};
width = 397;
},
{
anchors = (
{
name = bottom;
pos = (189,0);
},
{
name = center;
pos = (189,330);
},
{
name = top;
pos = (107,660);
},
{
name = topright;
pos = (217,660);
}
);
layerId = "5F0F23F3-8289-4A13-984A-DE8C8AB95B73";
shapes = (
{
closed = 1;
nodes = (
(133,0,l),
(133,660,l),
(77,660,l),
(77,0,l)
);
},
{
closed = 1;
nodes = (
(340,0,l),
(340,54,l),
(112,54,l),
(112,0,l)
);
}
);
userData = {
com.schriftgestaltung.Glyphs.lastChange = "2020-05-30 06:58:04 +0000";
com.typemytype.robofont.Image.Brightness = 0;
com.typemytype.robofont.Image.Contrast = 1;
com.typemytype.robofont.Image.Saturation = 1;
com.typemytype.robofont.Image.Sharpness = 0.4;
};
width = 350;
},
{
anchors = (
{
name = bottom;
pos = (233,0);
},
{
name = center;
pos = (233,330);
},
{
name = top;
pos = (121,660);
},
{
name = topright;
pos = (253,660);
}
);
layerId = "C1A2FA2E-3F34-46D0-916F-7EEB4942386E";
shapes = (
{
closed = 1;
nodes = (
(202,0,l),
(202,660,l),
(40,660,l),
(40,0,l)
);
},
{
closed = 1;
nodes = (
(453,0,l),
(453,138,l),
(68,138,l),
(68,0,l)
);
}
);
userData = {
com.schriftgestaltung.Glyphs.lastChange = "2020-05-30 06:58:04 +0000";
com.typemytype.robofont.Image.Brightness = 0;
com.typemytype.robofont.Image.Contrast = 1;
com.typemytype.robofont.Image.Saturation = 1;
com.typemytype.robofont.Image.Sharpness = 0.4;
};
width = 460;
},
{
anchors = (
{
name = bottom;
pos = (239,0);
},
{
name = center;
pos = (239,330);
},
{
name = top;
pos = (88,660);
},
{
name = topright;
pos = (180,660);
}
);
layerId = "9F71C57A-214D-4B4D-A956-3B8F1C0FEA05";
shapes = (
{
closed = 1;
nodes = (
(115,0,l),
(115,660,l),
(58,660,l),
(58,0,l)
);
},
{
closed = 1;
nodes = (
(430,0,l),
(430,53,l),
(88,53,l),
(88,0,l)
);
}
);
userData = {
com.schriftgestaltung.Glyphs.lastChange = "2020-05-30 06:58:04 +0000";
com.typemytype.robofont.Image.Brightness = 0;
com.typemytype.robofont.Image.Contrast = 1;
com.typemytype.robofont.Image.Saturation = 1;
com.typemytype.robofont.Image.Sharpness = 0.4;
};
width = 440;
},
{
anchors = (
{
name = bottom;
pos = (263,0);
},
{
name = center;
pos = (263,330);
},
{
name = top;
pos = (151,660);
},
{
name = topright;
pos = (331,660);
}
);
layerId = "13870E78-3F0A-41D5-8A20-B477F2D0CF38";
shapes = (
{
closed = 1;
nodes = (
(231,0,l),
(231,660,l),
(70,660,l),
(70,0,l)
);
},
{
closed = 1;
nodes = (
(500,0,l),
(500,135,l),
(99,135,l),
(99,0,l)
);
}
);
userData = {
com.schriftgestaltung.Glyphs.lastChange = "2020-05-30 06:58:04 +0000";
com.typemytype.robofont.Image.Brightness = 0;
com.typemytype.robofont.Image.Contrast = 1;
com.typemytype.robofont.Image.Saturation = 1;
com.typemytype.robofont.Image.Sharpness = 0.4;
};
width = 510;
},
{
anchors = (
{
name = bottom;
pos = (286,0);
},
{
name = center;
pos = (251,330);
},
{
name = top;
pos = (125,660);
},
{
name = topright;
pos = (301,660);
}
);
layerId = "FA4F2279-C2CB-4D21-8447-C28A701A0705";
shapes = (
{
closed = 1;
nodes = (
(152,0,l),
(152,660,l),
(95,660,l),
(95,0,l)
);
},
{
closed = 1;
nodes = (
(481,0,l),
(481,53,l),
(125,53,l),
(125,0,l)
);
}
);
userData = {
com.schriftgestaltung.Glyphs.lastChange = "2020-05-30 06:58:04 +0000";
com.typemytype.robofont.Image.Brightness = 0;
com.typemytype.robofont.Image.Contrast = 1;
com.typemytype.robofont.Image.Saturation = 1;
com.typemytype.robofont.Image.Sharpness = 0.4;
};
width = 508;
}
);
metricLeft = "=H";
unicode = 76;
userData = {
KernOnName = L;
};
},
{
glyphname = Lslash;
kernLeft = KO_Lslash;
kernRight = KO_Lslash;
lastChange = "2023-02-28 08:48:55 +0000";
layers = (
{
layerId = "C1A2FA2E-3F34-46D0-916F-7EEB4942386E";
shapes = (
{
pos = (38,0);
ref = L;
},
{
closed = 1;
nodes = (
(30,229,l),
(359,342,l),
(359,479,l),
(30,366,l)
);
}
);
width = 498;
},
{
layerId = "9F71C57A-214D-4B4D-A956-3B8F1C0FEA05";
shapes = (
{
pos = (51,0);
ref = L;
},
{
closed = 1;
nodes = (
(48,269,l),
(361,382,l),
(361,437,l),
(48,324,l)
);
}
);
width = 491;
},
{
layerId = "13870E78-3F0A-41D5-8A20-B477F2D0CF38";
shapes = (
{
pos = (76,0);
ref = L;
},
{
closed = 1;
nodes = (
(60,219,l),
(470,340,l),
(470,476,l),
(60,355,l)
);
}
);
width = 586;
},
{
layerId = "240BF9EB-FB0D-4A7D-9EDB-8E544078904A";
shapes = (
{
pos = (35,0);
ref = L;
},
{
closed = 1;
nodes = (
(10,233,l),
(307,346,l),
(307,481,l),
(10,368,l)
);
}
);
width = 367;
},
{
layerId = "6FE9FA8B-990F-4278-A730-82C9E963D7AD";
shapes = (
{
pos = (35,0);
ref = L;
},
{
closed = 1;
nodes = (
(31,269,l),
(248,374,l),
(248,429,l),
(31,324,l)
);
}
);
width = 290;
},
{
layerId = "C665A7CC-B666-4F49-BFE5-A31D06CCF39B";
shapes = (
{
pos = (61,0);
ref = L;
},
{
closed = 1;
nodes = (
(44,246,l),
(398,367,l),
(398,489,l),
(44,368,l)
);
}
);
width = 458;
},
{
layerId = "5F0F23F3-8289-4A13-984A-DE8C8AB95B73";
shapes = (
{
pos = (62,0);
ref = L;
},
{
closed = 1;
nodes = (
(67,269,l),
(332,382,l),
(332,437,l),
(67,324,l)
);
}
);
width = 412;
},
{
layerId = "FA4F2279-C2CB-4D21-8447-C28A701A0705";
shapes = (
{
pos = (88,0);
ref = L;
},
{
closed = 1;
nodes = (
(85,251,l),
(442,392,l),
(442,445,l),
(85,303,l)
);
}
);
width = 596;
}
);
metricLeft = "=L-10";
metricRight = "=L";
unicode = 321;
},
{
color = 4;
glyphname = M;
kernLeft = KO_H;
kernRight = KO_H;
lastChange = "2023-02-25 23:48:04 +0000";
layers = (
{
anchors = (
{
name = bottom;
pos = (414,0);
},
{
name = top;
pos = (414,660);
}
);
layerId = "240BF9EB-FB0D-4A7D-9EDB-8E544078904A";
shapes = (
{
closed = 1;
nodes = (
(165,0,l),
(165,520,l),
(168,520,l),
(240,0,l),
(392,0,l),
(464,520,l),
(467,520,l),
(467,0,l),
(612,0,l),
(612,660,l),
(368,660,l),
(325,140,l),
(322,140,l),
(273,660,l),
(20,660,l),
(20,0,l)
);
}
);
userData = {
com.schriftgestaltung.Glyphs.lastChange = "2020-05-30 06:58:04 +0000";
com.typemytype.robofont.Image.Brightness = 0;
com.typemytype.robofont.Image.Contrast = 1;
com.typemytype.robofont.Image.Saturation = 1;
com.typemytype.robofont.Image.Sharpness = 0.4;
};
width = 632;
},
{
anchors = (
{
name = bottom;
pos = (241,0);
},
{
name = top;
pos = (241,660);
}
);
layerId = "6FE9FA8B-990F-4278-A730-82C9E963D7AD";
shapes = (
{
closed = 1;
nodes = (
(96,0,l),
(96,608,l),
(99,608,l),
(205,0,l),
(293,0,l),
(398,608,l),
(401,608,l),
(401,0,l),
(456,0,l),
(456,660,l),
(358,660,l),
(253,45,l),
(250,45,l),
(141,660,l),
(41,660,l),
(41,0,l)
);
}
);
userData = {
com.schriftgestaltung.Glyphs.lastChange = "2020-05-30 06:58:04 +0000";
com.typemytype.robofont.Image.Brightness = 0;
com.typemytype.robofont.Image.Contrast = 1;
com.typemytype.robofont.Image.Saturation = 1;
com.typemytype.robofont.Image.Sharpness = 0.4;
};
width = 497;
},
{
anchors = (
{
name = bottom;
pos = (475,0);
},
{
name = top;
pos = (473,660);
}
);
layerId = "C665A7CC-B666-4F49-BFE5-A31D06CCF39B";
shapes = (
{
closed = 1;
nodes = (
(197,0,l),
(187,510,l),
(201,510,l),
(305,0,l),
(447,0,l),
(552,510,l),
(566,510,l),
(556,0,l),
(695,0,l),
(695,660,l),
(478,660,l),
(380,169,l),
(366,169,l),
(270,660,l),
(54,660,l),
(54,0,l)
);
}
);
userData = {
com.schriftgestaltung.Glyphs.lastChange = "2020-05-30 06:58:04 +0000";
com.typemytype.robofont.Image.Brightness = 0;
com.typemytype.robofont.Image.Contrast = 1;
com.typemytype.robofont.Image.Saturation = 1;
com.typemytype.robofont.Image.Sharpness = 0.4;
};
width = 749;
},
{
anchors = (
{
name = bottom;
pos = (343,0);
},
{
name = top;
pos = (329,660);
}
);
layerId = "5F0F23F3-8289-4A13-984A-DE8C8AB95B73";
shapes = (
{
closed = 1;
nodes = (
(134,0,l),
(129,609,l),
(136,609,l),
(285,0,l),
(371,0,l),
(526,608,l),
(532,608,l),
(527,0,l),
(582,0,l),
(582,660,l),
(486,660,l),
(333,48,l),
(327,48,l),
(175,660,l),
(77,660,l),
(77,0,l)
);
}
);
userData = {
com.schriftgestaltung.Glyphs.lastChange = "2020-05-30 06:58:04 +0000";
com.typemytype.robofont.Image.Brightness = 0;
com.typemytype.robofont.Image.Contrast = 1;
com.typemytype.robofont.Image.Saturation = 1;
com.typemytype.robofont.Image.Sharpness = 0.4;
};
width = 659;
},
{
anchors = (
{
name = bottom;
pos = (426,0);
},
{
name = top;
pos = (426,660);
}
);
layerId = "C1A2FA2E-3F34-46D0-916F-7EEB4942386E";
shapes = (
{
closed = 1;
nodes = (
(190,0,l),
(190,497,l),
(192,497,l),
(339,0,l),
(481,0,l),
(630,497,l),
(632,497,l),
(632,0,l),
(782,0,l),
(782,660,l),
(552,660,l),
(420,191,l),
(418,191,l),
(283,660,l),
(40,660,l),
(40,0,l)
);
}
);
userData = {
com.schriftgestaltung.Glyphs.lastChange = "2020-05-30 06:58:04 +0000";
com.typemytype.robofont.Image.Brightness = 0;
com.typemytype.robofont.Image.Contrast = 1;
com.typemytype.robofont.Image.Saturation = 1;
com.typemytype.robofont.Image.Sharpness = 0.4;
};
width = 822;
},
{
anchors = (
{
name = bottom;
pos = (372,0);
},
{
name = top;
pos = (372,660);
}
);
layerId = "9F71C57A-214D-4B4D-A956-3B8F1C0FEA05";
shapes = (
{
closed = 1;
nodes = (
(115,0,l),
(115,603,l),
(117,603,l),
(335,0,l),
(410,0,l),
(628,602,l),
(630,602,l),
(630,0,l),
(687,0,l),
(687,660,l),
(594,660,l),
(374,53,l),
(372,53,l),
(152,660,l),
(58,660,l),
(58,0,l)
);
}
);
userData = {
com.schriftgestaltung.Glyphs.lastChange = "2020-05-30 06:58:04 +0000";
com.typemytype.robofont.Image.Brightness = 0;
com.typemytype.robofont.Image.Contrast = 1;
com.typemytype.robofont.Image.Saturation = 1;
com.typemytype.robofont.Image.Sharpness = 0.4;
};
width = 745;
},
{
anchors = (
{
name = bottom;
pos = (529,0);
},
{
name = top;
pos = (529,660);
}
);
layerId = "13870E78-3F0A-41D5-8A20-B477F2D0CF38";
shapes = (
{
closed = 1;
nodes = (
(220,0,l),
(210,496,l),
(222,496,l),
(410,0,l),
(541,0,l),
(733,496,l),
(745,496,l),
(735,0,l),
(888,0,l),
(888,660,l),
(658,660,l),
(489,185,l),
(484,185,l),
(311,660,l),
(70,660,l),
(70,0,l)
);
}
);
userData = {
com.schriftgestaltung.Glyphs.lastChange = "2020-05-30 06:58:04 +0000";
com.typemytype.robofont.Image.Brightness = 0;
com.typemytype.robofont.Image.Contrast = 1;
com.typemytype.robofont.Image.Saturation = 1;
com.typemytype.robofont.Image.Sharpness = 0.4;
};
width = 958;
},
{
anchors = (
{
name = bottom;
pos = (436,0);
},
{
name = top;
pos = (432,660);
}
);
layerId = "FA4F2279-C2CB-4D21-8447-C28A701A0705";
shapes = (
{
closed = 1;
nodes = (
(152,0,l),
(148,604,l),
(154,604,l),
(399,0,l),
(468,0,l),
(714,603,l),
(720,603,l),
(715,0,l),
(770,0,l),
(770,660,l),
(680,660,l),
(436,52,l),
(431,52,l),
(188,660,l),
(95,660,l),
(95,0,l)
);
}
);
userData = {
com.schriftgestaltung.Glyphs.lastChange = "2020-05-30 06:58:04 +0000";
com.typemytype.robofont.Image.Brightness = 0;
com.typemytype.robofont.Image.Contrast = 1;
com.typemytype.robofont.Image.Saturation = 1;
com.typemytype.robofont.Image.Sharpness = 0.4;
};
width = 865;
}
);
metricLeft = "=H";
metricRight = "=H";
unicode = 77;
},
{
color = 4;
glyphname = N;
kernLeft = KO_H;
kernRight = KO_H;
lastChange = "2023-02-25 23:48:04 +0000";
layers = (
{
anchors = (
{
name = bottom;
pos = (231,0);
},
{
name = top;
pos = (231,660);
}
);
layerId = "240BF9EB-FB0D-4A7D-9EDB-8E544078904A";
shapes = (
{
closed = 1;
nodes = (
(166,0,l),
(166,395,l),
(169,395,l),
(291,0,l),
(460,0,l),
(460,660,l),
(315,660,l),
(315,265,l),
(312,265,l),
(188,660,l),
(20,660,l),
(20,0,l)
);
}
);
userData = {
com.schriftgestaltung.Glyphs.lastChange = "2020-05-30 07:45:54 +0000";
};
width = 480;
},
{
anchors = (
{
name = bottom;
pos = (295,0);
},
{
name = top;
pos = (295,660);
}
);
layerId = "C665A7CC-B666-4F49-BFE5-A31D06CCF39B";
shapes = (
{
closed = 1;
nodes = (
(197,0,l),
(187,441,l),
(201,441,l),
(364,0,l),
(537,0,l),
(537,660,l),
(393,660,l),
(403,241,l),
(389,241,l),
(233,660,l),
(54,660,l),
(54,0,l)
);
}
);
userData = {
com.schriftgestaltung.Glyphs.lastChange = "2020-05-30 07:45:54 +0000";
};
width = 591;
},
{
anchors = (
{
name = bottom;
pos = (261,0);
},
{
name = top;
pos = (261,660);
}
);
layerId = "5F0F23F3-8289-4A13-984A-DE8C8AB95B73";
shapes = (
{
closed = 1;
nodes = (
(133,0,l),
(128,608,l),
(134,608,l),
(350,0,l),
(444,0,l),
(444,660,l),
(388,660,l),
(393,52,l),
(387,52,l),
(171,660,l),
(77,660,l),
(77,0,l)
);
}
);
userData = {
com.schriftgestaltung.Glyphs.lastChange = "2020-05-30 07:45:54 +0000";
};
width = 521;
},
{
anchors = (
{
name = bottom;
pos = (202,0);
},
{
name = top;
pos = (202,660);
}
);
layerId = "6FE9FA8B-990F-4278-A730-82C9E963D7AD";
name = "Display Compressed Thin";
shapes = (
{
closed = 1;
nodes = (
(97,0,l),
(97,612,l),
(100,612,l),
(263,0,l),
(362,0,l),
(362,660,l),
(306,660,l),
(306,49,l),
(303,49,l),
(140,660,l),
(41,660,l),
(41,0,l)
);
}
);
userData = {
com.schriftgestaltung.Glyphs.lastChange = "2020-05-30 07:45:54 +0000";
};
width = 403;
},
{
anchors = (
{
name = bottom;
pos = (347,0);
},
{
name = top;
pos = (347,660);
}
);
layerId = "C1A2FA2E-3F34-46D0-916F-7EEB4942386E";
name = "Display Black";
shapes = (
{
closed = 1;
nodes = (
(200,0,l),
(200,462,l),
(202,462,l),
(450,0,l),
(654,0,l),
(654,660,l),
(494,660,l),
(494,213,l),
(492,213,l),
(257,660,l),
(40,660,l),
(40,0,l)
);
}
);
userData = {
com.schriftgestaltung.Glyphs.lastChange = "2020-05-30 07:45:54 +0000";
};
width = 694;
},
{
anchors = (
{
name = bottom;
pos = (317,0);
},
{
name = top;
pos = (317,660);
}
);
layerId = "9F71C57A-214D-4B4D-A956-3B8F1C0FEA05";
name = "Display Thin";
shapes = (
{
closed = 1;
nodes = (
(115,0,l),
(115,603,l),
(117,603,l),
(488,0,l),
(576,0,l),
(576,660,l),
(518,660,l),
(518,56,l),
(516,56,l),
(144,660,l),
(58,660,l),
(58,0,l)
);
}
);
userData = {
com.schriftgestaltung.Glyphs.lastChange = "2020-05-30 07:45:54 +0000";
};
width = 634;
},
{
anchors = (
{
name = bottom;
pos = (397,0);
},
{
name = top;
pos = (397,660);
}
);
layerId = "13870E78-3F0A-41D5-8A20-B477F2D0CF38";
name = "Small Black";
shapes = (
{
closed = 1;
nodes = (
(227,0,l),
(217,468,l),
(229,468,l),
(533,0,l),
(722,0,l),
(722,660,l),
(565,660,l),
(575,217,l),
(563,217,l),
(279,660,l),
(70,660,l),
(70,0,l)
);
}
);
userData = {
com.schriftgestaltung.Glyphs.lastChange = "2020-05-30 07:45:54 +0000";
};
width = 792;
},
{
anchors = (
{
name = bottom;
pos = (354,0);
},
{
name = top;
pos = (354,660);
}
);
layerId = "FA4F2279-C2CB-4D21-8447-C28A701A0705";
shapes = (
{
closed = 1;
nodes = (
(151,0,l),
(146,593,l),
(153,593,l),
(538,0,l),
(610,0,l),
(610,660,l),
(555,660,l),
(560,74,l),
(554,74,l),
(174,660,l),
(95,660,l),
(95,0,l)
);
}
);
userData = {
com.schriftgestaltung.Glyphs.lastChange = "2020-05-30 07:45:54 +0000";
};
width = 705;
}
);
metricLeft = "=H";
metricRight = "=H";
unicode = 78;
},
{
glyphname = Eng;
kernLeft = KO_H;
lastChange = "2023-02-24 17:14:22 +0000";
layers = (
{
anchors = (
{
name = bottom;
},
{
name = top;
pos = (0,21);
}
);
layerId = "C1A2FA2E-3F34-46D0-916F-7EEB4942386E";
shapes = (
{
ref = N;
},
{
closed = 1;
nodes = (
(411,-191,o),
(422,-192,o),
(442,-192,cs),
(582,-192,o),
(653,-117,o),
(653,2,cs),
(653,63,l),
(493,63,l),
(493,23,ls),
(493,-43,o),
(464,-60,o),
(422,-60,cs),
(405,-60,o),
(391,-58,o),
(379,-54,c),
(397,-189,l)
);
}
);
width = 694;
},
{
anchors = (
{
name = bottom;
},
{
name = top;
pos = (0,21);
}
);
layerId = "9F71C57A-214D-4B4D-A956-3B8F1C0FEA05";
shapes = (
{
ref = N;
},
{
closed = 1;
nodes = (
(380,-154,o),
(390,-154,o),
(400,-153,cs),
(503,-147,o),
(573,-106,o),
(573,2,cs),
(573,63,l),
(516,63,l),
(516,2,ls),
(516,-73,o),
(462,-100,o),
(383,-100,cs),
(373,-100,o),
(363,-100,o),
(353,-99,c),
(370,-154,l)
);
}
);
width = 634;
},
{
anchors = (
{
name = bottom;
},
{
name = top;
pos = (0,21);
}
);
layerId = "13870E78-3F0A-41D5-8A20-B477F2D0CF38";
shapes = (
{
ref = N;
},
{
closed = 1;
nodes = (
(460,-202,o),
(472,-203,o),
(482,-203,cs),
(641,-203,o),
(715,-121,o),
(715,0,cs),
(715,78,l),
(553,78,l),
(553,21,ls),
(553,-32,o),
(532,-60,o),
(457,-60,cs),
(446,-60,o),
(432,-59,o),
(417,-55,c),
(437,-199,l)
);
}
);
width = 792;
},
{
anchors = (
{
name = bottom;
},
{
name = top;
pos = (0,21);
}
);
layerId = "240BF9EB-FB0D-4A7D-9EDB-8E544078904A";
shapes = (
{
ref = N;
},
{
closed = 1;
nodes = (
(239,-172,o),
(246,-172,o),
(252,-172,cs),
(392,-172,o),
(460,-114,o),
(460,3,cs),
(460,77,l),
(319,77,l),
(319,25,ls),
(319,-9,o),
(303,-33,o),
(246,-33,cs),
(234,-33,o),
(226,-31,o),
(215,-28,c),
(231,-171,l)
);
}
);
width = 480;
},
{
anchors = (
{
name = bottom;
},
{
name = top;
pos = (0,21);
}
);
layerId = "6FE9FA8B-990F-4278-A730-82C9E963D7AD";
shapes = (
{
ref = N;
},
{
closed = 1;
nodes = (
(243,-138,o),
(250,-138,o),
(256,-138,cs),
(335,-138,o),
(373,-82,o),
(373,0,cs),
(373,26,l),
(316,26,l),
(316,0,ls),
(316,-53,o),
(307,-90,o),
(234,-90,cs),
(232,-90,o),
(230,-90,o),
(226,-90,c),
(234,-137,l)
);
}
);
width = 414;
},
{
anchors = (
{
name = bottom;
},
{
name = top;
pos = (0,21);
}
);
layerId = "C665A7CC-B666-4F49-BFE5-A31D06CCF39B";
shapes = (
{
ref = N;
},
{
closed = 1;
nodes = (
(295,-207,o),
(305,-207,o),
(312,-207,cs),
(468,-207,o),
(541,-134,o),
(541,0,cs),
(541,53,l),
(399,53,l),
(399,14,ls),
(399,-48,o),
(358,-76,o),
(304,-76,cs),
(291,-76,o),
(277,-75,o),
(264,-71,c),
(281,-207,l)
);
}
);
width = 595;
},
{
anchors = (
{
name = bottom;
},
{
name = top;
pos = (0,21);
}
);
layerId = "5F0F23F3-8289-4A13-984A-DE8C8AB95B73";
shapes = (
{
ref = N;
},
{
closed = 1;
nodes = (
(280,-158,o),
(284,-158,o),
(289,-158,cs),
(400,-158,o),
(443,-111,o),
(443,0,cs),
(443,34,l),
(388,34,l),
(388,-1,ls),
(388,-87,o),
(355,-102,o),
(280,-102,cs),
(275,-102,o),
(270,-102,o),
(265,-102,c),
(275,-158,l)
);
}
);
width = 521;
},
{
anchors = (
{
name = bottom;
},
{
name = top;
pos = (0,21);
}
);
layerId = "FA4F2279-C2CB-4D21-8447-C28A701A0705";
shapes = (
{
ref = N;
},
{
closed = 1;
nodes = (
(392,-186,o),
(397,-186,o),
(403,-186,cs),
(568,-186,o),
(601,-89,o),
(601,2,cs),
(601,31,l),
(545,31,l),
(545,2,ls),
(545,-70,o),
(523,-130,o),
(401,-130,cs),
(391,-130,o),
(381,-130,o),
(368,-130,c),
(386,-186,l)
);
}
);
width = 705;
}
);
metricLeft = "=N";
metricRight = "=N";
unicode = 330;
},
{
color = 4;
glyphname = O;
kernLeft = KO_O;
kernRight = KO_O;
lastChange = "2023-07-05 06:04:28 +0000";
layers = (
{
anchors = (
{
name = bottom;
pos = (242,0);
},
{
name = center;
pos = (242,330);
},
{
name = ogonek;
pos = (431,8);
},
{
name = top;
pos = (242,660);
},
{
name = topleft;
pos = (22,660);
},
{
name = topright;
pos = (462,660);
}
);
layerId = "5F0F23F3-8289-4A13-984A-DE8C8AB95B73";
shapes = (
{
closed = 1;
nodes = (
(379,-12,o),
(422,138,o),
(422,332,cs),
(422,531,o),
(377,672,o),
(239,672,cs),
(108,672,o),
(62,544,o),
(62,332,cs),
(62,147,o),
(97,-12,o),
(240,-12,cs)
);
},
{
closed = 1;
nodes = (
(182,42,o),
(120,99,o),
(120,333,cs),
(120,559,o),
(177,618,o),
(239,618,cs),
(314,618,o),
(364,534,o),
(364,333,cs),
(364,108,o),
(302,42,o),
(239,42,cs)
);
}
);
userData = {
com.schriftgestaltung.Glyphs.lastChange = "2020-05-30 07:46:12 +0000";
};
width = 484;
},
{
anchors = (
{
name = bottom;
pos = (326,0);
},
{
name = center;
pos = (326,330);
},
{
name = ogonek;
pos = (586,8);
},
{
name = top;
pos = (326,660);
},
{
name = topleft;
pos = (17,660);
},
{
name = topright;
pos = (635,660);
}
);
layerId = "9F71C57A-214D-4B4D-A956-3B8F1C0FEA05";
name = "96pt ExtraLight";
shapes = (
{
closed = 1;
nodes = (
(518,-14,o),
(611,127,o),
(611,324,cs),
(611,543,o),
(500,673,o),
(328,673,cs),
(162,673,o),
(42,554,o),
(42,326,cs),
(42,127,o),
(135,-14,o),
(326,-14,cs)
);
},
{
closed = 1;
nodes = (
(181,41,o),
(100,144,o),
(100,332,cs),
(100,509,o),
(183,618,o),
(328,618,cs),
(471,618,o),
(553,508,o),
(553,329,cs),
(553,150,o),
(480,41,o),
(324,41,cs)
);
}
);
userData = {
com.schriftgestaltung.Glyphs.lastChange = "2020-05-30 07:46:12 +0000";
};
width = 653;
},
{
anchors = (
{
name = bottom;
pos = (331,0);
},
{
name = center;
pos = (331,330);
},
{
name = ogonek;
pos = (596,8);
},
{
name = top;
pos = (331,660);
},
{
name = topleft;
pos = (15,660);
},
{
name = topright;
pos = (647,660);
}
);
layerId = "C1A2FA2E-3F34-46D0-916F-7EEB4942386E";
name = "96pt ExtraBold";
shapes = (
{
closed = 1;
nodes = (
(513,-14,o),
(634,101,o),
(634,331,cs),
(634,558,o),
(520,674,o),
(334,674,cs),
(151,674,o),
(27,562,o),
(27,327,cs),
(27,105,o),
(140,-14,o),
(328,-14,cs)
);
},
{
closed = 1;
nodes = (
(241,119,o),
(195,189,o),
(195,331,cs),
(195,471,o),
(240,542,o),
(329,542,cs),
(420,542,o),
(467,469,o),
(467,324,cs),
(467,187,o),
(423,119,o),
(334,119,cs)
);
}
);
userData = {
com.schriftgestaltung.Glyphs.lastChange = "2020-05-30 07:46:12 +0000";
};
width = 661;
},
{
anchors = (
{
name = bottom;
pos = (364,0);
},
{
name = center;
pos = (364,330);
},
{
name = ogonek;
pos = (645,8);
},
{
name = top;
pos = (364,660);
},
{
name = topleft;
pos = (29,660);
},
{
name = topright;
pos = (699,660);
}
);
layerId = "13870E78-3F0A-41D5-8A20-B477F2D0CF38";
name = "12pt ExtraBold";
shapes = (
{
closed = 1;
nodes = (
(550,-14,o),
(682,100,o),
(682,331,cs),
(682,556,o),
(557,674,o),
(367,674,cs),
(182,674,o),
(45,562,o),
(45,327,cs),
(45,104,o),
(170,-14,o),
(361,-14,cs)
);
},
{
closed = 1;
nodes = (
(266,112,o),
(210,190,o),
(210,329,cs),
(210,466,o),
(265,542,o),
(362,542,cs),
(461,542,o),
(517,463,o),
(517,321,cs),
(517,187,o),
(463,112,o),
(366,112,cs)
);
}
);
userData = {
com.schriftgestaltung.Glyphs.lastChange = "2020-05-30 07:46:12 +0000";
};
width = 727;
},
{
anchors = (
{
name = bottom;
pos = (355,0);
},
{
name = center;
pos = (355,330);
},
{
name = ogonek;
pos = (625,8);
},
{
name = top;
pos = (355,660);
},
{
name = topleft;
pos = (34,660);
},
{
name = topright;
pos = (677,660);
}
);
layerId = "FA4F2279-C2CB-4D21-8447-C28A701A0705";
name = "12pt ExtraLight ";
shapes = (
{
closed = 1;
nodes = (
(546,-12,o),
(636,129,o),
(636,324,cs),
(636,541,o),
(525,672,o),
(353,672,cs),
(189,672,o),
(72,554,o),
(72,328,cs),
(72,129,o),
(163,-12,o),
(355,-12,cs)
);
},
{
closed = 1;
nodes = (
(212,43,o),
(130,144,o),
(130,325,cs),
(130,512,o),
(216,617,o),
(353,617,cs),
(493,617,o),
(578,508,o),
(578,326,cs),
(578,146,o),
(496,43,o),
(353,43,cs)
);
}
);
userData = {
com.schriftgestaltung.Glyphs.lastChange = "2020-05-30 07:46:12 +0000";
};
width = 708;
},
{
anchors = (
{
name = bottom;
pos = (221,0);
},
{
name = center;
pos = (221,330);
},
{
name = ogonek;
pos = (396,8);
},
{
name = top;
pos = (221,660);
},
{
name = topleft;
pos = (16,660);
},
{
name = topright;
pos = (424,660);
}
);
layerId = "240BF9EB-FB0D-4A7D-9EDB-8E544078904A";
name = "96pt Condensed ExtraBold";
shapes = (
{
closed = 1;
nodes = (
(367,-12,o),
(425,101,o),
(425,332,cs),
(425,565,o),
(367,672,o),
(219,672,cs),
(70,672,o),
(16,564,o),
(16,327,cs),
(16,101,o),
(68,-12,o),
(216,-12,cs)
);
},
{
closed = 1;
nodes = (
(183,106,o),
(172,166,o),
(172,323,cs),
(172,489,o),
(185,553,o),
(219,553,cs),
(255,553,o),
(269,490,o),
(269,324,cs),
(269,166,o),
(255,106,o),
(219,106,cs)
);
}
);
userData = {
com.schriftgestaltung.Glyphs.lastChange = "2020-05-30 07:46:12 +0000";
};
width = 441;
},
{
anchors = (
{
name = bottom;
pos = (162,0);
},
{
name = center;
pos = (162,330);
},
{
name = ogonek;
pos = (291,8);
},
{
name = top;
pos = (162,660);
},
{
name = topleft;
pos = (17,660);
},
{
name = topright;
pos = (307,660);
}
);
layerId = "6FE9FA8B-990F-4278-A730-82C9E963D7AD";
name = "96pt Condensed ExtraLight";
shapes = (
{
closed = 1;
nodes = (
(291,-10,o),
(291,159,o),
(291,304,cs),
(291,532,o),
(289,670,o),
(161,670,cs),
(36,670,o),
(33,538,o),
(33,317,cs),
(33,162,o),
(34,-10,o),
(163,-10,cs)
);
},
{
closed = 1;
nodes = (
(104,44,o),
(92,128,o),
(92,357,cs),
(92,550,o),
(104,614,o),
(159,614,cs),
(215,614,o),
(232,548,o),
(232,351,cs),
(232,123,o),
(223,44,o),
(164,44,cs)
);
}
);
userData = {
com.schriftgestaltung.Glyphs.lastChange = "2020-05-30 07:46:12 +0000";
};
width = 324;
},
{
anchors = (
{
name = bottom;
pos = (269,0);
},
{
name = center;
pos = (269,330);
},
{
name = ogonek;
pos = (479,8);
},
{
name = top;
pos = (269,660);
},
{
name = topleft;
pos = (22,660);
},
{
name = topright;
pos = (516,660);
}
);
layerId = "C665A7CC-B666-4F49-BFE5-A31D06CCF39B";
name = "12pt Condensed ExtraBold";
shapes = (
{
closed = 1;
nodes = (
(423,-14,o),
(500,98,o),
(500,333,cs),
(500,568,o),
(421,673,o),
(267,673,cs),
(116,673,o),
(38,569,o),
(38,329,cs),
(38,100,o),
(109,-14,o),
(266,-14,cs)
);
},
{
closed = 1;
nodes = (
(219,104,o),
(195,185,o),
(195,332,cs),
(195,476,o),
(220,555,o),
(265,555,cs),
(312,555,o),
(343,468,o),
(343,323,cs),
(343,182,o),
(314,104,o),
(267,104,cs)
);
}
);
userData = {
com.schriftgestaltung.Glyphs.lastChange = "2020-05-30 07:46:12 +0000";
};
width = 538;
}
);
metricRight = "=|O";
unicode = 79;
userData = {
KernOnName = O;
};
},
{
glyphname = Ohorn;
kernLeft = KO_O;
kernRight = KO_Ohorn;
lastChange = "2023-02-28 09:10:13 +0000";
layers = (
{
layerId = "C1A2FA2E-3F34-46D0-916F-7EEB4942386E";
shapes = (
{
ref = O;
},
{
closed = 1;
nodes = (
(623,584,o),
(657,655,o),
(636,748,c),
(520,748,l),
(528,701,o),
(516,657,o),
(421,657,c),
(474,616,l),
(507,630,l)
);
}
);
width = 669;
},
{
layerId = "9F71C57A-214D-4B4D-A956-3B8F1C0FEA05";
shapes = (
{
ref = O;
},
{
closed = 1;
nodes = (
(545,622,o),
(560,677,o),
(542,739,c),
(492,739,l),
(499,701,o),
(507,646,o),
(415,646,c),
(413,636,l),
(496,627,ls)
);
}
);
width = 653;
},
{
layerId = "13870E78-3F0A-41D5-8A20-B477F2D0CF38";
shapes = (
{
ref = O;
},
{
closed = 1;
nodes = (
(649,597,o),
(687,659,o),
(667,776,c),
(553,776,l),
(560,708,o),
(552,656,o),
(463,656,c),
(461,622,l),
(572,607,ls)
);
}
);
width = 727;
},
{
layerId = "240BF9EB-FB0D-4A7D-9EDB-8E544078904A";
metricRight = "=o-40";
shapes = (
{
ref = O;
},
{
closed = 1;
nodes = (
(441,588,o),
(484,664,o),
(458,732,c),
(360,732,l),
(370,695,o),
(368,656,o),
(294,656,c),
(292,630,l),
(356,613,ls)
);
}
);
width = 440;
},
{
layerId = "6FE9FA8B-990F-4278-A730-82C9E963D7AD";
shapes = (
{
ref = O;
},
{
closed = 1;
nodes = (
(286,636,o),
(301,671,o),
(287,724,c),
(238,724,l),
(243,697,o),
(254,656,o),
(202,656,c),
(200,646,l),
(234,642,ls)
);
}
);
width = 325;
},
{
layerId = "C665A7CC-B666-4F49-BFE5-A31D06CCF39B";
metricRight = "=o-30";
shapes = (
{
ref = O;
},
{
closed = 1;
nodes = (
(488,615,o),
(539,664,o),
(523,777,c),
(420,777,l),
(420,711,o),
(415,656,o),
(325,656,c),
(323,622,l),
(415,618,ls)
);
}
);
width = 524;
},
{
layerId = "5F0F23F3-8289-4A13-984A-DE8C8AB95B73";
shapes = (
{
ref = O;
},
{
closed = 1;
nodes = (
(390,630,o),
(414,668,o),
(400,761,c),
(351,761,l),
(358,700,o),
(359,656,o),
(295,656,c),
(293,641,l),
(339,636,ls)
);
}
);
width = 484;
},
{
layerId = "FA4F2279-C2CB-4D21-8447-C28A701A0705";
shapes = (
{
ref = O;
},
{
closed = 1;
nodes = (
(559,633,o),
(588,669,o),
(575,767,c),
(524,767,l),
(530,698,o),
(534,649,o),
(442,649,c),
(440,641,l),
(499,637,ls)
);
}
);
width = 708;
}
);
metricLeft = "=O";
metricRight = "=O";
unicode = 416;
},
{
glyphname = Oslash;
kernRight = KO_O;
lastChange = "2023-02-27 10:14:38 +0000";
layers = (
{
layerId = "C1A2FA2E-3F34-46D0-916F-7EEB4942386E";
shapes = (
{
closed = 1;
nodes = (
(148,-16,l),
(643,676,l),
(523,676,l),
(27,-16,l)
);
},
{
pos = (4,3);
ref = O;
}
);
width = 670;
},
{
layerId = "9F71C57A-214D-4B4D-A956-3B8F1C0FEA05";
shapes = (
{
closed = 1;
nodes = (
(117,-16,l),
(597,676,l),
(533,676,l),
(53,-16,l)
);
},
{
pos = (0,3);
ref = O;
}
);
width = 653;
},
{
layerId = "13870E78-3F0A-41D5-8A20-B477F2D0CF38";
shapes = (
{
closed = 1;
nodes = (
(166,-16,l),
(678,677,l),
(558,677,l),
(45,-16,l)
);
},
{
pos = (11,3);
ref = O;
}
);
width = 738;
},
{
layerId = "240BF9EB-FB0D-4A7D-9EDB-8E544078904A";
shapes = (
{
closed = 1;
nodes = (
(112,-16,l),
(399,676,l),
(329,676,l),
(41,-16,l)
);
},
{
pos = (0,3);
ref = O;
}
);
width = 441;
},
{
layerId = "6FE9FA8B-990F-4278-A730-82C9E963D7AD";
shapes = (
{
closed = 1;
nodes = (
(86,-24,l),
(287,684,l),
(237,684,l),
(35,-24,l)
);
},
{
pos = (0,3);
ref = O;
}
);
width = 324;
},
{
layerId = "C665A7CC-B666-4F49-BFE5-A31D06CCF39B";
shapes = (
{
closed = 1;
nodes = (
(100,-16,l),
(492,676,l),
(432,676,l),
(38,-16,l)
);
},
{
pos = (2,3);
ref = O;
}
);
width = 540;
},
{
layerId = "5F0F23F3-8289-4A13-984A-DE8C8AB95B73";
shapes = (
{
closed = 1;
nodes = (
(137,-32,l),
(387,693,l),
(337,693,l),
(86,-32,l)
);
},
{
pos = (0,3);
ref = O;
}
);
width = 484;
},
{
layerId = "FA4F2279-C2CB-4D21-8447-C28A701A0705";
shapes = (
{
closed = 1;
nodes = (
(135,-18,l),
(602,678,l),
(539,678,l),
(73,-18,l)
);
},
{
pos = (0,3);
ref = O;
}
);
width = 708;
}
);
metricLeft = "=O";
metricRight = "=O";
unicode = 216;
},
{
glyphname = OE;
kernLeft = KO_O;
kernRight = KO_E;
lastChange = "2023-05-26 13:57:05 +0000";
layers = (
{
anchors = (
{
name = bottom;
pos = (478,0);
},
{
name = top;
pos = (478,660);
}
);
layerId = "9F71C57A-214D-4B4D-A956-3B8F1C0FEA05";
shapes = (
{
closed = 1;
nodes = (
(399,-15,o),
(485,62,o),
(499,237,c),
(510,237,l),
(502,175,o),
(490,86,o),
(490,42,cs),
(490,0,l),
(548,0,l),
(548,660,l),
(490,660,l),
(490,637,ls),
(490,581,o),
(494,538,o),
(511,418,c),
(500,418,l),
(488,567,o),
(419,673,o),
(288,673,cs),
(144,673,o),
(42,549,o),
(42,328,cs),
(42,80,o),
(155,-15,o),
(292,-15,cs)
);
},
{
closed = 1;
nodes = (
(914,0,l),
(914,53,l),
(529,53,l),
(529,0,l)
);
},
{
closed = 1;
nodes = (
(169,42,o),
(100,144,o),
(100,326,cs),
(100,521,o),
(181,615,o),
(290,615,cs),
(465,615,o),
(486,367,o),
(486,336,cs),
(486,325,ls),
(486,256,o),
(454,42,o),
(287,42,cs)
);
},
{
closed = 1;
nodes = (
(867,307,l),
(867,361,l),
(529,361,l),
(529,307,l)
);
},
{
closed = 1;
nodes = (
(914,607,l),
(914,660,l),
(529,660,l),
(529,607,l)
);
}
);
width = 940;
},
{
anchors = (
{
name = bottom;
pos = (506,0);
},
{
name = top;
pos = (506,660);
}
);
layerId = "13870E78-3F0A-41D5-8A20-B477F2D0CF38";
shapes = (
{
closed = 1;
nodes = (
(427,-18,o),
(505,52,o),
(519,178,c),
(540,178,l),
(532,125,o),
(528,78,o),
(528,43,cs),
(528,0,l),
(672,0,l),
(672,660,l),
(519,660,l),
(519,635,ls),
(519,587,o),
(523,522,o),
(532,470,c),
(511,470,l),
(491,611,o),
(412,671,o),
(302,671,cs),
(154,671,o),
(45,563,o),
(45,331,cs),
(45,93,o),
(168,-18,o),
(310,-18,cs)
);
},
{
closed = 1;
nodes = (
(964,0,l),
(964,131,l),
(589,131,l),
(589,0,l)
);
},
{
closed = 1;
nodes = (
(266,109,o),
(214,206,o),
(214,322,cs),
(214,439,o),
(258,539,o),
(357,539,cs),
(442,539,o),
(506,448,o),
(506,330,cs),
(506,321,ls),
(506,181,o),
(441,109,o),
(360,109,cs)
);
},
{
closed = 1;
nodes = (
(917,273,l),
(917,392,l),
(589,392,l),
(589,273,l)
);
},
{
closed = 1;
nodes = (
(964,529,l),
(964,660,l),
(589,660,l),
(589,529,l)
);
}
);
width = 1003;
},
{
anchors = (
{
name = bottom;
pos = (258,0);
},
{
name = top;
pos = (258,660);
}
);
layerId = "240BF9EB-FB0D-4A7D-9EDB-8E544078904A";
shapes = (
{
closed = 1;
nodes = (
(237,-8,o),
(278,45,o),
(287,202,c),
(301,202,l),
(292,139,o),
(285,75,o),
(285,12,cs),
(285,0,l),
(408,0,l),
(408,660,l),
(284,660,l),
(284,652,ls),
(284,608,o),
(285,552,o),
(294,460,c),
(284,460,l),
(273,623,o),
(238,668,o),
(172,668,cs),
(69,668,o),
(16,554,o),
(16,339,cs),
(16,129,o),
(66,-8,o),
(172,-8,cs)
);
},
{
closed = 1;
nodes = (
(507,0,l),
(507,123,l),
(334,123,l),
(334,0,l)
);
},
{
closed = 1;
nodes = (
(180,107,o),
(175,194,o),
(175,306,cs),
(175,482,o),
(187,550,o),
(216,550,cs),
(253,550,o),
(267,432,o),
(267,328,cs),
(267,302,ls),
(267,203,o),
(252,107,o),
(216,107,cs)
);
},
{
closed = 1;
nodes = (
(481,279,l),
(481,392,l),
(334,392,l),
(334,279,l)
);
},
{
closed = 1;
nodes = (
(507,537,l),
(507,660,l),
(334,660,l),
(334,537,l)
);
}
);
width = 517;
},
{
anchors = (
{
name = bottom;
pos = (235,0);
},
{
name = top;
pos = (235,660);
}
);
layerId = "6FE9FA8B-990F-4278-A730-82C9E963D7AD";
shapes = (
{
closed = 1;
nodes = (
(193,-7,o),
(219,35,o),
(239,217,c),
(250,217,l),
(239,149,o),
(229,80,o),
(229,12,cs),
(229,0,l),
(281,0,l),
(281,660,l),
(229,660,l),
(229,652,ls),
(229,611,o),
(239,515,o),
(250,423,c),
(240,423,l),
(227,592,o),
(206,665,o),
(145,665,cs),
(68,665,o),
(33,550,o),
(33,320,cs),
(33,88,o),
(68,-7,o),
(144,-7,cs)
);
},
{
closed = 1;
nodes = (
(444,0,l),
(444,53,l),
(252,53,l),
(252,0,l)
);
},
{
closed = 1;
nodes = (
(108,46,o),
(90,146,o),
(90,312,cs),
(90,516,o),
(117,613,o),
(156,613,cs),
(211,613,o),
(228,420,o),
(228,327,cs),
(228,301,ls),
(228,171,o),
(200,46,o),
(152,46,cs)
);
},
{
closed = 1;
nodes = (
(427,305,l),
(427,359,l),
(252,359,l),
(252,305,l)
);
},
{
closed = 1;
nodes = (
(444,607,l),
(444,660,l),
(252,660,l),
(252,607,l)
);
}
);
width = 464;
},
{
anchors = (
{
name = bottom;
pos = (339,0);
},
{
name = top;
pos = (339,660);
}
);
layerId = "C665A7CC-B666-4F49-BFE5-A31D06CCF39B";
shapes = (
{
closed = 1;
nodes = (
(282,-19,o),
(331,47,o),
(340,171,c),
(365,171,l),
(359,117,o),
(354,61,o),
(354,7,cs),
(354,0,l),
(478,0,l),
(478,662,l),
(347,662,l),
(347,650,ls),
(347,623,o),
(350,585,o),
(359,502,c),
(333,503,l),
(320,609,o),
(273,676,o),
(203,676,cs),
(117,676,o),
(38,563,o),
(38,343,cs),
(38,107,o),
(118,-19,o),
(210,-19,cs)
);
},
{
closed = 1;
nodes = (
(631,0,l),
(631,122,l),
(380,122,l),
(380,0,l)
);
},
{
closed = 1;
nodes = (
(226,114,o),
(196,178,o),
(196,341,cs),
(196,485,o),
(226,548,o),
(265,548,cs),
(318,548,o),
(324,404,o),
(324,353,cs),
(324,336,ls),
(324,256,o),
(316,114,o),
(267,114,cs)
);
},
{
closed = 1;
nodes = (
(603,279,l),
(603,393,l),
(380,393,l),
(380,279,l)
);
},
{
closed = 1;
nodes = (
(631,538,l),
(631,660,l),
(380,660,l),
(380,538,l)
);
}
);
width = 660;
},
{
anchors = (
{
name = bottom;
pos = (332,0);
},
{
name = top;
pos = (332,660);
}
);
layerId = "5F0F23F3-8289-4A13-984A-DE8C8AB95B73";
shapes = (
{
closed = 1;
nodes = (
(289,-13,o),
(324,61,o),
(333,145,c),
(348,145,l),
(342,101,o),
(340,53,o),
(340,9,cs),
(340,0,l),
(396,0,l),
(396,660,l),
(340,660,l),
(340,651,ls),
(340,615,o),
(343,578,o),
(349,525,c),
(334,525,l),
(319,593,o),
(300,672,o),
(222,672,cs),
(139,672,o),
(62,582,o),
(62,334,cs),
(62,86,o),
(139,-13,o),
(219,-13,cs)
);
},
{
closed = 1;
nodes = (
(615,0,l),
(615,53,l),
(361,53,l),
(361,0,l)
);
},
{
closed = 1;
nodes = (
(178,41,o),
(119,111,o),
(119,331,cs),
(119,541,o),
(173,619,o),
(228,619,cs),
(301,619,o),
(342,479,o),
(342,354,cs),
(342,335,ls),
(342,186,o),
(297,41,o),
(227,41,cs)
);
},
{
closed = 1;
nodes = (
(593,311,l),
(593,360,l),
(361,360,l),
(361,311,l)
);
},
{
closed = 1;
nodes = (
(615,607,l),
(615,660,l),
(361,660,l),
(361,607,l)
);
}
);
width = 645;
},
{
anchors = (
{
name = bottom;
pos = (468,0);
},
{
name = top;
pos = (468,660);
}
);
layerId = "C1A2FA2E-3F34-46D0-916F-7EEB4942386E";
name = "Display Bold";
shapes = (
{
closed = 1;
nodes = (
(392,-18,o),
(469,50,o),
(485,194,c),
(494,194,l),
(489,133,o),
(486,70,o),
(486,35,cs),
(486,0,l),
(629,0,l),
(629,660,l),
(476,660,l),
(476,643,ls),
(476,586,o),
(482,514,o),
(487,453,c),
(477,453,l),
(463,602,o),
(386,671,o),
(278,671,cs),
(143,671,o),
(27,564,o),
(27,332,cs),
(27,93,o),
(149,-18,o),
(286,-18,cs)
);
},
{
closed = 1;
nodes = (
(914,0,l),
(914,135,l),
(555,135,l),
(555,0,l)
);
},
{
closed = 1;
nodes = (
(248,109,o),
(196,206,o),
(196,323,cs),
(196,439,o),
(248,539,o),
(334,539,cs),
(414,539,o),
(472,448,o),
(472,330,cs),
(472,321,ls),
(472,181,o),
(415,109,o),
(334,109,cs)
);
},
{
closed = 1;
nodes = (
(867,272,l),
(867,393,l),
(555,393,l),
(555,272,l)
);
},
{
closed = 1;
nodes = (
(913,525,l),
(913,660,l),
(555,660,l),
(555,525,l)
);
}
);
width = 942;
},
{
anchors = (
{
name = bottom;
pos = (495,0);
},
{
name = top;
pos = (495,660);
}
);
layerId = "FA4F2279-C2CB-4D21-8447-C28A701A0705";
shapes = (
{
closed = 1;
nodes = (
(430,-13,o),
(489,78,o),
(506,172,c),
(524,172,l),
(517,119,o),
(512,64,o),
(512,12,cs),
(512,0,l),
(568,0,l),
(568,660,l),
(515,660,l),
(515,644,ls),
(515,584,o),
(522,532,o),
(531,465,c),
(514,465,l),
(486,599,o),
(423,673,o),
(313,673,cs),
(160,673,o),
(72,524,o),
(72,329,cs),
(72,139,o),
(154,-13,o),
(312,-13,cs)
);
},
{
closed = 1;
nodes = (
(934,0,l),
(934,53,l),
(535,53,l),
(535,0,l)
);
},
{
closed = 1;
nodes = (
(196,41,o),
(129,155,o),
(129,323,cs),
(129,482,o),
(192,619,o),
(314,619,cs),
(461,619,o),
(514,418,o),
(514,328,cs),
(514,320,ls),
(514,198,o),
(435,41,o),
(309,41,cs)
);
},
{
closed = 1;
nodes = (
(888,307,l),
(888,359,l),
(535,359,l),
(535,307,l)
);
},
{
closed = 1;
nodes = (
(934,607,l),
(934,660,l),
(535,660,l),
(535,607,l)
);
}
);
width = 973;
}
);
metricLeft = "=O";
metricRight = "=E";
unicode = 338;
},
{
color = 4;
glyphname = P;
kernLeft = KO_H;
kernRight = KO_P;
lastChange = "2023-07-05 06:04:28 +0000";
layers = (
{
anchors = (
{
name = bottom;
pos = (312,0);
},
{
name = top;
pos = (312,660);
}
);
layerId = "C1A2FA2E-3F34-46D0-916F-7EEB4942386E";
name = "96pt ExtraBold";
shapes = (
{
closed = 1;
nodes = (
(270,187,ls),
(463,187,o),
(572,267,o),
(572,425,cs),
(572,589,o),
(456,660,o),
(303,660,cs),
(161,660,l),
(161,530,l),
(294,530,ls),
(368,530,o),
(405,495,o),
(405,423,cs),
(405,347,o),
(365,317,o),
(284,317,cs),
(161,317,l),
(161,187,l)
);
},
{
closed = 1;
nodes = (
(202,0,l),
(202,660,l),
(40,660,l),
(40,0,l)
);
}
);
userData = {
com.schriftgestaltung.Glyphs.lastChange = "2020-05-30 07:46:46 +0000";
};
width = 586;
},
{
anchors = (
{
name = bottom;
pos = (302,0);
},
{
name = top;
pos = (302,660);
}
);
layerId = "9F71C57A-214D-4B4D-A956-3B8F1C0FEA05";
metricRight = "=+26";
name = "96pt ExtraLight";
shapes = (
{
closed = 1;
nodes = (
(241,233,ls),
(434,233,o),
(520,313,o),
(520,444,cs),
(520,586,o),
(418,660,o),
(271,660,cs),
(72,660,l),
(72,607,l),
(259,607,ls),
(396,607,o),
(463,555,o),
(463,449,cs),
(463,335,o),
(387,286,o),
(249,286,cs),
(72,286,l),
(72,233,l)
);
},
{
closed = 1;
nodes = (
(115,0,l),
(115,660,l),
(58,660,l),
(58,0,l)
);
}
);
userData = {
com.schriftgestaltung.Glyphs.lastChange = "2020-05-30 07:46:46 +0000";
};
width = 546;
},
{
anchors = (
{
name = bottom;
pos = (353,0);
},
{
name = top;
pos = (353,660);
}
);
layerId = "13870E78-3F0A-41D5-8A20-B477F2D0CF38";
name = "12pt ExtraBold";
shapes = (
{
closed = 1;
nodes = (
(312,181,ls),
(519,181,o),
(626,263,o),
(626,419,cs),
(626,582,o),
(516,660,o),
(346,660,cs),
(188,660,l),
(188,537,l),
(341,537,ls),
(426,537,o),
(464,497,o),
(464,423,cs),
(464,338,o),
(421,305,o),
(335,305,cs),
(188,305,l),
(188,181,l)
);
},
{
closed = 1;
nodes = (
(231,0,l),
(231,660,l),
(70,660,l),
(70,0,l)
);
}
);
userData = {
com.schriftgestaltung.Glyphs.lastChange = "2020-05-30 07:46:46 +0000";
};
width = 656;
},
{
anchors = (
{
name = bottom;
pos = (351,0);
},
{
name = top;
pos = (351,660);
}
);
layerId = "FA4F2279-C2CB-4D21-8447-C28A701A0705";
name = "12pt ExtraLight ";
shapes = (
{
closed = 1;
nodes = (
(275,212,ls),
(459,212,o),
(561,291,o),
(561,437,cs),
(561,579,o),
(466,660,o),
(292,660,cs),
(109,660,l),
(109,607,l),
(292,607,ls),
(432,607,o),
(501,552,o),
(501,440,cs),
(501,319,o),
(427,267,o),
(280,267,cs),
(109,267,l),
(109,212,l)
);
},
{
closed = 1;
nodes = (
(152,0,l),
(152,660,l),
(95,660,l),
(95,0,l)
);
}
);
userData = {
com.schriftgestaltung.Glyphs.lastChange = "2020-05-30 07:46:46 +0000";
};
width = 606;
},
{
anchors = (
{
name = bottom;
pos = (303,0);
},
{
name = top;
pos = (303,660);
}
);
layerId = "240BF9EB-FB0D-4A7D-9EDB-8E544078904A";
name = "96pt Condensed ExtraBold";
shapes = (
{
closed = 1;
nodes = (
(177,174,ls),
(319,174,o),
(417,258,o),
(417,416,cs),
(417,589,o),
(297,660,o),
(209,660,cs),
(131,660,l),
(131,537,l),
(190,537,ls),
(234,537,o),
(255,499,o),
(255,423,cs),
(255,333,o),
(235,298,o),
(187,298,cs),
(131,298,l),
(131,174,l)
);
},
{
closed = 1;
nodes = (
(174,0,l),
(174,660,l),
(20,660,l),
(20,0,l)
);
}
);
userData = {
com.schriftgestaltung.Glyphs.lastChange = "2020-05-30 07:46:46 +0000";
};
width = 424;
},
{
anchors = (
{
name = bottom;
pos = (300,0);
},
{
name = top;
pos = (300,660);
}
);
layerId = "6FE9FA8B-990F-4278-A730-82C9E963D7AD";
name = "96pt Condensed ExtraLight";
shapes = (
{
closed = 1;
nodes = (
(110,202,ls),
(230,202,o),
(295,289,o),
(295,435,cs),
(295,592,o),
(221,660,o),
(145,660,cs),
(55,660,l),
(55,607,l),
(129,607,ls),
(204,607,o),
(237,553,o),
(237,440,cs),
(237,316,o),
(197,255,o),
(117,255,cs),
(55,255,l),
(55,202,l)
);
},
{
closed = 1;
nodes = (
(98,0,l),
(98,660,l),
(41,660,l),
(41,0,l)
);
}
);
userData = {
com.schriftgestaltung.Glyphs.lastChange = "2020-05-30 07:46:46 +0000";
};
width = 313;
},
{
anchors = (
{
name = bottom;
pos = (355,0);
},
{
name = top;
pos = (355,660);
}
);
layerId = "C665A7CC-B666-4F49-BFE5-A31D06CCF39B";
name = "12pt Condensed ExtraBold";
shapes = (
{
closed = 1;
nodes = (
(226,158,ls),
(386,158,o),
(504,230,o),
(504,410,cs),
(504,606,o),
(366,660,o),
(260,660,cs),
(170,660,l),
(170,538,l),
(244,538,ls),
(312,538,o),
(342,499,o),
(342,411,cs),
(342,321,o),
(309,281,o),
(243,281,cs),
(170,281,l),
(170,158,l)
);
},
{
closed = 1;
nodes = (
(208,0,l),
(208,660,l),
(54,660,l),
(54,0,l)
);
}
);
userData = {
com.schriftgestaltung.Glyphs.lastChange = "2020-05-30 07:46:46 +0000";
};
width = 524;
},
{
anchors = (
{
name = bottom;
pos = (352,0);
},
{
name = top;
pos = (352,660);
}
);
layerId = "5F0F23F3-8289-4A13-984A-DE8C8AB95B73";
name = "12pt Condensed ExtraLight";
shapes = (
{
closed = 1;
nodes = (
(172,203,ls),
(322,203,o),
(411,278,o),
(411,435,cs),
(411,598,o),
(317,660,o),
(209,660,cs),
(95,660,l),
(95,607,l),
(200,607,ls),
(303,607,o),
(354,550,o),
(354,435,cs),
(354,315,o),
(296,256,o),
(180,256,cs),
(95,256,l),
(95,203,l)
);
},
{
closed = 1;
nodes = (
(133,0,l),
(133,660,l),
(77,660,l),
(77,0,l)
);
}
);
userData = {
com.schriftgestaltung.Glyphs.lastChange = "2020-05-30 07:46:46 +0000";
};
width = 445;
}
);
metricLeft = "=H";
unicode = 80;
userData = {
KernOnName = P;
};
},
{
glyphname = Thorn;
kernLeft = KO_H;
lastChange = "2023-02-26 09:43:59 +0000";
layers = (
{
layerId = "C1A2FA2E-3F34-46D0-916F-7EEB4942386E";
shapes = (
{
closed = 1;
nodes = (
(272,98,ls),
(466,98,o),
(573,178,o),
(573,333,cs),
(573,505,o),
(448,578,o),
(304,578,cs),
(161,578,l),
(161,449,l),
(295,449,ls),
(322,449,o),
(406,449,o),
(406,337,cs),
(406,228,o),
(323,228,o),
(278,228,cs),
(161,228,l),
(161,98,l)
);
},
{
closed = 1;
nodes = (
(202,0,l),
(202,660,l),
(40,660,l),
(40,0,l)
);
}
);
width = 587;
},
{
layerId = "9F71C57A-214D-4B4D-A956-3B8F1C0FEA05";
shapes = (
{
closed = 1;
nodes = (
(239,119,ls),
(433,119,o),
(527,199,o),
(527,338,cs),
(527,489,o),
(416,562,o),
(270,562,cs),
(72,562,l),
(72,509,l),
(253,509,ls),
(308,509,o),
(470,509,o),
(470,342,cs),
(470,172,o),
(303,172,o),
(236,172,cs),
(72,172,l),
(72,119,l)
);
},
{
closed = 1;
nodes = (
(114,0,l),
(114,660,l),
(58,660,l),
(58,0,l)
);
}
);
width = 553;
},
{
layerId = "13870E78-3F0A-41D5-8A20-B477F2D0CF38";
shapes = (
{
closed = 1;
nodes = (
(312,96,ls),
(514,96,o),
(625,177,o),
(625,337,cs),
(625,496,o),
(512,582,o),
(346,582,cs),
(188,582,l),
(188,460,l),
(338,460,ls),
(371,460,o),
(463,460,o),
(463,341,cs),
(463,219,o),
(370,219,o),
(320,219,cs),
(188,219,l),
(188,96,l)
);
},
{
closed = 1;
nodes = (
(231,0,l),
(231,660,l),
(70,660,l),
(70,0,l)
);
}
);
width = 655;
},
{
layerId = "240BF9EB-FB0D-4A7D-9EDB-8E544078904A";
shapes = (
{
closed = 1;
nodes = (
(177,84,ls),
(319,84,o),
(417,168,o),
(417,334,cs),
(417,515,o),
(297,586,o),
(209,586,cs),
(131,586,l),
(131,463,l),
(189,463,ls),
(205,463,o),
(255,463,o),
(255,341,cs),
(255,209,o),
(212,208,o),
(185,208,cs),
(131,208,l),
(131,84,l)
);
},
{
closed = 1;
nodes = (
(174,0,l),
(174,660,l),
(20,660,l),
(20,0,l)
);
}
);
width = 424;
},
{
layerId = "6FE9FA8B-990F-4278-A730-82C9E963D7AD";
shapes = (
{
closed = 1;
nodes = (
(109,101,ls),
(229,101,o),
(294,189,o),
(294,339,cs),
(294,501,o),
(220,570,o),
(144,570,cs),
(54,570,l),
(54,517,l),
(128,517,ls),
(161,517,o),
(236,517,o),
(236,343,cs),
(236,154,o),
(141,154,o),
(116,154,cs),
(54,154,l),
(54,101,l)
);
},
{
closed = 1;
nodes = (
(97,0,l),
(97,660,l),
(41,660,l),
(41,0,l)
);
}
);
width = 312;
},
{
layerId = "C665A7CC-B666-4F49-BFE5-A31D06CCF39B";
shapes = (
{
closed = 1;
nodes = (
(226,90,ls),
(386,90,o),
(504,161,o),
(504,341,cs),
(504,537,o),
(366,591,o),
(260,591,cs),
(170,591,l),
(170,469,l),
(244,469,ls),
(272,469,o),
(342,469,o),
(342,342,cs),
(342,212,o),
(271,212,o),
(233,212,cs),
(170,212,l),
(170,90,l)
);
},
{
closed = 1;
nodes = (
(208,0,l),
(208,660,l),
(54,660,l),
(54,0,l)
);
}
);
width = 524;
},
{
layerId = "5F0F23F3-8289-4A13-984A-DE8C8AB95B73";
shapes = (
{
closed = 1;
nodes = (
(171,101,ls),
(321,101,o),
(410,178,o),
(410,342,cs),
(410,508,o),
(316,570,o),
(208,570,cs),
(94,570,l),
(94,516,l),
(199,516,ls),
(252,516,o),
(353,500,o),
(353,348,cs),
(353,155,o),
(229,155,o),
(179,155,cs),
(94,155,l),
(94,101,l)
);
},
{
closed = 1;
nodes = (
(132,0,l),
(132,660,l),
(77,660,l),
(77,0,l)
);
}
);
width = 444;
},
{
layerId = "FA4F2279-C2CB-4D21-8447-C28A701A0705";
shapes = (
{
closed = 1;
nodes = (
(265,105,ls),
(463,105,o),
(569,186,o),
(569,341,cs),
(569,505,o),
(446,575,o),
(299,575,cs),
(109,575,l),
(109,521,l),
(291,521,ls),
(344,521,o),
(510,519,o),
(510,345,cs),
(510,160,o),
(346,160,o),
(273,160,cs),
(109,160,l),
(109,105,l)
);
},
{
closed = 1;
nodes = (
(151,0,l),
(151,660,l),
(95,660,l),
(95,0,l)
);
}
);
width = 614;
}
);
metricLeft = "=H";
metricRight = "=P";
unicode = 222;
},
{
color = 4;
glyphname = Q;
kernLeft = KO_O;
kernRight = KO_O;
lastChange = "2023-07-05 06:04:28 +0000";
layers = (
{
anchors = (
{
name = bottom;
pos = (330,0);
},
{
name = top;
pos = (330,660);
}
);
layerId = "C1A2FA2E-3F34-46D0-916F-7EEB4942386E";
shapes = (
{
closed = 1;
nodes = (
(626,-21,l),
(526,-60,o),
(448,-52,o),
(292,-28,c),
(291,-21,l),
(477,2,o),
(632,78,o),
(632,333,cs),
(632,549,o),
(525,674,o),
(333,674,cs),
(130,674,o),
(27,534,o),
(27,332,cs),
(27,116,o),
(158,-23,o),
(420,49,c),
(420,43,l),
(346,2,o),
(136,-11,o),
(44,-5,c),
(44,-138,l),
(365,-120,o),
(353,-218,o),
(626,-157,c)
);
},
{
closed = 1;
nodes = (
(257,109,o),
(197,160,o),
(197,328,cs),
(197,493,o),
(261,542,o),
(328,542,cs),
(416,542,o),
(463,476,o),
(463,321,cs),
(463,156,o),
(401,109,o),
(332,109,cs)
);
}
);
userData = {
com.schriftgestaltung.Glyphs.lastChange = "2020-05-30 07:47:44 +0000";
com.typemytype.robofont.Image.Brightness = 0;
com.typemytype.robofont.Image.Contrast = 1;
com.typemytype.robofont.Image.Saturation = 1;
com.typemytype.robofont.Image.Sharpness = 0.4;
};
width = 659;
},
{
anchors = (
{
name = bottom;
pos = (327,0);
},
{
name = top;
pos = (327,660);
}
);
layerId = "9F71C57A-214D-4B4D-A956-3B8F1C0FEA05";
name = "96pt ExtraLight";
shapes = (
{
closed = 1;
nodes = (
(603,-49,l),
(460,-81,o),
(409,-71,o),
(270,-52,c),
(270,-48,l),
(517,0,o),
(611,136,o),
(611,325,cs),
(611,540,o),
(490,673,o),
(326,673,cs),
(158,673,o),
(42,532,o),
(42,329,cs),
(42,109,o),
(177,-34,o),
(374,29,c),
(375,21,l),
(251,-42,o),
(198,-35,o),
(50,-42,c),
(50,-97,l),
(367,-87,o),
(367,-154,o),
(603,-107,c)
);
},
{
closed = 1;
nodes = (
(192,45,o),
(100,155,o),
(100,323,cs),
(100,496,o),
(192,618,o),
(328,618,cs),
(459,618,o),
(553,504,o),
(553,335,cs),
(553,157,o),
(454,45,o),
(322,45,cs)
);
}
);
userData = {
com.schriftgestaltung.Glyphs.lastChange = "2020-05-30 07:47:44 +0000";
com.typemytype.robofont.Image.Brightness = 0;
com.typemytype.robofont.Image.Contrast = 1;
com.typemytype.robofont.Image.Saturation = 1;
com.typemytype.robofont.Image.Sharpness = 0.4;
};
width = 653;
},
{
anchors = (
{
name = bottom;
pos = (364,0);
},
{
name = top;
pos = (364,660);
}
);
layerId = "13870E78-3F0A-41D5-8A20-B477F2D0CF38";
name = "12pt ExtraBold";
shapes = (
{
closed = 1;
nodes = (
(682,-29,l),
(563,-61,o),
(476,-53,o),
(330,-37,c),
(330,-23,l),
(530,1,o),
(683,79,o),
(683,334,cs),
(683,546,o),
(567,674,o),
(367,674,cs),
(152,674,o),
(45,527,o),
(45,332,cs),
(45,118,o),
(165,-23,o),
(442,58,c),
(442,45,l),
(364,2,o),
(138,-11,o),
(49,-5,c),
(49,-136,l),
(395,-120,o),
(383,-219,o),
(682,-157,c)
);
},
{
closed = 1;
nodes = (
(261,111,o),
(208,183,o),
(208,328,cs),
(208,471,o),
(259,545,o),
(362,545,cs),
(468,545,o),
(521,468,o),
(521,323,cs),
(521,181,o),
(472,111,o),
(368,111,cs)
);
}
);
userData = {
com.schriftgestaltung.Glyphs.lastChange = "2020-05-30 07:47:44 +0000";
com.typemytype.robofont.Image.Brightness = 0;
com.typemytype.robofont.Image.Contrast = 1;
com.typemytype.robofont.Image.Saturation = 1;
com.typemytype.robofont.Image.Sharpness = 0.4;
};
width = 728;
},
{
anchors = (
{
name = bottom;
pos = (357,0);
},
{
name = top;
pos = (357,660);
}
);
layerId = "FA4F2279-C2CB-4D21-8447-C28A701A0705";
name = "12pt ExtraLight ";
shapes = (
{
closed = 1;
nodes = (
(629,-69,l),
(482,-94,o),
(419,-82,o),
(301,-72,c),
(301,-62,l),
(549,15,o),
(641,125,o),
(641,326,cs),
(641,547,o),
(525,672,o),
(355,672,cs),
(176,672,o),
(72,533,o),
(72,333,cs),
(72,102,o),
(210,-38,o),
(401,21,c),
(401,7,l),
(288,-53,o),
(215,-56,o),
(81,-56,c),
(81,-112,l),
(388,-109,o),
(401,-162,o),
(629,-127,c)
);
},
{
closed = 1;
nodes = (
(217,46,o),
(131,143,o),
(131,329,cs),
(131,508,o),
(210,615,o),
(355,615,cs),
(496,615,o),
(582,514,o),
(582,329,cs),
(582,153,o),
(504,46,o),
(357,46,cs)
);
}
);
userData = {
com.schriftgestaltung.Glyphs.lastChange = "2020-05-30 07:47:44 +0000";
com.typemytype.robofont.Image.Brightness = 0;
com.typemytype.robofont.Image.Contrast = 1;
com.typemytype.robofont.Image.Saturation = 1;
com.typemytype.robofont.Image.Sharpness = 0.4;
};
width = 713;
},
{
anchors = (
{
name = bottom;
pos = (221,0);
},
{
name = top;
pos = (221,660);
}
);
layerId = "240BF9EB-FB0D-4A7D-9EDB-8E544078904A";
name = "96pt Condensed ExtraBold";
shapes = (
{
closed = 1;
nodes = (
(418,-11,l),
(332,-35,o),
(292,-34,o),
(185,-19,c),
(185,-13,l),
(366,15,o),
(426,98,o),
(426,333,cs),
(426,556,o),
(372,672,o),
(222,672,cs),
(62,672,o),
(16,540,o),
(16,347,cs),
(16,182,o),
(50,-32,o),
(267,49,c),
(267,41,l),
(223,9,o),
(127,-8,o),
(25,-2,c),
(25,-126,l),
(210,-111,o),
(235,-175,o),
(418,-138,c)
);
},
{
closed = 1;
nodes = (
(183,106,o),
(172,168,o),
(172,329,cs),
(172,492,o),
(186,554,o),
(221,554,cs),
(255,554,o),
(270,489,o),
(270,318,cs),
(270,165,o),
(257,106,o),
(220,106,cs)
);
}
);
userData = {
com.schriftgestaltung.Glyphs.lastChange = "2020-05-30 07:47:44 +0000";
com.typemytype.robofont.Image.Brightness = 0;
com.typemytype.robofont.Image.Contrast = 1;
com.typemytype.robofont.Image.Saturation = 1;
com.typemytype.robofont.Image.Sharpness = 0.4;
};
width = 442;
},
{
anchors = (
{
name = bottom;
pos = (162,0);
},
{
name = top;
pos = (162,660);
}
);
layerId = "6FE9FA8B-990F-4278-A730-82C9E963D7AD";
name = "96pt Condensed ExtraLight";
shapes = (
{
closed = 1;
nodes = (
(289,-17,l),
(218,-39,o),
(194,-23,o),
(97,-26,c),
(97,-23,l),
(289,10,o),
(291,167,o),
(291,326,cs),
(291,543,o),
(276,670,o),
(161,670,cs),
(35,670,o),
(33,520,o),
(33,341,cs),
(33,165,o),
(40,-9,o),
(180,32,c),
(180,28,l),
(147,4,o),
(100,-13,o),
(41,-17,c),
(41,-76,l),
(128,-69,o),
(210,-91,o),
(289,-76,c)
);
},
{
closed = 1;
nodes = (
(100,56,o),
(92,148,o),
(92,365,cs),
(92,538,o),
(101,614,o),
(162,614,cs),
(218,614,o),
(232,536,o),
(232,354,cs),
(232,147,o),
(219,56,o),
(160,56,cs)
);
}
);
userData = {
com.schriftgestaltung.Glyphs.lastChange = "2020-05-30 07:47:44 +0000";
com.typemytype.robofont.Image.Brightness = 0;
com.typemytype.robofont.Image.Contrast = 1;
com.typemytype.robofont.Image.Saturation = 1;
com.typemytype.robofont.Image.Sharpness = 0.4;
};
width = 324;
},
{
anchors = (
{
name = bottom;
pos = (272,0);
},
{
name = top;
pos = (272,660);
}
);
layerId = "C665A7CC-B666-4F49-BFE5-A31D06CCF39B";
name = "12pt Condensed ExtraBold";
shapes = (
{
closed = 1;
nodes = (
(488,-11,l),
(369,-35,o),
(328,-35,o),
(231,-23,c),
(231,-13,l),
(408,16,o),
(505,95,o),
(505,338,cs),
(505,554,o),
(427,673,o),
(270,673,cs),
(104,673,o),
(38,541,o),
(38,342,cs),
(38,174,o),
(87,-30,o),
(312,49,c),
(312,36,l),
(263,8,o),
(154,-8,o),
(50,-2,c),
(50,-127,l),
(244,-112,o),
(275,-176,o),
(488,-139,c)
);
},
{
closed = 1;
nodes = (
(224,106,o),
(200,176,o),
(200,318,cs),
(200,476,o),
(229,554,o),
(273,554,cs),
(317,554,o),
(344,477,o),
(344,324,cs),
(344,178,o),
(322,106,o),
(273,106,cs)
);
}
);
userData = {
com.schriftgestaltung.Glyphs.lastChange = "2020-05-30 07:47:44 +0000";
com.typemytype.robofont.Image.Brightness = 0;
com.typemytype.robofont.Image.Contrast = 1;
com.typemytype.robofont.Image.Saturation = 1;
com.typemytype.robofont.Image.Sharpness = 0.4;
};
width = 543;
},
{
anchors = (
{
name = bottom;
pos = (243,0);
},
{
name = top;
pos = (243,660);
}
);
layerId = "5F0F23F3-8289-4A13-984A-DE8C8AB95B73";
name = "12pt Condensed ExtraLight";
shapes = (
{
closed = 1;
nodes = (
(413,-42,l),
(304,-62,o),
(265,-49,o),
(197,-53,c),
(197,-45,l),
(367,27,o),
(424,127,o),
(424,334,cs),
(424,545,o),
(365,672,o),
(240,672,cs),
(102,672,o),
(62,517,o),
(62,346,cs),
(62,150,o),
(115,-9,o),
(261,33,c),
(261,24,l),
(200,-17,o),
(138,-40,o),
(76,-42,c),
(76,-100,l),
(209,-94,o),
(295,-116,o),
(413,-99,c)
);
},
{
closed = 1;
nodes = (
(164,54,o),
(120,149,o),
(120,342,cs),
(120,527,o),
(161,618,o),
(241,618,cs),
(323,618,o),
(366,525,o),
(366,337,cs),
(366,148,o),
(323,54,o),
(244,54,cs)
);
}
);
userData = {
com.schriftgestaltung.Glyphs.lastChange = "2020-05-30 07:47:44 +0000";
com.typemytype.robofont.Image.Brightness = 0;
com.typemytype.robofont.Image.Contrast = 1;
com.typemytype.robofont.Image.Saturation = 1;
com.typemytype.robofont.Image.Sharpness = 0.4;
};
width = 486;
}
);
metricLeft = "=O";
metricRight = "=O";
unicode = 81;
userData = {
KernOnName = Q;
};
},
{
color = 4;
glyphname = R;
kernLeft = KO_H;
kernRight = KO_R;
lastChange = "2023-07-05 06:04:28 +0000";
layers = (
{
anchors = (
{
name = bottom;
pos = (278,0);
},
{
name = top;
pos = (246,660);
}
);
layerId = "C665A7CC-B666-4F49-BFE5-A31D06CCF39B";
shapes = (
{
closed = 1;
nodes = (
(208,0,l),
(208,228,l),
(239,228,ls),
(299,228,o),
(311,174,o),
(323,107,cs),
(342,0,l),
(503,0,l),
(474,126,ls),
(456,202,o),
(442,268,o),
(349,282,c),
(349,291,l),
(458,314,o),
(490,378,o),
(490,458,cs),
(490,653,o),
(311,660,o),
(261,660,cs),
(54,660,l),
(54,0,l)
);
},
{
closed = 1;
nodes = (
(208,538,l),
(245,538,ls),
(309,538,o),
(335,508,o),
(335,441,cs),
(335,364,o),
(306,330,o),
(241,330,cs),
(208,330,l)
);
}
);
userData = {
com.schriftgestaltung.Glyphs.lastChange = "2020-05-30 07:49:01 +0000";
};
width = 522;
},
{
anchors = (
{
name = bottom;
pos = (179,0);
},
{
name = top;
pos = (146,660);
}
);
layerId = "6FE9FA8B-990F-4278-A730-82C9E963D7AD";
shapes = (
{
closed = 1;
nodes = (
(98,0,l),
(98,261,l),
(135,261,ls),
(213,261,o),
(223,215,o),
(230,163,cs),
(253,0,l),
(312,0,l),
(284,177,ls),
(270,266,o),
(237,287,o),
(165,289,c),
(165,295,l),
(265,306,o),
(300,385,o),
(300,470,cs),
(300,586,o),
(240,660,o),
(135,660,cs),
(41,660,l),
(41,0,l)
);
},
{
closed = 1;
nodes = (
(98,607,l),
(129,607,ls),
(204,607,o),
(241,560,o),
(241,465,cs),
(241,364,o),
(199,314,o),
(109,314,cs),
(98,314,l)
);
}
);
userData = {
com.schriftgestaltung.Glyphs.lastChange = "2020-05-30 07:49:01 +0000";
};
width = 334;
},
{
anchors = (
{
name = bottom;
pos = (313,0);
},
{
name = top;
pos = (280,660);
}
);
layerId = "C1A2FA2E-3F34-46D0-916F-7EEB4942386E";
name = "96pt ExtraBold";
shapes = (
{
closed = 1;
nodes = (
(202,0,l),
(202,227,l),
(284,227,ls),
(360,227,o),
(386,199,o),
(399,131,cs),
(424,0,l),
(603,0,l),
(568,140,ls),
(549,218,o),
(518,286,o),
(390,293,c),
(390,301,l),
(521,316,o),
(576,384,o),
(576,466,cs),
(576,599,o),
(460,660,o),
(314,660,cs),
(40,660,l),
(40,0,l)
);
},
{
closed = 1;
nodes = (
(202,530,l),
(300,530,ls),
(373,530,o),
(409,499,o),
(409,437,cs),
(409,380,o),
(369,352,o),
(296,352,cs),
(202,352,l)
);
}
);
userData = {
com.schriftgestaltung.Glyphs.lastChange = "2020-05-30 07:49:01 +0000";
};
width = 615;
},
{
anchors = (
{
name = bottom;
pos = (293,0);
},
{
name = top;
pos = (257,660);
}
);
layerId = "9F71C57A-214D-4B4D-A956-3B8F1C0FEA05";
name = "96pt ExtraLight";
shapes = (
{
closed = 1;
nodes = (
(115,0,l),
(115,259,l),
(271,259,ls),
(397,259,o),
(431,183,o),
(451,101,cs),
(476,0,l),
(536,0,l),
(504,115,ls),
(473,227,o),
(434,275,o),
(331,283,c),
(331,291,l),
(484,296,o),
(518,385,o),
(518,461,cs),
(518,591,o),
(424,660,o),
(269,660,cs),
(58,660,l),
(58,0,l)
);
},
{
closed = 1;
nodes = (
(115,607,l),
(263,607,ls),
(393,607,o),
(458,557,o),
(458,457,cs),
(458,355,o),
(388,311,o),
(258,311,cs),
(115,311,l)
);
}
);
userData = {
com.schriftgestaltung.Glyphs.lastChange = "2020-05-30 07:49:01 +0000";
};
width = 567;
},
{
anchors = (
{
name = bottom;
pos = (358,0);
},
{
name = top;
pos = (329,660);
}
);
layerId = "13870E78-3F0A-41D5-8A20-B477F2D0CF38";
name = "12pt ExtraBold";
shapes = (
{
closed = 1;
nodes = (
(231,0,l),
(231,222,l),
(330,222,ls),
(402,222,o),
(435,201,o),
(454,121,cs),
(483,0,l),
(662,0,l),
(624,131,ls),
(598,221,o),
(570,272,o),
(458,285,c),
(458,300,l),
(577,315,o),
(637,371,o),
(637,465,cs),
(637,587,o),
(534,660,o),
(351,660,cs),
(70,660,l),
(70,0,l)
);
},
{
closed = 1;
nodes = (
(231,538,l),
(344,538,ls),
(428,538,o),
(469,506,o),
(469,440,cs),
(469,372,o),
(421,341,o),
(340,341,cs),
(231,341,l)
);
}
);
userData = {
com.schriftgestaltung.Glyphs.lastChange = "2020-05-30 07:49:01 +0000";
};
width = 690;
},
{
anchors = (
{
name = bottom;
pos = (330,0);
},
{
name = top;
pos = (301,660);
}
);
layerId = "FA4F2279-C2CB-4D21-8447-C28A701A0705";
name = "12pt ExtraLight ";
shapes = (
{
closed = 1;
nodes = (
(152,0,l),
(152,264,l),
(298,264,ls),
(389,264,o),
(454,224,o),
(475,143,cs),
(512,0,l),
(571,0,l),
(526,157,ls),
(498,254,o),
(447,278,o),
(398,287,c),
(398,298,l),
(499,311,o),
(556,375,o),
(556,469,cs),
(556,593,o),
(458,660,o),
(299,660,cs),
(95,660,l),
(95,0,l)
);
},
{
closed = 1;
nodes = (
(152,607,l),
(294,607,ls),
(434,607,o),
(499,560,o),
(499,462,cs),
(499,364,o),
(431,317,o),
(294,317,cs),
(152,317,l)
);
}
);
userData = {
com.schriftgestaltung.Glyphs.lastChange = "2020-05-30 07:49:01 +0000";
};
width = 633;
},
{
anchors = (
{
name = bottom;
pos = (214,0);
},
{
name = top;
pos = (190,660);
}
);
layerId = "240BF9EB-FB0D-4A7D-9EDB-8E544078904A";
name = "96pt Condensed ExtraBold";
shapes = (
{
closed = 1;
nodes = (
(174,0,l),
(174,228,l),
(181,228,l),
(240,226,o),
(245,174,o),
(251,106,cs),
(260,0,l),
(420,0,l),
(403,129,ls),
(392,216,o),
(375,277,o),
(269,282,c),
(269,291,l),
(365,308,o),
(408,375,o),
(408,464,cs),
(408,596,o),
(316,660,o),
(202,660,cs),
(20,660,l),
(20,0,l)
);
},
{
closed = 1;
nodes = (
(174,537,l),
(194,537,ls),
(235,537,o),
(253,510,o),
(253,440,cs),
(253,363,o),
(231,330,o),
(186,330,cs),
(174,330,l)
);
}
);
userData = {
com.schriftgestaltung.Glyphs.lastChange = "2020-05-30 07:49:01 +0000";
};
width = 429;
},
{
anchors = (
{
name = bottom;
pos = (251,0);
},
{
name = top;
pos = (220,660);
}
);
layerId = "5F0F23F3-8289-4A13-984A-DE8C8AB95B73";
name = "12pt Condensed ExtraLight";
shapes = (
{
closed = 1;
nodes = (
(133,0,l),
(133,262,l),
(215,262,ls),
(294,262,o),
(309,221,o),
(321,163,cs),
(356,0,l),
(414,0,l),
(379,158,ls),
(358,255,o),
(324,280,o),
(267,284,c),
(267,296,l),
(374,318,o),
(403,391,o),
(403,474,cs),
(403,599,o),
(335,660,o),
(207,660,cs),
(77,660,l),
(77,0,l)
);
},
{
closed = 1;
nodes = (
(133,607,l),
(208,607,ls),
(305,607,o),
(346,559,o),
(346,464,cs),
(346,360,o),
(297,314,o),
(194,314,cs),
(133,314,l)
);
}
);
userData = {
com.schriftgestaltung.Glyphs.lastChange = "2020-05-30 07:49:01 +0000";
};
width = 460;
}
);
metricLeft = "=H";
unicode = 82;
userData = {
KernOnName = R;
};
},
{
color = 4;
glyphname = S;
kernLeft = KO_S;
kernRight = KO_S;
lastChange = "2023-07-05 06:04:28 +0000";
layers = (
{
anchors = (
{
name = bottom;
pos = (255,0);
},
{
name = top;
pos = (247,660);
}
);
layerId = "C665A7CC-B666-4F49-BFE5-A31D06CCF39B";
shapes = (
{
closed = 1;
nodes = (
(410,-14,o),
(465,73,o),
(465,169,cs),
(465,294,o),
(369,355,o),
(280,401,cs),
(231,426,o),
(180,453,o),
(180,501,cs),
(180,533,o),
(203,555,o),
(239,555,cs),
(293,555,o),
(326,506,o),
(319,448,c),
(458,466,l),
(461,578,o),
(404,671,o),
(241,671,cs),
(99,671,o),
(30,599,o),
(30,500,cs),
(30,396,o),
(107,345,o),
(190,298,cs),
(266,255,o),
(313,227,o),
(313,165,cs),
(313,113,o),
(280,100,o),
(251,100,cs),
(186,100,o),
(167,161,o),
(173,227,c),
(33,212,l),
(16,108,o),
(60,-14,o),
(250,-14,cs)
);
}
);
userData = {
com.schriftgestaltung.Glyphs.lastChange = "2020-05-30 07:49:47 +0000";
};
width = 491;
},
{
anchors = (
{
name = bottom;
pos = (149,0);
},
{
name = top;
pos = (145,657);
}
);
layerId = "6FE9FA8B-990F-4278-A730-82C9E963D7AD";
shapes = (
{
closed = 1;
nodes = (
(246,-10,o),
(279,59,o),
(279,157,cs),
(279,265,o),
(241,327,o),
(165,378,cs),
(132,400,o),
(82,435,o),
(82,519,cs),
(82,578,o),
(107,615,o),
(148,615,cs),
(214,615,o),
(215,514,o),
(206,458,c),
(259,467,l),
(279,590,o),
(241,670,o),
(149,670,cs),
(65,670,o),
(24,603,o),
(24,513,cs),
(24,420,o),
(67,377,o),
(131,332,cs),
(179,298,o),
(221,266,o),
(221,153,cs),
(221,78,o),
(200,45,o),
(154,45,cs),
(74,45,o),
(73,136,o),
(89,244,c),
(36,237,l),
(15,124,o),
(18,-10,o),
(149,-10,cs)
);
}
);
userData = {
com.schriftgestaltung.Glyphs.lastChange = "2020-05-30 07:49:47 +0000";
};
width = 298;
},
{
anchors = (
{
name = bottom;
pos = (214,0);
},
{
name = top;
pos = (203,660);
}
);
layerId = "240BF9EB-FB0D-4A7D-9EDB-8E544078904A";
shapes = (
{
closed = 1;
nodes = (
(347,-12,o),
(402,65,o),
(402,170,cs),
(402,293,o),
(328,351,o),
(251,402,cs),
(208,430,o),
(167,457,o),
(167,507,cs),
(167,537,o),
(181,555,o),
(204,555,cs),
(247,555,o),
(258,492,o),
(249,429,c),
(388,447,l),
(404,587,o),
(340,672,o),
(204,672,cs),
(83,672,o),
(15,602,o),
(15,501,cs),
(15,397,o),
(84,344,o),
(144,302,cs),
(194,267,o),
(248,229,o),
(248,155,cs),
(248,117,o),
(233,100,o),
(210,100,cs),
(160,100,o),
(155,177,o),
(167,254,c),
(25,235,l),
(-15,83,o),
(57,-12,o),
(208,-12,cs)
);
}
);
userData = {
com.schriftgestaltung.Glyphs.lastChange = "2020-05-30 07:49:47 +0000";
};
width = 412;
},
{
anchors = (
{
name = bottom;
pos = (232,0);
},
{
name = top;
pos = (219,660);
}
);
layerId = "5F0F23F3-8289-4A13-984A-DE8C8AB95B73";
shapes = (
{
closed = 1;
nodes = (
(354,-11,o),
(399,67,o),
(399,155,cs),
(399,280,o),
(308,330,o),
(240,363,cs),
(178,393,o),
(109,428,o),
(109,511,cs),
(109,575,o),
(149,618,o),
(223,618,cs),
(301,618,o),
(344,571,o),
(330,458,c),
(388,460,l),
(406,588,o),
(345,672,o),
(224,672,cs),
(110,672,o),
(52,601,o),
(52,506,cs),
(52,396,o),
(132,354,o),
(210,314,cs),
(298,269,o),
(342,237,o),
(342,158,cs),
(342,70,o),
(289,42,o),
(227,42,cs),
(130,42,o),
(92,110,o),
(110,214,c),
(57,212,l),
(32,109,o),
(69,-11,o),
(227,-11,cs)
);
}
);
userData = {
com.schriftgestaltung.Glyphs.lastChange = "2020-05-30 07:49:47 +0000";
};
visible = 1;
width = 447;
},
{
anchors = (
{
name = bottom;
pos = (295,0);
},
{
name = top;
pos = (291,658);
}
);
layerId = "C1A2FA2E-3F34-46D0-916F-7EEB4942386E";
shapes = (
{
closed = 1;
nodes = (
(457,-14,o),
(568,52,o),
(568,184,cs),
(568,335,o),
(433,372,o),
(319,403,cs),
(237,425,o),
(186,441,o),
(186,484,cs),
(186,519,o),
(217,546,o),
(279,546,cs),
(358,546,o),
(398,500,o),
(395,421,c),
(543,445,l),
(556,592,o),
(440,674,o),
(284,674,cs),
(136,674,o),
(30,601,o),
(30,473,cs),
(30,334,o),
(157,297,o),
(271,266,cs),
(351,244,o),
(410,226,o),
(410,178,cs),
(410,141,o),
(367,118,o),
(307,118,cs),
(232,118,o),
(177,156,o),
(173,248,c),
(23,215,l),
(18,75,o),
(112,-14,o),
(299,-14,cs)
);
}
);
userData = {
com.schriftgestaltung.Glyphs.lastChange = "2020-05-30 07:49:47 +0000";
};
width = 585;
},
{
anchors = (
{
name = bottom;
pos = (283,0);
},
{
name = top;
pos = (283,660);
}
);
layerId = "9F71C57A-214D-4B4D-A956-3B8F1C0FEA05";
shapes = (
{
closed = 1;
nodes = (
(438,-13,o),
(531,58,o),
(531,174,cs),
(531,303,o),
(411,334,o),
(295,358,cs),
(201,377,o),
(102,397,o),
(102,491,cs),
(102,568,o),
(169,619,o),
(269,619,cs),
(374,619,o),
(456,564,o),
(444,461,c),
(500,472,l),
(505,607,o),
(411,673,o),
(274,673,cs),
(127,673,o),
(44,593,o),
(44,488,cs),
(44,359,o),
(166,328,o),
(281,304,cs),
(374,285,o),
(473,264,o),
(473,171,cs),
(473,89,o),
(402,41,o),
(285,41,cs),
(180,41,o),
(80,80,o),
(94,216,c),
(37,208,l),
(26,57,o),
(136,-13,o),
(286,-13,cs)
);
}
);
userData = {
com.schriftgestaltung.Glyphs.lastChange = "2020-05-30 07:49:47 +0000";
};
width = 561;
},
{
anchors = (
{
name = bottom;
pos = (333,0);
},
{
name = top;
pos = (334,658);
}
);
layerId = "13870E78-3F0A-41D5-8A20-B477F2D0CF38";
shapes = (
{
closed = 1;
nodes = (
(524,-14,o),
(623,65,o),
(623,188,cs),
(623,341,o),
(473,375,o),
(359,400,cs),
(273,419,o),
(203,438,o),
(203,486,cs),
(203,523,o),
(245,552,o),
(321,552,cs),
(406,552,o),
(455,512,o),
(456,435,c),
(600,477,l),
(594,593,o),
(495,674,o),
(322,674,cs),
(146,674,o),
(51,593,o),
(51,472,cs),
(51,327,o),
(187,293,o),
(321,262,cs),
(408,242,o),
(469,224,o),
(469,180,cs),
(469,142,o),
(424,107,o),
(341,107,cs),
(252,107,o),
(185,147,o),
(180,232,c),
(39,184,l),
(51,50,o),
(161,-14,o),
(332,-14,cs)
);
}
);
userData = {
com.schriftgestaltung.Glyphs.lastChange = "2020-05-30 07:49:47 +0000";
};
width = 660;
},
{
anchors = (
{
name = bottom;
pos = (313,0);
},
{
name = top;
pos = (309,660);
}
);
layerId = "FA4F2279-C2CB-4D21-8447-C28A701A0705";
shapes = (
{
closed = 1;
nodes = (
(479,-12,o),
(563,60,o),
(563,168,cs),
(563,295,o),
(458,326,o),
(344,350,cs),
(235,373,o),
(132,395,o),
(132,489,cs),
(132,568,o),
(204,619,o),
(299,619,cs),
(407,619,o),
(484,566,o),
(484,461,c),
(541,471,l),
(538,608,o),
(430,672,o),
(300,672,cs),
(170,672,o),
(76,601,o),
(76,486,cs),
(76,350,o),
(206,322,o),
(326,297,cs),
(421,277,o),
(507,257,o),
(507,171,cs),
(507,93,o),
(437,43,o),
(311,43,cs),
(178,43,o),
(102,100,o),
(117,216,c),
(64,212,l),
(47,68,o),
(135,-12,o),
(310,-12,cs)
);
}
);
userData = {
com.schriftgestaltung.Glyphs.lastChange = "2020-05-30 07:49:47 +0000";
};
width = 625;
}
);
unicode = 83;
userData = {
KernOnName = S;
};
},
{
glyphname = Germandbls;
lastChange = "2023-02-26 13:42:16 +0000";
layers = (
{
anchors = (
{
name = bottom;
pos = (302,0);
},
{
name = top;
pos = (302,660);
}
);
layerId = "9F71C57A-214D-4B4D-A956-3B8F1C0FEA05";
metricRight = "=B-4";
shapes = (
{
closed = 1;
nodes = (
(482,-14,o),
(566,64,o),
(566,184,cs),
(566,297,o),
(493,362,o),
(332,362,c),
(332,369,l),
(513,497,l),
(513,618,o),
(428,673,o),
(292,673,cs),
(55,673,o),
(55,505,o),
(55,434,cs),
(55,0,l),
(111,0,l),
(111,433,ls),
(111,488,o),
(111,620,o),
(293,620,cs),
(390,620,o),
(454,581,o),
(454,515,c),
(278,390,l),
(278,329,l),
(397,329,o),
(509,302,o),
(509,184,cs),
(509,81,o),
(422,40,o),
(356,40,cs),
(289,40,o),
(183,80,o),
(214,195,c),
(155,186,l),
(137,80,o),
(212,-14,o),
(352,-14,cs)
);
}
);
width = 596;
},
{
anchors = (
{
name = bottom;
pos = (372,0);
},
{
name = top;
pos = (372,660);
}
);
layerId = "13870E78-3F0A-41D5-8A20-B477F2D0CF38";
shapes = (
{
closed = 1;
nodes = (
(624,-14,o),
(688,88,o),
(688,184,cs),
(688,275,o),
(617,360,o),
(476,354,c),
(476,358,l),
(628,515,l),
(628,592,o),
(558,674,o),
(366,674,cs),
(154,674,o),
(66,567,o),
(66,391,cs),
(66,0,l),
(228,0,l),
(228,410,ls),
(228,507,o),
(300,542,o),
(365,542,cs),
(409,542,o),
(450,526,o),
(464,504,c),
(329,366,l),
(329,279,l),
(470,290,o),
(529,250,o),
(529,182,cs),
(529,131,o),
(500,108,o),
(469,108,cs),
(444,108,o),
(417,123,o),
(398,150,c),
(298,60,l),
(319,18,o),
(378,-14,o),
(466,-14,cs)
);
}
);
width = 732;
},
{
anchors = (
{
name = bottom;
pos = (231,0);
},
{
name = top;
pos = (231,660);
}
);
layerId = "240BF9EB-FB0D-4A7D-9EDB-8E544078904A";
metricLeft = "=U+1";
metricRight = "=B";
shapes = (
{
closed = 1;
nodes = (
(397,-12,o),
(455,66,o),
(455,174,cs),
(455,282,o),
(398,336,o),
(296,321,c),
(296,326,l),
(412,497,l),
(412,593,o),
(348,672,o),
(218,672,cs),
(83,672,o),
(20,594,o),
(20,427,cs),
(20,1,l),
(174,1,l),
(174,456,ls),
(174,520,o),
(199,547,o),
(225,547,cs),
(245,547,o),
(266,531,o),
(272,502,c),
(202,382,l),
(202,263,l),
(260,278,o),
(297,248,o),
(297,175,cs),
(297,142,o),
(280,124,o),
(259,124,cs),
(246,124,o),
(229,131,o),
(214,148,c),
(191,16,l),
(226,-5,o),
(265,-12,o),
(295,-12,cs)
);
}
);
width = 460;
},
{
anchors = (
{
name = bottom;
pos = (187,0);
},
{
name = top;
pos = (187,660);
}
);
layerId = "6FE9FA8B-990F-4278-A730-82C9E963D7AD";
metricRight = "=B-4";
shapes = (
{
closed = 1;
nodes = (
(296,-10,o),
(356,40,o),
(356,165,cs),
(356,298,o),
(283,354,o),
(210,354,c),
(210,361,l),
(310,494,l),
(310,614,o),
(258,670,o),
(179,670,cs),
(39,670,o),
(39,528,o),
(39,455,cs),
(39,0,l),
(95,0,l),
(95,454,ls),
(95,512,o),
(95,617,o),
(179,617,cs),
(223,617,o),
(252,574,o),
(252,505,c),
(157,375,l),
(157,325,l),
(210,325,o),
(298,303,o),
(298,165,cs),
(298,87,o),
(270,44,o),
(235,44,cs),
(209,44,o),
(174,66,o),
(177,152,c),
(122,142,l),
(118,27,o),
(177,-10,o),
(232,-10,cs)
);
}
);
width = 370;
},
{
anchors = (
{
name = bottom;
pos = (273,0);
},
{
name = top;
pos = (273,660);
}
);
layerId = "C665A7CC-B666-4F49-BFE5-A31D06CCF39B";
metricLeft = "=U+1";
metricRight = "=B-10";
shapes = (
{
closed = 1;
nodes = (
(440,-14,o),
(519,42,o),
(519,166,cs),
(519,271,o),
(462,326,o),
(360,312,c),
(360,325,l),
(476,499,l),
(476,585,o),
(417,674,o),
(262,674,cs),
(123,674,o),
(52,602,o),
(52,439,cs),
(52,1,l),
(206,1,l),
(206,458,ls),
(206,523,o),
(241,549,o),
(275,549,cs),
(306,549,o),
(331,529,o),
(335,504,c),
(266,389,l),
(266,262,l),
(324,277,o),
(361,246,o),
(361,185,cs),
(361,141,o),
(341,121,o),
(315,121,cs),
(304,121,o),
(290,125,o),
(278,133,c),
(255,1,l),
(283,-9,o),
(313,-14,o),
(343,-14,cs)
);
}
);
width = 532;
},
{
anchors = (
{
name = bottom;
pos = (240,0);
},
{
name = top;
pos = (240,660);
}
);
layerId = "5F0F23F3-8289-4A13-984A-DE8C8AB95B73";
metricLeft = "=U+2";
metricRight = "=B-5";
shapes = (
{
closed = 1;
nodes = (
(361,-12,o),
(419,38,o),
(419,161,cs),
(419,297,o),
(346,353,o),
(274,353,c),
(274,360,l),
(373,496,l),
(373,616,o),
(323,672,o),
(230,672,cs),
(77,672,o),
(77,524,o),
(77,457,cs),
(77,0,l),
(134,0,l),
(134,456,ls),
(134,507,o),
(134,619,o),
(230,619,cs),
(287,619,o),
(315,576,o),
(315,507,c),
(220,374,l),
(220,328,l),
(272,328,o),
(361,304,o),
(361,161,cs),
(361,86,o),
(338,42,o),
(290,42,cs),
(256,42,o),
(227,65,o),
(213,120,c),
(162,99,l),
(179,18,o),
(233,-12,o),
(288,-12,cs)
);
}
);
width = 462;
},
{
anchors = (
{
name = bottom;
pos = (335,0);
},
{
name = top;
pos = (335,660);
}
);
layerId = "C1A2FA2E-3F34-46D0-916F-7EEB4942386E";
metricRight = "=B-2";
name = "Display Bold";
shapes = (
{
closed = 1;
nodes = (
(578,-14,o),
(651,82,o),
(651,182,cs),
(651,284,o),
(573,367,o),
(431,362,c),
(431,367,l),
(582,515,l),
(582,592,o),
(508,674,o),
(328,674,cs),
(126,674,o),
(37,571,o),
(37,399,cs),
(37,0,l),
(199,0,l),
(199,419,ls),
(199,510,o),
(264,543,o),
(323,543,cs),
(365,543,o),
(404,527,o),
(419,504,c),
(283,374,l),
(283,279,l),
(427,299,o),
(492,247,o),
(492,177,cs),
(492,132,o),
(466,109,o),
(433,109,cs),
(403,109,o),
(374,135,o),
(377,176,c),
(233,154,l),
(228,39,o),
(314,-14,o),
(426,-14,cs)
);
}
);
width = 666;
},
{
anchors = (
{
name = bottom;
pos = (326,0);
},
{
name = top;
pos = (326,660);
}
);
layerId = "FA4F2279-C2CB-4D21-8447-C28A701A0705";
metricLeft = "=U+2";
metricRight = "=B-12";
shapes = (
{
closed = 1;
nodes = (
(511,-12,o),
(591,64,o),
(591,178,cs),
(591,284,o),
(517,352,o),
(360,352,c),
(360,361,l),
(538,489,l),
(538,617,o),
(457,672,o),
(323,672,cs),
(92,672,o),
(92,509,o),
(92,436,cs),
(92,0,l),
(149,0,l),
(149,435,ls),
(149,492,o),
(149,619,o),
(323,619,cs),
(419,619,o),
(480,580,o),
(480,510,c),
(306,384,l),
(306,319,l),
(422,319,o),
(533,290,o),
(533,178,cs),
(533,89,o),
(462,42,o),
(392,42,cs),
(347,42,o),
(281,61,o),
(268,130,c),
(213,114,l),
(228,39,o),
(290,-12,o),
(389,-12,cs)
);
}
);
width = 644;
}
);
metricLeft = "=U";
metricRight = "=B";
unicode = 7838;
},
{
color = 4;
glyphname = T;
kernLeft = KO_T;
kernRight = KO_T;
lastChange = "2023-07-05 06:04:28 +0000";
layers = (
{
anchors = (
{
name = bottom;
pos = (190,0);
},
{
name = center;
pos = (190,330);
},
{
name = top;
pos = (190,660);
}
);
layerId = "240BF9EB-FB0D-4A7D-9EDB-8E544078904A";
shapes = (
{
closed = 1;
nodes = (
(265,0,l),
(265,660,l),
(111,660,l),
(111,0,l)
);
},
{
closed = 1;
nodes = (
(370,535,l),
(370,660,l),
(5,660,l),
(5,535,l)
);
}
);
userData = {
com.schriftgestaltung.Glyphs.lastChange = "2020-05-30 06:58:04 +0000";
};
width = 375;
},
{
anchors = (
{
name = bottom;
pos = (149,0);
},
{
name = center;
pos = (149,330);
},
{
name = top;
pos = (149,660);
}
);
layerId = "6FE9FA8B-990F-4278-A730-82C9E963D7AD";
shapes = (
{
closed = 1;
nodes = (
(178,0,l),
(178,660,l),
(121,660,l),
(121,0,l)
);
},
{
closed = 1;
nodes = (
(287,607,l),
(287,660,l),
(12,660,l),
(12,607,l)
);
}
);
userData = {
com.schriftgestaltung.Glyphs.lastChange = "2020-05-30 06:58:04 +0000";
};
width = 299;
},
{
anchors = (
{
name = bottom;
pos = (220,0);
},
{
name = center;
pos = (220,330);
},
{
name = top;
pos = (220,660);
}
);
layerId = "C665A7CC-B666-4F49-BFE5-A31D06CCF39B";
shapes = (
{
closed = 1;
nodes = (
(297,0,l),
(297,660,l),
(143,660,l),
(143,0,l)
);
},
{
closed = 1;
nodes = (
(432,535,l),
(432,660,l),
(8,660,l),
(8,535,l)
);
}
);
userData = {
com.schriftgestaltung.Glyphs.lastChange = "2020-05-30 06:58:04 +0000";
};
width = 440;
},
{
anchors = (
{
name = bottom;
pos = (195,0);
},
{
name = center;
pos = (195,330);
},
{
name = top;
pos = (195,660);
}
);
layerId = "5F0F23F3-8289-4A13-984A-DE8C8AB95B73";
shapes = (
{
closed = 1;
nodes = (
(223,0,l),
(223,660,l),
(167,660,l),
(167,0,l)
);
},
{
closed = 1;
nodes = (
(368,607,l),
(368,660,l),
(22,660,l),
(22,607,l)
);
}
);
userData = {
com.schriftgestaltung.Glyphs.lastChange = "2020-05-30 06:58:04 +0000";
};
width = 390;
},
{
anchors = (
{
name = bottom;
pos = (258,0);
},
{
name = center;
pos = (258,330);
},
{
name = top;
pos = (258,660);
}
);
layerId = "C1A2FA2E-3F34-46D0-916F-7EEB4942386E";
shapes = (
{
closed = 1;
nodes = (
(339,0,l),
(339,660,l),
(177,660,l),
(177,0,l)
);
},
{
closed = 1;
nodes = (
(502,522,l),
(502,660,l),
(14,660,l),
(14,522,l)
);
}
);
userData = {
com.schriftgestaltung.Glyphs.lastChange = "2020-05-30 06:58:04 +0000";
};
width = 516;
},
{
anchors = (
{
name = bottom;
pos = (245,0);
},
{
name = center;
pos = (245,330);
},
{
name = top;
pos = (245,660);
}
);
layerId = "9F71C57A-214D-4B4D-A956-3B8F1C0FEA05";
shapes = (
{
closed = 1;
nodes = (
(274,0,l),
(274,660,l),
(217,660,l),
(217,0,l)
);
},
{
closed = 1;
nodes = (
(477,607,l),
(477,660,l),
(14,660,l),
(14,607,l)
);
}
);
userData = {
com.schriftgestaltung.Glyphs.lastChange = "2020-05-30 06:58:04 +0000";
};
width = 491;
},
{
anchors = (
{
name = bottom;
pos = (291,0);
},
{
name = center;
pos = (291,330);
},
{
name = top;
pos = (291,660);
}
);
layerId = "13870E78-3F0A-41D5-8A20-B477F2D0CF38";
shapes = (
{
closed = 1;
nodes = (
(371,0,l),
(371,660,l),
(209,660,l),
(209,0,l)
);
},
{
closed = 1;
nodes = (
(565,526,l),
(565,660,l),
(16,660,l),
(16,526,l)
);
}
);
userData = {
com.schriftgestaltung.Glyphs.lastChange = "2020-05-30 06:58:04 +0000";
};
width = 581;
},
{
anchors = (
{
name = bottom;
pos = (263,0);
},
{
name = center;
pos = (263,330);
},
{
name = top;
pos = (263,660);
}
);
layerId = "FA4F2279-C2CB-4D21-8447-C28A701A0705";
shapes = (
{
closed = 1;
nodes = (
(292,0,l),
(292,660,l),
(235,660,l),
(235,0,l)
);
},
{
closed = 1;
nodes = (
(497,607,l),
(497,660,l),
(30,660,l),
(30,607,l)
);
}
);
userData = {
com.schriftgestaltung.Glyphs.lastChange = "2020-05-30 06:58:04 +0000";
};
width = 527;
}
);
metricRight = "=|";
unicode = 84;
userData = {
KernOnName = T;
};
},
{
color = 4;
glyphname = U;
kernLeft = KO_U;
kernRight = KO_U;
lastChange = "2023-07-05 06:04:28 +0000";
layers = (
{
anchors = (
{
name = bottom;
pos = (277,0);
},
{
name = ogonek;
pos = (307,-12);
},
{
name = top;
pos = (277,660);
},
{
name = topright;
pos = (488,660);
}
);
layerId = "C665A7CC-B666-4F49-BFE5-A31D06CCF39B";
shapes = (
{
closed = 1;
nodes = (
(407,-14,o),
(488,60,o),
(488,222,cs),
(488,660,l),
(333,660,l),
(333,219,ls),
(333,140,o),
(310,122,o),
(270,122,cs),
(229,122,o),
(206,142,o),
(206,219,cs),
(206,660,l),
(51,660,l),
(51,222,ls),
(51,168,o),
(66,-14,o),
(273,-14,cs)
);
}
);
userData = {
com.schriftgestaltung.Glyphs.lastChange = "2020-05-30 07:50:11 +0000";
};
width = 539;
},
{
anchors = (
{
name = bottom;
pos = (314,0);
},
{
name = ogonek;
pos = (404,-8);
},
{
name = top;
pos = (313,660);
},
{
name = topright;
pos = (590,660);
}
);
layerId = "C1A2FA2E-3F34-46D0-916F-7EEB4942386E";
shapes = (
{
closed = 1;
nodes = (
(496,-14,o),
(590,87,o),
(590,260,cs),
(590,660,l),
(428,660,l),
(428,268,ls),
(428,164,o),
(380,130,o),
(313,130,cs),
(247,130,o),
(199,165,o),
(199,268,cs),
(199,660,l),
(37,660,l),
(37,260,ls),
(37,98,o),
(122,-14,o),
(313,-14,cs)
);
}
);
userData = {
com.schriftgestaltung.Glyphs.lastChange = "2020-05-30 07:50:11 +0000";
};
width = 627;
},
{
anchors = (
{
name = bottom;
pos = (307,0);
},
{
name = ogonek;
pos = (363,-10);
},
{
name = top;
pos = (307,660);
},
{
name = topright;
pos = (558,660);
}
);
layerId = "9F71C57A-214D-4B4D-A956-3B8F1C0FEA05";
shapes = (
{
closed = 1;
nodes = (
(459,-15,o),
(558,76,o),
(558,250,cs),
(558,660,l),
(502,660,l),
(502,256,ls),
(502,147,o),
(458,40,o),
(307,40,cs),
(159,40,o),
(112,145,o),
(112,256,cs),
(112,660,l),
(55,660,l),
(55,250,ls),
(55,76,o),
(154,-15,o),
(307,-15,cs)
);
}
);
userData = {
com.schriftgestaltung.Glyphs.lastChange = "2020-05-30 07:50:11 +0000";
};
width = 613;
},
{
anchors = (
{
name = bottom;
pos = (369,0);
},
{
name = ogonek;
pos = (432,-10);
},
{
name = top;
pos = (369,660);
},
{
name = topright;
pos = (670,660);
}
);
layerId = "13870E78-3F0A-41D5-8A20-B477F2D0CF38";
name = "12pt ExtraBold";
shapes = (
{
closed = 1;
nodes = (
(571,-14,o),
(670,87,o),
(670,262,cs),
(670,660,l),
(509,660,l),
(509,267,ls),
(509,170,o),
(466,128,o),
(368,128,cs),
(271,128,o),
(228,170,o),
(228,267,cs),
(228,660,l),
(66,660,l),
(66,262,ls),
(66,96,o),
(159,-14,o),
(369,-14,cs)
);
}
);
userData = {
com.schriftgestaltung.Glyphs.lastChange = "2020-05-30 07:50:11 +0000";
};
width = 736;
},
{
anchors = (
{
name = bottom;
pos = (353,0);
},
{
name = ogonek;
pos = (381,-11);
},
{
name = top;
pos = (353,660);
},
{
name = topright;
pos = (616,660);
}
);
layerId = "FA4F2279-C2CB-4D21-8447-C28A701A0705";
name = "12pt ExtraLight ";
shapes = (
{
closed = 1;
nodes = (
(521,-12,o),
(616,81,o),
(616,245,cs),
(616,660,l),
(559,660,l),
(559,248,ls),
(559,113,o),
(488,43,o),
(353,43,cs),
(220,43,o),
(147,114,o),
(147,248,cs),
(147,660,l),
(90,660,l),
(90,245,ls),
(90,82,o),
(186,-12,o),
(353,-12,cs)
);
}
);
userData = {
com.schriftgestaltung.Glyphs.lastChange = "2020-05-30 07:50:11 +0000";
};
width = 706;
},
{
anchors = (
{
name = bottom;
pos = (221,0);
},
{
name = ogonek;
pos = (265,-7);
},
{
name = top;
pos = (221,660);
},
{
name = topright;
pos = (408,660);
}
);
layerId = "240BF9EB-FB0D-4A7D-9EDB-8E544078904A";
metricLeft = "=H-1";
name = "96pt Condensed ExtraBold";
shapes = (
{
closed = 1;
nodes = (
(333,-12,o),
(408,58,o),
(408,221,cs),
(408,660,l),
(254,660,l),
(254,235,ls),
(254,154,o),
(243,123,o),
(213,123,cs),
(182,123,o),
(173,154,o),
(173,235,cs),
(173,660,l),
(19,660,l),
(19,221,ls),
(19,65,o),
(85,-12,o),
(213,-12,cs)
);
}
);
userData = {
com.schriftgestaltung.Glyphs.lastChange = "2020-05-30 07:50:11 +0000";
};
width = 427;
},
{
anchors = (
{
name = bottom;
pos = (167,0);
},
{
name = ogonek;
pos = (186,-9);
},
{
name = top;
pos = (167,660);
},
{
name = topright;
pos = (297,660);
}
);
layerId = "6FE9FA8B-990F-4278-A730-82C9E963D7AD";
name = "96pt Condensed ExtraLight";
shapes = (
{
closed = 1;
nodes = (
(249,-10,o),
(297,48,o),
(297,151,cs),
(297,660,l),
(240,660,l),
(240,157,ls),
(240,86,o),
(215,46,o),
(169,46,cs),
(122,46,o),
(96,86,o),
(96,157,cs),
(96,660,l),
(39,660,l),
(39,151,ls),
(39,48,o),
(86,-10,o),
(168,-10,cs)
);
}
);
userData = {
com.schriftgestaltung.Glyphs.lastChange = "2020-05-30 07:50:11 +0000";
};
width = 336;
},
{
anchors = (
{
name = bottom;
pos = (250,0);
},
{
name = ogonek;
pos = (257,0);
},
{
name = top;
pos = (250,660);
},
{
name = topright;
pos = (422,660);
}
);
layerId = "5F0F23F3-8289-4A13-984A-DE8C8AB95B73";
name = "12pt Condensed ExtraLight";
shapes = (
{
closed = 1;
nodes = (
(363,-12,o),
(422,54,o),
(422,175,cs),
(422,660,l),
(366,660,l),
(366,169,ls),
(366,84,o),
(328,42,o),
(252,42,cs),
(174,42,o),
(131,87,o),
(131,169,cs),
(131,660,l),
(75,660,l),
(75,175,ls),
(75,57,o),
(139,-12,o),
(250,-12,cs)
);
}
);
userData = {
com.schriftgestaltung.Glyphs.lastChange = "2020-05-30 07:50:11 +0000";
};
width = 497;
}
);
metricRight = "=|U";
unicode = 85;
userData = {
KernOnName = U;
};
},
{
glyphname = Uogonek;
kernLeft = KO_U;
kernRight = KO_U;
lastChange = "2023-02-26 13:42:16 +0000";
layers = (
{
layerId = "C1A2FA2E-3F34-46D0-916F-7EEB4942386E";
shapes = (
{
ref = U;
},
{
closed = 1;
nodes = (
(335,-195,o),
(397,-164,c),
(397,-78,l),
(367,-89,o),
(313,-94,o),
(313,-62,cs),
(313,-44,o),
(339,-28,o),
(398,-8,c),
(398,6,l),
(322,-3,l),
(322,-24,l),
(277,-30,o),
(215,-50,o),
(215,-109,cs),
(215,-189,o)
);
}
);
width = 627;
},
{
layerId = "9F71C57A-214D-4B4D-A956-3B8F1C0FEA05";
shapes = (
{
ref = U;
},
{
closed = 1;
nodes = (
(318,-166,o),
(361,-156,c),
(361,-105,l),
(335,-111,o),
(287,-118,o),
(287,-84,cs),
(287,-61,o),
(316,-23,o),
(359,-10,c),
(359,-6,l),
(312,-6,l),
(312,-18,l),
(296,-23,o),
(237,-50,o),
(237,-98,cs),
(237,-164,o)
);
}
);
width = 613;
},
{
layerId = "13870E78-3F0A-41D5-8A20-B477F2D0CF38";
shapes = (
{
ref = U;
},
{
closed = 1;
nodes = (
(365,-220,o),
(445,-211,c),
(445,-112,l),
(425,-115,o),
(348,-121,o),
(348,-91,cs),
(348,-61,o),
(377,-35,o),
(437,-8,c),
(437,0,l),
(346,-8,l),
(346,-33,l),
(295,-47,o),
(245,-75,o),
(245,-133,cs),
(245,-228,o)
);
}
);
width = 736;
},
{
layerId = "240BF9EB-FB0D-4A7D-9EDB-8E544078904A";
shapes = (
{
ref = U;
},
{
closed = 1;
nodes = (
(232,-178,o),
(289,-143,c),
(289,-58,l),
(266,-66,o),
(223,-75,o),
(223,-49,cs),
(223,-35,o),
(245,-19,o),
(290,-2,c),
(290,2,l),
(237,-5,l),
(237,-19,l),
(176,-13,o),
(131,-38,o),
(131,-85,cs),
(131,-161,o)
);
}
);
width = 427;
},
{
layerId = "6FE9FA8B-990F-4278-A730-82C9E963D7AD";
shapes = (
{
ref = U;
},
{
closed = 1;
nodes = (
(167,-168,o),
(215,-147,c),
(215,-97,l),
(190,-107,o),
(152,-113,o),
(152,-83,cs),
(152,-64,o),
(170,-32,o),
(220,-5,c),
(220,0,l),
(178,-11,l),
(178,-22,l),
(170,-24,o),
(110,-41,o),
(110,-100,cs),
(110,-158,o)
);
}
);
width = 336;
},
{
layerId = "C665A7CC-B666-4F49-BFE5-A31D06CCF39B";
shapes = (
{
ref = U;
},
{
closed = 1;
nodes = (
(273,-184,o),
(341,-164,c),
(341,-76,l),
(320,-82,o),
(262,-87,o),
(262,-61,cs),
(262,-34,o),
(295,-17,o),
(350,-2,c),
(350,4,l),
(258,-3,l),
(258,-24,l),
(211,-27,o),
(167,-49,o),
(167,-100,cs),
(167,-181,o)
);
}
);
width = 539;
},
{
layerId = "5F0F23F3-8289-4A13-984A-DE8C8AB95B73";
shapes = (
{
ref = U;
},
{
closed = 1;
nodes = (
(246,-177,o),
(295,-168,c),
(295,-113,l),
(271,-117,o),
(224,-125,o),
(224,-99,cs),
(224,-81,o),
(246,-43,o),
(301,-6,c),
(301,-2,l),
(260,-9,l),
(260,-22,l),
(223,-44,o),
(176,-75,o),
(176,-121,cs),
(176,-178,o)
);
}
);
width = 497;
},
{
layerId = "FA4F2279-C2CB-4D21-8447-C28A701A0705";
shapes = (
{
ref = U;
},
{
closed = 1;
nodes = (
(366,-183,o),
(414,-175,c),
(414,-124,l),
(386,-128,o),
(341,-136,o),
(341,-103,cs),
(341,-77,o),
(369,-35,o),
(413,-10,c),
(413,-6,l),
(376,-8,l),
(376,-21,l),
(348,-33,o),
(288,-64,o),
(288,-121,cs),
(288,-187,o)
);
}
);
width = 706;
}
);
metricLeft = "=U";
metricRight = "=U";
unicode = 370;
},
{
color = 4;
glyphname = V;
kernLeft = KO_V;
kernRight = KO_V;
lastChange = "2023-07-05 06:04:28 +0000";
layers = (
{
anchors = (
{
name = bottom;
pos = (222,0);
},
{
name = top;
pos = (222,660);
}
);
layerId = "240BF9EB-FB0D-4A7D-9EDB-8E544078904A";
metricLeft = "=+4";
shapes = (
{
closed = 1;
nodes = (
(327,0,l),
(440,660,l),
(281,660,l),
(224,134,l),
(217,134,l),
(168,660,l),
(4,660,l),
(109,0,l)
);
}
);
userData = {
com.schriftgestaltung.Glyphs.lastChange = "2020-05-30 06:58:04 +0000";
};
width = 444;
},
{
anchors = (
{
name = bottom;
pos = (255,0);
},
{
name = top;
pos = (255,660);
}
);
layerId = "C665A7CC-B666-4F49-BFE5-A31D06CCF39B";
shapes = (
{
closed = 1;
nodes = (
(357,0,l),
(493,660,l),
(334,660,l),
(261,120,l),
(247,120,l),
(171,660,l),
(9,660,l),
(144,0,l)
);
}
);
userData = {
com.schriftgestaltung.Glyphs.lastChange = "2020-05-30 06:58:04 +0000";
};
width = 502;
},
{
anchors = (
{
name = bottom;
pos = (226,0);
},
{
name = top;
pos = (226,660);
}
);
layerId = "5F0F23F3-8289-4A13-984A-DE8C8AB95B73";
shapes = (
{
closed = 1;
nodes = (
(271,0,l),
(421,660,l),
(363,660,l),
(230,54,l),
(221,54,l),
(85,660,l),
(28,660,l),
(177,0,l)
);
}
);
userData = {
com.schriftgestaltung.Glyphs.lastChange = "2020-05-30 06:58:04 +0000";
};
width = 449;
},
{
anchors = (
{
name = bottom;
pos = (173,0);
},
{
name = top;
pos = (173,660);
}
);
layerId = "6FE9FA8B-990F-4278-A730-82C9E963D7AD";
name = "Display Compressed Thin";
shapes = (
{
closed = 1;
nodes = (
(217,0,l),
(337,660,l),
(278,660,l),
(176,53,l),
(172,53,l),
(67,660,l),
(9,660,l),
(129,0,l)
);
}
);
userData = {
com.schriftgestaltung.Glyphs.lastChange = "2020-05-30 06:58:04 +0000";
};
width = 346;
},
{
anchors = (
{
name = bottom;
pos = (316,0);
},
{
name = top;
pos = (316,660);
}
);
layerId = "C1A2FA2E-3F34-46D0-916F-7EEB4942386E";
shapes = (
{
closed = 1;
nodes = (
(420,0,l),
(628,660,l),
(452,660,l),
(319,134,l),
(316,134,l),
(180,660,l),
(4,660,l),
(212,0,l)
);
}
);
userData = {
com.schriftgestaltung.Glyphs.lastChange = "2020-05-30 06:58:04 +0000";
};
width = 632;
},
{
anchors = (
{
name = bottom;
pos = (290,0);
},
{
name = top;
pos = (290,660);
}
);
layerId = "9F71C57A-214D-4B4D-A956-3B8F1C0FEA05";
shapes = (
{
closed = 1;
nodes = (
(328,0,l),
(568,660,l),
(506,660,l),
(292,53,l),
(289,53,l),
(75,660,l),
(12,660,l),
(253,0,l)
);
}
);
userData = {
com.schriftgestaltung.Glyphs.lastChange = "2020-05-30 06:58:04 +0000";
};
width = 580;
},
{
anchors = (
{
name = bottom;
pos = (342,0);
},
{
name = top;
pos = (342,660);
}
);
layerId = "13870E78-3F0A-41D5-8A20-B477F2D0CF38";
shapes = (
{
closed = 1;
nodes = (
(454,0,l),
(669,660,l),
(495,660,l),
(350,135,l),
(335,135,l),
(190,660,l),
(14,660,l),
(229,0,l)
);
}
);
userData = {
com.schriftgestaltung.Glyphs.lastChange = "2020-05-30 06:58:04 +0000";
};
width = 683;
},
{
anchors = (
{
name = bottom;
pos = (317,0);
},
{
name = top;
pos = (317,660);
}
);
layerId = "FA4F2279-C2CB-4D21-8447-C28A701A0705";
metricLeft = "=+38";
shapes = (
{
closed = 1;
nodes = (
(357,0,l),
(595,660,l),
(534,660,l),
(320,55,l),
(312,55,l),
(100,660,l),
(38,660,l),
(273,0,l)
);
}
);
userData = {
com.schriftgestaltung.Glyphs.lastChange = "2020-05-30 06:58:04 +0000";
};
width = 633;
}
);
metricLeft = "=A";
metricRight = "=|";
unicode = 86;
userData = {
KernOnName = V;
};
},
{
color = 4;
glyphname = W;
kernLeft = KO_W;
kernRight = KO_W;
lastChange = "2023-07-05 06:04:28 +0000";
layers = (
{
anchors = (
{
name = bottom;
pos = (518,0);
},
{
name = top;
pos = (329,660);
}
);
layerId = "5F0F23F3-8289-4A13-984A-DE8C8AB95B73";
shapes = (
{
closed = 1;
nodes = (
(233,0,l),
(328,606,l),
(334,606,l),
(428,0,l),
(516,0,l),
(625,660,l),
(566,660,l),
(478,53,l),
(470,53,l),
(375,660,l),
(287,660,l),
(191,53,l),
(183,53,l),
(93,660,l),
(34,660,l),
(143,0,l)
);
}
);
userData = {
com.schriftgestaltung.Glyphs.lastChange = "2020-05-30 06:58:04 +0000";
};
width = 659;
},
{
anchors = (
{
name = bottom;
pos = (454,0);
},
{
name = top;
pos = (334,660);
}
);
layerId = "240BF9EB-FB0D-4A7D-9EDB-8E544078904A";
shapes = (
{
closed = 1;
nodes = (
(297,0,l),
(332,528,l),
(335,528,l),
(367,0,l),
(566,0,l),
(661,660,l),
(502,660,l),
(467,135,l),
(462,135,l),
(425,660,l),
(248,660,l),
(214,135,l),
(208,135,l),
(173,660,l),
(4,660,l),
(96,0,l)
);
}
);
userData = {
com.schriftgestaltung.Glyphs.lastChange = "2020-05-30 06:58:04 +0000";
};
width = 665;
},
{
anchors = (
{
name = bottom;
pos = (518,0);
},
{
name = top;
pos = (386,660);
}
);
layerId = "C665A7CC-B666-4F49-BFE5-A31D06CCF39B";
name = "Small Compressed Black";
shapes = (
{
closed = 1;
nodes = (
(330,0,l),
(384,532,l),
(397,532,l),
(441,0,l),
(652,0,l),
(759,660,l),
(605,660,l),
(545,130,l),
(531,130,l),
(484,660,l),
(299,660,l),
(252,130,l),
(238,130,l),
(182,660,l),
(10,660,l),
(118,0,l)
);
}
);
userData = {
com.schriftgestaltung.Glyphs.lastChange = "2020-05-30 06:58:04 +0000";
};
width = 769;
},
{
anchors = (
{
name = bottom;
pos = (432,0);
},
{
name = top;
pos = (275,660);
}
);
layerId = "6FE9FA8B-990F-4278-A730-82C9E963D7AD";
name = "Display Compressed Thin";
shapes = (
{
closed = 1;
nodes = (
(197,0,l),
(271,606,l),
(275,606,l),
(347,0,l),
(438,0,l),
(534,660,l),
(477,660,l),
(396,53,l),
(393,53,l),
(317,660,l),
(230,660,l),
(152,53,l),
(149,53,l),
(70,660,l),
(11,660,l),
(106,0,l)
);
}
);
userData = {
com.schriftgestaltung.Glyphs.lastChange = "2020-05-30 06:58:04 +0000";
};
width = 545;
},
{
anchors = (
{
name = bottom;
pos = (459,0);
},
{
name = top;
pos = (459,660);
}
);
layerId = "C1A2FA2E-3F34-46D0-916F-7EEB4942386E";
name = "Display Black";
shapes = (
{
closed = 1;
nodes = (
(370,0,l),
(456,496,l),
(459,496,l),
(543,0,l),
(769,0,l),
(903,660,l),
(737,660,l),
(658,154,l),
(655,154,l),
(557,660,l),
(366,660,l),
(271,154,l),
(268,154,l),
(187,660,l),
(12,660,l),
(146,0,l)
);
}
);
userData = {
com.schriftgestaltung.Glyphs.lastChange = "2020-05-30 06:58:04 +0000";
};
width = 915;
},
{
anchors = (
{
name = bottom;
pos = (459,0);
},
{
name = top;
pos = (441,660);
}
);
layerId = "9F71C57A-214D-4B4D-A956-3B8F1C0FEA05";
shapes = (
{
closed = 1;
nodes = (
(284,0,l),
(437,590,l),
(439,590,l),
(596,0,l),
(672,0,l),
(862,660,l),
(802,660,l),
(636,53,l),
(635,53,l),
(476,660,l),
(402,660,l),
(246,53,l),
(244,53,l),
(76,660,l),
(16,660,l),
(206,0,l)
);
}
);
userData = {
com.schriftgestaltung.Glyphs.lastChange = "2020-05-30 06:58:04 +0000";
};
width = 878;
},
{
anchors = (
{
name = bottom;
pos = (551,0);
},
{
name = top;
pos = (504,660);
}
);
layerId = "13870E78-3F0A-41D5-8A20-B477F2D0CF38";
shapes = (
{
closed = 1;
nodes = (
(394,0,l),
(498,524,l),
(508,524,l),
(614,0,l),
(838,0,l),
(983,660,l),
(817,660,l),
(730,136,l),
(718,136,l),
(607,660,l),
(404,660,l),
(295,136,l),
(283,136,l),
(196,660,l),
(20,660,l),
(164,0,l)
);
}
);
userData = {
com.schriftgestaltung.Glyphs.lastChange = "2020-05-30 06:58:04 +0000";
};
width = 1003;
},
{
anchors = (
{
name = bottom;
pos = (499,0);
},
{
name = top;
pos = (457,660);
}
);
layerId = "FA4F2279-C2CB-4D21-8447-C28A701A0705";
shapes = (
{
closed = 1;
nodes = (
(303,0,l),
(453,603,l),
(461,603,l),
(605,0,l),
(691,0,l),
(872,660,l),
(811,660,l),
(652,57,l),
(644,57,l),
(499,660,l),
(414,660,l),
(264,57,l),
(256,57,l),
(102,660,l),
(42,660,l),
(217,0,l)
);
}
);
userData = {
com.schriftgestaltung.Glyphs.lastChange = "2020-05-30 06:58:04 +0000";
};
width = 914;
}
);
metricRight = "=|W";
unicode = 87;
userData = {
KernOnName = W;
};
},
{
color = 4;
glyphname = X;
kernLeft = KO_X;
kernRight = KO_X;
lastChange = "2023-07-05 06:04:28 +0000";
layers = (
{
anchors = (
{
name = bottom;
pos = (230,0);
},
{
name = top;
pos = (230,660);
}
);
layerId = "240BF9EB-FB0D-4A7D-9EDB-8E544078904A";
shapes = (
{
closed = 1;
nodes = (
(185,0,l),
(227,277,l),
(230,277,l),
(275,0,l),
(455,0,l),
(339,327,l),
(455,660,l),
(275,660,l),
(231,394,l),
(227,394,l),
(185,660,l),
(5,660,l),
(119,327,l),
(5,0,l)
);
}
);
userData = {
com.schriftgestaltung.Glyphs.lastChange = "2020-05-30 06:58:04 +0000";
com.typemytype.robofont.Image.Brightness = 0;
com.typemytype.robofont.Image.Contrast = 1;
com.typemytype.robofont.Image.Saturation = 1;
com.typemytype.robofont.Image.Sharpness = 0.4;
};
width = 460;
},
{
anchors = (
{
name = bottom;
pos = (170,0);
},
{
name = top;
pos = (170,660);
}
);
layerId = "6FE9FA8B-990F-4278-A730-82C9E963D7AD";
shapes = (
{
closed = 1;
nodes = (
(78,0,l),
(164,282,l),
(167,282,l),
(264,0,l),
(328,0,l),
(199,329,l),
(321,660,l),
(258,660,l),
(167,377,l),
(164,377,l),
(71,660,l),
(8,660,l),
(130,329,l),
(15,0,l)
);
}
);
userData = {
com.schriftgestaltung.Glyphs.lastChange = "2020-05-30 06:58:04 +0000";
com.typemytype.robofont.Image.Brightness = 0;
com.typemytype.robofont.Image.Contrast = 1;
com.typemytype.robofont.Image.Saturation = 1;
com.typemytype.robofont.Image.Sharpness = 0.4;
};
width = 336;
},
{
anchors = (
{
name = bottom;
pos = (269,0);
},
{
name = top;
pos = (269,660);
}
);
layerId = "C665A7CC-B666-4F49-BFE5-A31D06CCF39B";
shapes = (
{
closed = 1;
nodes = (
(199,0,l),
(259,255,l),
(277,255,l),
(340,0,l),
(534,0,l),
(364,333,l),
(534,660,l),
(339,660,l),
(277,409,l),
(259,409,l),
(198,660,l),
(4,660,l),
(173,333,l),
(4,0,l)
);
}
);
userData = {
com.schriftgestaltung.Glyphs.lastChange = "2020-05-30 06:58:04 +0000";
com.typemytype.robofont.Image.Brightness = 0;
com.typemytype.robofont.Image.Contrast = 1;
com.typemytype.robofont.Image.Saturation = 1;
com.typemytype.robofont.Image.Sharpness = 0.4;
};
width = 538;
},
{
anchors = (
{
name = bottom;
pos = (208,0);
},
{
name = top;
pos = (208,660);
}
);
layerId = "5F0F23F3-8289-4A13-984A-DE8C8AB95B73";
shapes = (
{
closed = 1;
nodes = (
(98,0,l),
(203,305,l),
(207,305,l),
(322,0,l),
(386,0,l),
(250,328,l),
(382,660,l),
(318,660,l),
(207,355,l),
(203,355,l),
(93,660,l),
(30,660,l),
(158,327,l),
(35,0,l)
);
}
);
userData = {
com.schriftgestaltung.Glyphs.lastChange = "2020-05-30 06:58:04 +0000";
com.typemytype.robofont.Image.Brightness = 0;
com.typemytype.robofont.Image.Contrast = 1;
com.typemytype.robofont.Image.Saturation = 1;
com.typemytype.robofont.Image.Sharpness = 0.4;
};
width = 416;
},
{
anchors = (
{
name = bottom;
pos = (312,0);
},
{
name = top;
pos = (312,660);
}
);
layerId = "C1A2FA2E-3F34-46D0-916F-7EEB4942386E";
name = "Display Black";
shapes = (
{
closed = 1;
nodes = (
(203,0,l),
(310,253,l),
(312,253,l),
(414,0,l),
(612,0,l),
(419,329,l),
(611,660,l),
(414,660,l),
(311,413,l),
(309,413,l),
(203,660,l),
(11,660,l),
(204,327,l),
(11,0,l)
);
}
);
userData = {
com.schriftgestaltung.Glyphs.lastChange = "2020-05-30 06:58:04 +0000";
com.typemytype.robofont.Image.Brightness = 0;
com.typemytype.robofont.Image.Contrast = 1;
com.typemytype.robofont.Image.Saturation = 1;
com.typemytype.robofont.Image.Sharpness = 0.4;
};
width = 623;
},
{
anchors = (
{
name = bottom;
pos = (267,0);
},
{
name = top;
pos = (267,660);
}
);
layerId = "9F71C57A-214D-4B4D-A956-3B8F1C0FEA05";
shapes = (
{
closed = 1;
nodes = (
(82,0,l),
(267,288,l),
(269,288,l),
(454,0,l),
(525,0,l),
(301,332,l),
(521,660,l),
(452,660,l),
(269,373,l),
(267,373,l),
(81,660,l),
(10,660,l),
(233,331,l),
(14,0,l)
);
}
);
userData = {
com.schriftgestaltung.Glyphs.lastChange = "2020-05-30 06:58:04 +0000";
com.typemytype.robofont.Image.Brightness = 0;
com.typemytype.robofont.Image.Contrast = 1;
com.typemytype.robofont.Image.Saturation = 1;
com.typemytype.robofont.Image.Sharpness = 0.4;
};
width = 535;
},
{
anchors = (
{
name = bottom;
pos = (361,0);
},
{
name = top;
pos = (361,660);
}
);
layerId = "13870E78-3F0A-41D5-8A20-B477F2D0CF38";
shapes = (
{
closed = 1;
nodes = (
(202,0,l),
(356,252,l),
(362,252,l),
(519,0,l),
(707,0,l),
(473,335,l),
(700,660,l),
(511,660,l),
(362,416,l),
(356,416,l),
(209,660,l),
(21,660,l),
(245,331,l),
(14,0,l)
);
}
);
userData = {
com.schriftgestaltung.Glyphs.lastChange = "2020-05-30 06:58:04 +0000";
com.typemytype.robofont.Image.Brightness = 0;
com.typemytype.robofont.Image.Contrast = 1;
com.typemytype.robofont.Image.Saturation = 1;
com.typemytype.robofont.Image.Sharpness = 0.4;
};
width = 721;
},
{
anchors = (
{
name = bottom;
pos = (293,0);
},
{
name = top;
pos = (293,660);
}
);
layerId = "FA4F2279-C2CB-4D21-8447-C28A701A0705";
shapes = (
{
closed = 1;
nodes = (
(113,0,l),
(289,289,l),
(293,289,l),
(479,0,l),
(547,0,l),
(326,329,l),
(543,660,l),
(475,660,l),
(294,371,l),
(289,371,l),
(108,660,l),
(40,660,l),
(259,329,l),
(46,0,l)
);
}
);
userData = {
com.schriftgestaltung.Glyphs.lastChange = "2020-05-30 06:58:04 +0000";
com.typemytype.robofont.Image.Brightness = 0;
com.typemytype.robofont.Image.Contrast = 1;
com.typemytype.robofont.Image.Saturation = 1;
com.typemytype.robofont.Image.Sharpness = 0.4;
};
width = 587;
}
);
metricRight = "=|X";
unicode = 88;
userData = {
KernOnName = X;
};
},
{
color = 4;
glyphname = Y;
kernLeft = KO_Y;
kernRight = KO_Y;
lastChange = "2023-07-05 06:04:28 +0000";
layers = (
{
anchors = (
{
name = bottom;
pos = (223,0);
},
{
name = top;
pos = (223,660);
},
{
name = topleft;
pos = (-76,660);
}
);
layerId = "240BF9EB-FB0D-4A7D-9EDB-8E544078904A";
shapes = (
{
closed = 1;
nodes = (
(304,0,l),
(304,221,l),
(443,660,l),
(278,660,l),
(230,354,l),
(226,354,l),
(180,660,l),
(2,660,l),
(142,221,l),
(142,0,l)
);
}
);
userData = {
com.schriftgestaltung.Glyphs.lastChange = "2020-05-30 06:58:04 +0000";
};
width = 445;
},
{
anchors = (
{
name = bottom;
pos = (150,0);
},
{
name = top;
pos = (150,660);
},
{
name = topleft;
pos = (-107,660);
}
);
layerId = "6FE9FA8B-990F-4278-A730-82C9E963D7AD";
shapes = (
{
closed = 1;
nodes = (
(178,0,l),
(178,229,l),
(295,660,l),
(235,660,l),
(153,306,l),
(149,306,l),
(63,660,l),
(4,660,l),
(122,229,l),
(122,0,l)
);
}
);
userData = {
com.schriftgestaltung.Glyphs.lastChange = "2020-05-30 06:58:04 +0000";
};
width = 299;
},
{
anchors = (
{
name = bottom;
pos = (278,0);
},
{
name = top;
pos = (278,660);
},
{
name = topleft;
pos = (-41,660);
}
);
layerId = "C665A7CC-B666-4F49-BFE5-A31D06CCF39B";
shapes = (
{
closed = 1;
nodes = (
(359,0,l),
(359,211,l),
(546,660,l),
(367,660,l),
(288,305,l),
(278,305,l),
(194,660,l),
(1,660,l),
(196,211,l),
(196,0,l)
);
}
);
userData = {
com.schriftgestaltung.Glyphs.lastChange = "2020-05-30 06:58:04 +0000";
};
width = 547;
},
{
anchors = (
{
name = bottom;
pos = (206,0);
},
{
name = top;
pos = (206,660);
},
{
name = topleft;
pos = (-70,660);
}
);
layerId = "5F0F23F3-8289-4A13-984A-DE8C8AB95B73";
shapes = (
{
closed = 1;
nodes = (
(234,0,l),
(234,206,l),
(388,660,l),
(327,660,l),
(209,271,l),
(205,271,l),
(81,660,l),
(21,660,l),
(177,209,l),
(177,0,l)
);
}
);
userData = {
com.schriftgestaltung.Glyphs.lastChange = "2020-05-30 06:58:04 +0000";
};
width = 409;
},
{
anchors = (
{
name = bottom;
pos = (298,0);
},
{
name = top;
pos = (298,660);
},
{
name = topleft;
pos = (7,660);
}
);
layerId = "C1A2FA2E-3F34-46D0-916F-7EEB4942386E";
shapes = (
{
closed = 1;
nodes = (
(379,0,l),
(379,220,l),
(593,660,l),
(403,660,l),
(300,366,l),
(298,366,l),
(194,660,l),
(2,660,l),
(217,220,l),
(217,0,l)
);
}
);
userData = {
com.schriftgestaltung.Glyphs.lastChange = "2020-05-30 06:58:04 +0000";
};
width = 595;
},
{
anchors = (
{
name = bottom;
pos = (258,0);
},
{
name = top;
pos = (258,660);
},
{
name = topleft;
pos = (12,660);
}
);
layerId = "9F71C57A-214D-4B4D-A956-3B8F1C0FEA05";
shapes = (
{
closed = 1;
nodes = (
(287,0,l),
(287,219,l),
(507,660,l),
(443,660,l),
(259,285,l),
(257,285,l),
(74,660,l),
(10,660,l),
(230,219,l),
(230,0,l)
);
}
);
userData = {
com.schriftgestaltung.Glyphs.lastChange = "2020-05-30 06:58:04 +0000";
};
width = 517;
},
{
anchors = (
{
name = bottom;
pos = (333,0);
},
{
name = top;
pos = (333,660);
},
{
name = topleft;
pos = (30,660);
}
);
layerId = "13870E78-3F0A-41D5-8A20-B477F2D0CF38";
shapes = (
{
closed = 1;
nodes = (
(414,0,l),
(414,205,l),
(660,660,l),
(468,660,l),
(336,347,l),
(330,347,l),
(198,660,l),
(4,660,l),
(252,203,l),
(252,0,l)
);
}
);
userData = {
com.schriftgestaltung.Glyphs.lastChange = "2020-05-30 06:58:04 +0000";
};
width = 664;
},
{
anchors = (
{
name = bottom;
pos = (270,0);
},
{
name = top;
pos = (270,660);
},
{
name = topleft;
pos = (11,660);
}
);
layerId = "FA4F2279-C2CB-4D21-8447-C28A701A0705";
shapes = (
{
closed = 1;
nodes = (
(298,0,l),
(298,218,l),
(521,660,l),
(457,660,l),
(272,280,l),
(268,280,l),
(81,660,l),
(18,660,l),
(241,218,l),
(241,0,l)
);
}
);
userData = {
com.schriftgestaltung.Glyphs.lastChange = "2020-05-30 06:58:04 +0000";
};
width = 539;
}
);
metricRight = "=|";
unicode = 89;
userData = {
KernOnName = Y;
};
},
{
color = 4;
glyphname = Z;
kernLeft = KO_Z;
kernRight = KO_Z;
lastChange = "2023-07-05 06:04:28 +0000";
layers = (
{
anchors = (
{
name = bottom;
pos = (176,0);
},
{
name = center;
pos = (176,330);
},
{
name = top;
pos = (176,660);
}
);
layerId = "240BF9EB-FB0D-4A7D-9EDB-8E544078904A";
shapes = (
{
closed = 1;
nodes = (
(337,0,l),
(337,125,l),
(169,125,l),
(169,129,l),
(334,539,l),
(334,660,l),
(14,660,l),
(14,535,l),
(178,535,l),
(178,532,l),
(14,121,l),
(14,0,l)
);
}
);
userData = {
com.schriftgestaltung.Glyphs.lastChange = "2020-05-30 06:58:04 +0000";
};
width = 351;
},
{
anchors = (
{
name = bottom;
pos = (143,0);
},
{
name = center;
pos = (143,330);
},
{
name = top;
pos = (143,660);
}
);
layerId = "6FE9FA8B-990F-4278-A730-82C9E963D7AD";
shapes = (
{
closed = 1;
nodes = (
(270,0,l),
(270,53,l),
(77,53,l),
(77,60,l),
(266,611,l),
(266,660,l),
(17,660,l),
(17,607,l),
(206,607,l),
(206,600,l),
(17,49,l),
(17,0,l)
);
}
);
userData = {
com.schriftgestaltung.Glyphs.lastChange = "2020-05-30 06:58:04 +0000";
};
width = 287;
},
{
anchors = (
{
name = bottom;
pos = (213,0);
},
{
name = center;
pos = (213,330);
},
{
name = top;
pos = (213,660);
}
);
layerId = "C665A7CC-B666-4F49-BFE5-A31D06CCF39B";
shapes = (
{
closed = 1;
nodes = (
(405,0,l),
(405,126,l),
(186,126,l),
(186,138,l),
(398,532,l),
(398,660,l),
(31,660,l),
(31,534,l),
(235,534,l),
(235,522,l),
(21,123,l),
(21,0,l)
);
}
);
userData = {
com.schriftgestaltung.Glyphs.lastChange = "2020-05-30 06:58:04 +0000";
};
width = 426;
},
{
anchors = (
{
name = bottom;
pos = (188,0);
},
{
name = center;
pos = (188,330);
},
{
name = top;
pos = (178,660);
}
);
layerId = "5F0F23F3-8289-4A13-984A-DE8C8AB95B73";
shapes = (
{
closed = 1;
nodes = (
(351,0,l),
(351,53,l),
(89,53,l),
(89,64,l),
(324,606,l),
(324,660,l),
(34,660,l),
(34,607,l),
(260,607,l),
(260,596,l),
(25,53,l),
(25,0,l)
);
}
);
userData = {
com.schriftgestaltung.Glyphs.lastChange = "2020-05-30 06:58:04 +0000";
};
width = 376;
},
{
anchors = (
{
name = bottom;
pos = (275,0);
},
{
name = center;
pos = (275,330);
},
{
name = top;
pos = (275,660);
}
);
layerId = "C1A2FA2E-3F34-46D0-916F-7EEB4942386E";
shapes = (
{
closed = 1;
nodes = (
(527,0,l),
(527,138,l),
(211,138,l),
(211,141,l),
(522,521,l),
(522,660,l),
(23,660,l),
(23,522,l),
(335,522,l),
(335,519,l),
(23,138,l),
(23,0,l)
);
}
);
userData = {
com.schriftgestaltung.Glyphs.lastChange = "2020-05-30 06:58:04 +0000";
};
width = 550;
},
{
anchors = (
{
name = bottom;
pos = (259,0);
},
{
name = center;
pos = (259,330);
},
{
name = top;
pos = (259,660);
}
);
layerId = "9F71C57A-214D-4B4D-A956-3B8F1C0FEA05";
shapes = (
{
closed = 1;
nodes = (
(495,0,l),
(495,53,l),
(94,53,l),
(94,56,l),
(484,611,l),
(484,660,l),
(35,660,l),
(35,607,l),
(413,607,l),
(413,604,l),
(23,49,l),
(23,0,l)
);
}
);
userData = {
com.schriftgestaltung.Glyphs.lastChange = "2020-05-30 06:58:04 +0000";
};
width = 518;
},
{
anchors = (
{
name = bottom;
pos = (289,0);
},
{
name = center;
pos = (289,330);
},
{
name = top;
pos = (289,660);
}
);
layerId = "13870E78-3F0A-41D5-8A20-B477F2D0CF38";
shapes = (
{
closed = 1;
nodes = (
(544,0,l),
(544,134,l),
(220,134,l),
(220,145,l),
(531,494,l),
(531,660,l),
(43,660,l),
(43,526,l),
(355,526,l),
(355,514,l),
(33,152,l),
(33,0,l)
);
}
);
userData = {
com.schriftgestaltung.Glyphs.lastChange = "2020-05-30 06:58:04 +0000";
};
width = 577;
},
{
anchors = (
{
name = bottom;
pos = (272,0);
},
{
name = center;
pos = (272,330);
},
{
name = top;
pos = (271,660);
}
);
layerId = "FA4F2279-C2CB-4D21-8447-C28A701A0705";
shapes = (
{
closed = 1;
nodes = (
(508,0,l),
(508,53,l),
(105,53,l),
(105,65,l),
(498,600,l),
(498,660,l),
(52,660,l),
(52,607,l),
(428,607,l),
(428,594,l),
(36,58,l),
(36,0,l)
);
}
);
userData = {
com.schriftgestaltung.Glyphs.lastChange = "2020-05-30 06:58:04 +0000";
};
width = 544;
}
);
metricRight = "=|Z";
unicode = 90;
userData = {
KernOnName = Z;
};
},
{
color = 4;
glyphname = a;
kernLeft = KO_a;
kernRight = KO_a;
lastChange = "2023-07-05 06:04:28 +0000";
layers = (
{
anchors = (
{
name = bottom;
pos = (234,0);
},
{
name = ogonek;
pos = (438,0);
},
{
name = top;
pos = (230,528);
}
);
layerId = "C665A7CC-B666-4F49-BFE5-A31D06CCF39B";
metricRight = "=n-15";
shapes = (
{
closed = 1;
nodes = (
(216,-13,o),
(249,28,o),
(262,115,c),
(283,115,l),
(288,74,o),
(293,44,o),
(306,0,c),
(438,0,l),
(428,45,o),
(420,125,o),
(420,177,cs),
(420,327,ls),
(420,467,o),
(373,542,o),
(232,542,cs),
(82,542,o),
(27,458,o),
(38,348,c),
(178,341,l),
(173,392,o),
(185,426,o),
(223,426,cs),
(257,426,o),
(269,399,o),
(269,371,cs),
(269,323,o),
(233,308,o),
(179,289,cs),
(105,263,o),
(20,230,o),
(20,126,cs),
(20,36,o),
(82,-13,o),
(152,-13,cs)
);
},
{
closed = 1;
nodes = (
(183,112,o),
(159,132,o),
(159,163,cs),
(159,224,o),
(250,229,o),
(303,272,c),
(268,284,l),
(268,159,l),
(261,137,o),
(247,112,o),
(213,112,cs)
);
}
);
userData = {
com.schriftgestaltung.Glyphs.lastChange = "2020-05-30 08:05:07 +0000";
com.typemytype.robofont.Image.Brightness = 0;
com.typemytype.robofont.Image.Contrast = 1;
com.typemytype.robofont.Image.Saturation = 1;
com.typemytype.robofont.Image.Sharpness = 0.4;
};
width = 466;
},
{
anchors = (
{
name = bottom;
pos = (260,0);
},
{
name = ogonek;
pos = (439,0);
},
{
name = top;
pos = (248,510);
}
);
layerId = "9F71C57A-214D-4B4D-A956-3B8F1C0FEA05";
name = "Display Thin";
shapes = (
{
closed = 1;
nodes = (
(294,-13,o),
(371,76,o),
(389,194,c),
(398,194,l),
(392,126,o),
(387,67,o),
(381,0,c),
(439,0,l),
(438,80,o),
(437,162,o),
(436,242,c),
(436,342,ls),
(436,471,o),
(345,524,o),
(248,524,cs),
(160,524,o),
(67,478,o),
(48,356,c),
(103,343,l),
(113,433,o),
(183,470,o),
(250,470,cs),
(323,470,o),
(381,425,o),
(381,347,cs),
(381,310,o),
(368,307,o),
(250,290,cs),
(122,271,o),
(31,241,o),
(31,127,cs),
(31,31,o),
(96,-13,o),
(178,-13,cs)
);
},
{
closed = 1;
nodes = (
(119,41,o),
(89,77,o),
(89,129,cs),
(89,284,o),
(356,225,o),
(408,294,c),
(382,283,l),
(381,261,ls),
(375,133,o),
(284,41,o),
(182,41,cs)
);
}
);
userData = {
com.schriftgestaltung.Glyphs.lastChange = "2020-05-30 08:05:07 +0000";
com.typemytype.robofont.Image.Brightness = 0;
com.typemytype.robofont.Image.Contrast = 1;
com.typemytype.robofont.Image.Saturation = 1;
com.typemytype.robofont.Image.Sharpness = 0.4;
};
width = 484;
},
{
anchors = (
{
name = bottom;
pos = (282,0);
},
{
name = ogonek;
pos = (513,0);
},
{
name = top;
pos = (283,528);
}
);
layerId = "C1A2FA2E-3F34-46D0-916F-7EEB4942386E";
metricRight = "=n-1";
name = "Big Bold";
shapes = (
{
closed = 1;
nodes = (
(282,-14,o),
(358,60,o),
(367,151,c),
(373,151,l),
(373,96,o),
(373,48,o),
(373,0,c),
(513,0,l),
(513,66,o),
(513,133,o),
(513,199,c),
(513,293,ls),
(513,451,o),
(441,542,o),
(283,542,cs),
(169,542,o),
(34,497,o),
(40,329,c),
(184,319,l),
(181,395,o),
(233,414,o),
(277,414,cs),
(323,414,o),
(355,393,o),
(355,355,cs),
(355,326,o),
(335,322,o),
(232,303,cs),
(132,285,o),
(17,260,o),
(17,130,cs),
(17,24,o),
(95,-14,o),
(175,-14,cs)
);
},
{
closed = 1;
nodes = (
(207,104,o),
(179,122,o),
(179,157,cs),
(179,243,o),
(348,212,o),
(382,266,c),
(355,263,l),
(355,239,ls),
(355,134,o),
(288,104,o),
(242,104,cs)
);
}
);
userData = {
com.schriftgestaltung.Glyphs.lastChange = "2020-05-30 08:05:07 +0000";
com.typemytype.robofont.Image.Brightness = 0;
com.typemytype.robofont.Image.Contrast = 1;
com.typemytype.robofont.Image.Saturation = 1;
com.typemytype.robofont.Image.Sharpness = 0.4;
};
width = 543;
},
{
anchors = (
{
name = bottom;
pos = (306,0);
},
{
name = ogonek;
pos = (551,0);
},
{
name = top;
pos = (304,526);
}
);
layerId = "13870E78-3F0A-41D5-8A20-B477F2D0CF38";
metricRight = "=n-10";
name = "12pt ExtraBold";
shapes = (
{
closed = 1;
nodes = (
(279,-14,o),
(347,44,o),
(375,121,c),
(395,121,l),
(398,75,o),
(403,30,o),
(409,0,c),
(551,0,l),
(543,73,o),
(539,146,o),
(539,219,cs),
(539,300,ls),
(539,467,o),
(468,542,o),
(309,542,cs),
(177,542,o),
(86,491,o),
(49,379,c),
(191,336,l),
(207,389,o),
(249,421,o),
(305,421,cs),
(358,421,o),
(381,393,o),
(381,360,cs),
(381,322,o),
(351,316,o),
(293,307,cs),
(134,282,o),
(36,257,o),
(36,136,cs),
(36,40,o),
(97,-14,o),
(186,-14,cs)
);
},
{
closed = 1;
nodes = (
(219,100,o),
(191,125,o),
(191,162,cs),
(191,245,o),
(327,214,o),
(403,264,c),
(382,269,l),
(384,189,l),
(362,135,o),
(307,100,o),
(259,100,cs)
);
}
);
userData = {
com.schriftgestaltung.Glyphs.lastChange = "2020-05-30 08:05:07 +0000";
com.typemytype.robofont.Image.Brightness = 0;
com.typemytype.robofont.Image.Contrast = 1;
com.typemytype.robofont.Image.Saturation = 1;
com.typemytype.robofont.Image.Sharpness = 0.4;
};
width = 596;
},
{
anchors = (
{
name = bottom;
pos = (281,0);
},
{
name = ogonek;
pos = (468,0);
},
{
name = top;
pos = (275,512);
}
);
layerId = "FA4F2279-C2CB-4D21-8447-C28A701A0705";
metricRight = "=n-8";
name = "12pt ExtraLight ";
shapes = (
{
closed = 1;
nodes = (
(310,-12,o),
(366,57,o),
(396,130,c),
(406,130,l),
(407,88,o),
(409,48,o),
(413,0,c),
(468,0,l),
(461,57,o),
(456,146,o),
(456,204,cs),
(456,336,ls),
(456,466,o),
(396,524,o),
(278,524,cs),
(154,524,o),
(81,458,o),
(68,371,c),
(122,350,l),
(133,447,o),
(216,471,o),
(276,471,cs),
(361,471,o),
(399,424,o),
(399,367,cs),
(399,315,o),
(367,311,o),
(285,301,cs),
(106,279,o),
(55,223,o),
(55,134,cs),
(55,33,o),
(121,-12,o),
(205,-12,cs)
);
},
{
closed = 1;
nodes = (
(152,41,o),
(112,71,o),
(112,132,cs),
(112,286,o),
(371,227,o),
(430,299,c),
(400,304,l),
(400,192,l),
(345,77,o),
(269,41,o),
(209,41,cs)
);
}
);
userData = {
com.schriftgestaltung.Glyphs.lastChange = "2020-05-30 08:05:07 +0000";
com.typemytype.robofont.Image.Brightness = 0;
com.typemytype.robofont.Image.Contrast = 1;
com.typemytype.robofont.Image.Saturation = 1;
com.typemytype.robofont.Image.Sharpness = 0.4;
};
width = 540;
},
{
anchors = (
{
name = bottom;
pos = (208,0);
},
{
name = ogonek;
pos = (382,0);
},
{
name = top;
pos = (205,528);
}
);
layerId = "240BF9EB-FB0D-4A7D-9EDB-8E544078904A";
name = "96pt Condensed ExtraBold";
shapes = (
{
closed = 1;
nodes = (
(185,-12,o),
(232,39,o),
(240,135,c),
(248,135,l),
(248,90,o),
(248,45,o),
(248,0,c),
(382,0,l),
(382,64,o),
(382,128,o),
(382,192,c),
(382,319,ls),
(382,472,o),
(321,540,o),
(205,540,cs),
(78,540,o),
(12,463,o),
(19,321,c),
(169,305,l),
(161,382,o),
(171,420,o),
(199,420,cs),
(219,420,o),
(230,401,o),
(230,364,cs),
(230,324,o),
(218,306,o),
(168,288,cs),
(108,267,o),
(9,232,o),
(9,113,cs),
(9,34,o),
(54,-12,o),
(118,-12,cs)
);
},
{
closed = 1;
nodes = (
(173,112,o),
(158,123,o),
(158,159,cs),
(158,228,o),
(215,223,o),
(249,272,c),
(228,256,l),
(228,185,ls),
(228,149,o),
(215,112,o),
(188,112,cs)
);
}
);
userData = {
com.schriftgestaltung.Glyphs.lastChange = "2020-05-30 08:05:07 +0000";
com.typemytype.robofont.Image.Brightness = 0;
com.typemytype.robofont.Image.Contrast = 1;
com.typemytype.robofont.Image.Saturation = 1;
com.typemytype.robofont.Image.Sharpness = 0.4;
};
width = 400;
},
{
anchors = (
{
name = bottom;
pos = (140,0);
},
{
name = ogonek;
pos = (250,0);
},
{
name = top;
pos = (142,528);
}
);
layerId = "6FE9FA8B-990F-4278-A730-82C9E963D7AD";
metricRight = "=n-2";
name = "96pt Condensed ExtraLight";
shapes = (
{
closed = 1;
nodes = (
(151,-10,o),
(184,49,o),
(201,192,c),
(209,192,l),
(203,128,o),
(198,64,o),
(192,0,c),
(250,0,l),
(249,83,o),
(248,168,o),
(247,251,c),
(247,367,ls),
(247,478,o),
(212,537,o),
(142,537,cs),
(60,537,o),
(21,466,o),
(32,340,c),
(87,332,l),
(77,429,o),
(95,484,o),
(138,484,cs),
(174,484,o),
(192,449,o),
(192,378,cs),
(192,338,o),
(186,331,o),
(125,289,cs),
(67,249,o),
(17,213,o),
(17,117,cs),
(17,39,o),
(51,-10,o),
(102,-10,cs)
);
},
{
closed = 1;
nodes = (
(93,41,o),
(74,60,o),
(74,113,cs),
(74,245,o),
(193,262,o),
(224,317,c),
(191,298,l),
(191,271,ls),
(191,181,o),
(160,41,o),
(111,41,cs)
);
}
);
userData = {
com.schriftgestaltung.Glyphs.lastChange = "2020-05-30 08:05:07 +0000";
com.typemytype.robofont.Image.Brightness = 0;
com.typemytype.robofont.Image.Contrast = 1;
com.typemytype.robofont.Image.Saturation = 1;
com.typemytype.robofont.Image.Sharpness = 0.4;
};
width = 280;
},
{
anchors = (
{
name = bottom;
pos = (199,0);
},
{
name = ogonek;
pos = (339,0);
},
{
name = top;
pos = (195,528);
}
);
layerId = "5F0F23F3-8289-4A13-984A-DE8C8AB95B73";
metricRight = "=n-12";
name = "12pt Condensed ExtraLight";
shapes = (
{
closed = 1;
nodes = (
(203,-10,o),
(249,36,o),
(273,134,c),
(283,134,l),
(283,93,o),
(284,41,o),
(286,0,c),
(339,0,l),
(334,62,o),
(328,162,o),
(328,215,cs),
(328,371,ls),
(328,482,o),
(292,540,o),
(201,540,cs),
(105,540,o),
(48,476,o),
(56,366,c),
(113,358,l),
(104,440,o),
(136,486,o),
(197,486,cs),
(244,486,o),
(272,459,o),
(272,407,cs),
(272,341,o),
(227,324,o),
(180,301,cs),
(82,253,o),
(41,209,o),
(41,123,cs),
(41,22,o),
(99,-10,o),
(146,-10,cs)
);
},
{
closed = 1;
nodes = (
(121,44,o),
(99,69,o),
(99,120,cs),
(99,268,o),
(283,257,o),
(301,341,c),
(273,318,l),
(273,204,l),
(242,96,o),
(204,44,o),
(156,44,cs)
);
}
);
userData = {
com.schriftgestaltung.Glyphs.lastChange = "2020-05-30 08:05:07 +0000";
com.typemytype.robofont.Image.Brightness = 0;
com.typemytype.robofont.Image.Contrast = 1;
com.typemytype.robofont.Image.Saturation = 1;
com.typemytype.robofont.Image.Sharpness = 0.4;
};
width = 395;
}
);
metricRight = "=n";
unicode = 97;
userData = {
KernOnName = a;
};
},
{
glyphname = ae;
kernLeft = KO_a;
kernRight = KO_e;
lastChange = "2023-05-24 16:21:51 +0000";
layers = (
{
anchors = (
{
name = bottom;
pos = (400,0);
},
{
name = top;
pos = (400,510);
}
);
layerId = "9F71C57A-214D-4B4D-A956-3B8F1C0FEA05";
shapes = (
{
closed = 1;
nodes = (
(296,-13,o),
(371,76,o),
(381,214,c),
(390,214,l),
(390,67,o),
(478,-13,o),
(586,-13,cs),
(690,-13,o),
(771,62,o),
(771,183,c),
(717,189,l),
(722,146,o),
(697,40,o),
(586,40,cs),
(482,40,o),
(424,133,o),
(424,259,cs),
(424,380,o),
(478,472,o),
(568,472,cs),
(652,472,o),
(701,393,o),
(701,305,c),
(725,324,l),
(393,317,l),
(392,268,l),
(759,276,l),
(764,432,o),
(679,527,o),
(570,527,cs),
(498,527,o),
(409,485,o),
(400,353,c),
(392,353,l),
(392,495,o),
(304,527,o),
(234,527,cs),
(149,527,o),
(66,475,o),
(48,356,c),
(103,343,l),
(113,434,o),
(178,474,o),
(236,474,cs),
(297,474,o),
(348,429,o),
(348,341,cs),
(348,303,o),
(339,308,o),
(243,292,cs),
(133,274,o),
(31,252,o),
(31,129,cs),
(31,31,o),
(96,-13,o),
(178,-13,cs)
);
},
{
closed = 1;
nodes = (
(119,41,o),
(89,76,o),
(89,132,cs),
(89,268,o),
(272,235,o),
(358,278,c),
(351,296,l),
(348,258,ls),
(338,130,o),
(285,41,o),
(183,41,cs)
);
}
);
width = 796;
},
{
anchors = (
{
name = bottom;
pos = (469,0);
},
{
name = top;
pos = (469,528);
}
);
layerId = "13870E78-3F0A-41D5-8A20-B477F2D0CF38";
shapes = (
{
closed = 1;
nodes = (
(283,-15,o),
(383,35,o),
(422,146,c),
(439,146,l),
(470,35,o),
(560,-16,o),
(675,-16,cs),
(806,-16,o),
(888,49,o),
(907,147,c),
(767,178,l),
(756,137,o),
(729,99,o),
(668,99,cs),
(602,99,o),
(548,145,o),
(548,256,cs),
(548,362,o),
(597,421,o),
(660,421,cs),
(722,421,o),
(786,361,o),
(753,242,c),
(834,316,l),
(499,313,l),
(499,229,l),
(903,232,l),
(919,426,o),
(820,545,o),
(673,545,cs),
(574,545,o),
(481,491,o),
(475,362,c),
(459,362,l),
(459,488,o),
(397,544,o),
(276,544,cs),
(171,544,o),
(83,490,o),
(49,380,c),
(191,337,l),
(206,388,o),
(247,421,o),
(298,421,cs),
(343,421,o),
(355,394,o),
(355,362,cs),
(355,324,o),
(336,316,o),
(285,308,cs),
(191,293,o),
(36,280,o),
(36,132,cs),
(36,43,o),
(92,-15,o),
(191,-15,cs)
);
},
{
closed = 1;
nodes = (
(220,99,o),
(191,123,o),
(191,163,cs),
(191,255,o),
(340,208,o),
(420,286,c),
(375,327,l),
(378,170,l),
(356,135,o),
(308,99,o),
(259,99,cs)
);
}
);
width = 939;
},
{
anchors = (
{
name = bottom;
pos = (316,0);
},
{
name = top;
pos = (316,528);
}
);
layerId = "240BF9EB-FB0D-4A7D-9EDB-8E544078904A";
shapes = (
{
closed = 1;
nodes = (
(210,-12,o),
(293,27,o),
(296,176,c),
(301,176,l),
(314,40,o),
(362,-12,o),
(456,-12,cs),
(584,-12,o),
(626,83,o),
(612,198,c),
(472,211,l),
(477,168,o),
(477,102,o),
(444,102,cs),
(416,102,o),
(403,148,o),
(403,275,cs),
(403,365,o),
(410,420,o),
(439,420,cs),
(463,420,o),
(471,383,o),
(465,291,c),
(535,319,l),
(358,314,l),
(358,241,l),
(607,251,l),
(629,403,o),
(590,540,o),
(459,540,cs),
(396,540,o),
(325,508,o),
(325,379,c),
(319,379,l),
(319,507,o),
(249,540,o),
(184,540,cs),
(101,540,o),
(19,486,o),
(19,321,c),
(159,305,l),
(159,402,o),
(179,420,o),
(201,420,cs),
(224,420,o),
(239,399,o),
(239,364,cs),
(239,310,o),
(203,297,o),
(148,278,cs),
(81,255,o),
(9,221,o),
(9,115,cs),
(9,33,o),
(48,-12,o),
(132,-12,cs)
);
},
{
closed = 1;
nodes = (
(173,112,o),
(158,123,o),
(158,158,cs),
(158,239,o),
(240,219,o),
(266,294,c),
(236,319,l),
(236,185,ls),
(236,149,o),
(224,112,o),
(191,112,cs)
);
}
);
width = 628;
},
{
anchors = (
{
name = bottom;
pos = (217,0);
},
{
name = top;
pos = (217,528);
}
);
layerId = "6FE9FA8B-990F-4278-A730-82C9E963D7AD";
shapes = (
{
closed = 1;
nodes = (
(144,-10,o),
(182,38,o),
(196,154,c),
(201,154,l),
(204,59,o),
(228,-10,o),
(308,-10,cs),
(412,-10,o),
(420,105,o),
(410,197,c),
(355,205,l),
(364,115,o),
(357,44,o),
(306,44,cs),
(256,44,o),
(246,115,o),
(246,258,cs),
(246,382,o),
(254,483,o),
(309,483,cs),
(356,483,o),
(363,409,o),
(354,294,c),
(381,323,l),
(221,320,l),
(221,276,l),
(408,280,l),
(418,404,o),
(414,537,o),
(314,537,cs),
(265,537,o),
(233,506,o),
(225,421,c),
(221,421,l),
(217,511,o),
(182,537,o),
(139,537,cs),
(85,537,o),
(18,499,o),
(32,340,c),
(87,332,l),
(74,467,o),
(114,484,o),
(138,484,cs),
(185,484,o),
(192,424,o),
(192,378,cs),
(192,338,o),
(187,333,o),
(128,292,cs),
(63,247,o),
(17,209,o),
(17,116,cs),
(17,23,o),
(64,-10,o),
(101,-10,cs)
);
},
{
closed = 1;
nodes = (
(93,41,o),
(74,60,o),
(74,113,cs),
(74,223,o),
(158,254,o),
(202,292,c),
(191,309,l),
(191,271,ls),
(191,180,o),
(158,41,o),
(110,41,cs)
);
}
);
width = 434;
},
{
anchors = (
{
name = bottom;
pos = (357,0);
},
{
name = top;
pos = (357,528);
}
);
layerId = "C665A7CC-B666-4F49-BFE5-A31D06CCF39B";
shapes = (
{
closed = 1;
nodes = (
(216,-13,o),
(276,28,o),
(300,115,c),
(320,115,l),
(347,38,o),
(398,-16,o),
(502,-16,cs),
(660,-16,o),
(691,95,o),
(682,168,c),
(546,178,l),
(548,122,o),
(526,96,o),
(495,96,cs),
(450,96,o),
(426,155,o),
(426,269,cs),
(426,381,o),
(449,427,o),
(489,427,cs),
(522,427,o),
(549,398,o),
(539,282,c),
(610,312,l),
(387,306,l),
(387,234,l),
(676,242,l),
(695,399,o),
(643,545,o),
(503,545,cs),
(435,545,o),
(374,498,o),
(370,413,c),
(352,413,l),
(348,506,o),
(302,545,o),
(216,545,cs),
(83,545,o),
(25,451,o),
(38,348,c),
(178,341,l),
(173,395,o),
(185,429,o),
(222,429,cs),
(254,429,o),
(267,400,o),
(267,370,cs),
(267,318,o),
(231,306,o),
(180,289,cs),
(98,262,o),
(20,227,o),
(20,126,cs),
(20,36,o),
(82,-13,o),
(152,-13,cs)
);
},
{
closed = 1;
nodes = (
(183,112,o),
(159,132,o),
(159,163,cs),
(159,226,o),
(257,228,o),
(320,280,c),
(266,319,l),
(266,159,l),
(258,128,o),
(240,112,o),
(213,112,cs)
);
}
);
width = 709;
},
{
anchors = (
{
name = bottom;
pos = (311,0);
},
{
name = top;
pos = (311,528);
}
);
layerId = "5F0F23F3-8289-4A13-984A-DE8C8AB95B73";
shapes = (
{
closed = 1;
nodes = (
(203,-10,o),
(249,36,o),
(273,134,c),
(286,134,l),
(303,55,o),
(341,-11,o),
(436,-11,cs),
(557,-11,o),
(590,100,o),
(586,172,c),
(531,174,l),
(535,86,o),
(492,41,o),
(435,41,cs),
(356,41,o),
(326,124,o),
(326,258,cs),
(326,403,o),
(360,486,o),
(429,486,cs),
(496,486,o),
(527,408,o),
(522,293,c),
(548,319,l),
(310,313,l),
(310,267,l),
(578,274,l),
(584,435,o),
(537,540,o),
(429,540,cs),
(375,540,o),
(322,510,o),
(317,416,c),
(306,416,l),
(299,512,o),
(258,540,o),
(199,540,cs),
(126,540,o),
(49,496,o),
(56,366,c),
(113,358,l),
(101,468,o),
(163,486,o),
(196,486,cs),
(261,486,o),
(272,416,o),
(272,393,cs),
(272,343,o),
(226,323,o),
(180,302,cs),
(99,264,o),
(41,222,o),
(41,121,cs),
(41,22,o),
(98,-10,o),
(146,-10,cs)
);
},
{
closed = 1;
nodes = (
(121,41,o),
(100,69,o),
(100,119,cs),
(100,246,o),
(230,256,o),
(283,309,c),
(273,325,l),
(273,204,l),
(242,96,o),
(204,41,o),
(156,41,cs)
);
}
);
width = 624;
},
{
anchors = (
{
name = bottom;
pos = (430,0);
},
{
name = top;
pos = (430,528);
}
);
layerId = "C1A2FA2E-3F34-46D0-916F-7EEB4942386E";
name = "Display Bold";
shapes = (
{
closed = 1;
nodes = (
(255,-14,o),
(368,33,o),
(387,152,c),
(394,152,l),
(415,38,o),
(503,-14,o),
(619,-14,cs),
(763,-14,o),
(856,67,o),
(839,190,c),
(697,199,l),
(705,147,o),
(671,101,o),
(618,101,cs),
(557,101,o),
(508,162,o),
(508,273,cs),
(508,382,o),
(556,415,o),
(602,415,cs),
(660,415,o),
(693,361,o),
(680,289,c),
(747,331,l),
(446,326,l),
(446,237,l),
(830,245,l),
(847,460,o),
(739,542,o),
(619,542,cs),
(558,542,o),
(458,520,o),
(436,413,c),
(431,413,l),
(410,505,o),
(351,542,o),
(256,542,cs),
(141,542,o),
(34,487,o),
(29,332,c),
(172,319,l),
(174,383,o),
(210,413,o),
(269,413,cs),
(321,413,o),
(339,390,o),
(339,365,cs),
(339,323,o),
(286,310,o),
(217,297,cs),
(128,280,o),
(17,257,o),
(17,135,cs),
(17,25,o),
(108,-14,o),
(178,-14,cs)
);
},
{
closed = 1;
nodes = (
(204,105,o),
(175,122,o),
(175,156,cs),
(175,234,o),
(332,209,o),
(402,280,c),
(355,322,l),
(345,237,ls),
(333,132,o),
(275,105,o),
(235,105,cs)
);
}
);
visible = 1;
width = 858;
},
{
anchors = (
{
name = bottom;
pos = (442,0);
},
{
name = top;
pos = (442,512);
}
);
layerId = "FA4F2279-C2CB-4D21-8447-C28A701A0705";
shapes = (
{
closed = 1;
nodes = (
(310,-12,o),
(380,67,o),
(412,152,c),
(423,152,l),
(442,48,o),
(515,-13,o),
(627,-13,cs),
(729,-13,o),
(799,41,o),
(829,136,c),
(779,156,l),
(759,83,o),
(713,41,o),
(629,41,cs),
(512,41,o),
(455,118,o),
(455,248,cs),
(455,388,o),
(521,472,o),
(619,472,cs),
(705,472,o),
(765,404,o),
(765,278,c),
(790,302,l),
(433,299,l),
(433,249,l),
(820,252,l),
(827,444,o),
(735,525,o),
(620,525,cs),
(544,525,o),
(457,488,o),
(442,368,c),
(433,368,l),
(432,472,o),
(383,525,o),
(275,525,cs),
(154,525,o),
(81,459,o),
(68,372,c),
(122,351,l),
(133,448,o),
(216,472,o),
(277,472,cs),
(361,472,o),
(399,426,o),
(399,365,cs),
(399,318,o),
(373,314,o),
(285,301,cs),
(177,285,o),
(55,265,o),
(55,131,cs),
(55,33,o),
(120,-12,o),
(205,-12,cs)
);
},
{
closed = 1;
nodes = (
(151,41,o),
(112,71,o),
(112,131,cs),
(112,274,o),
(330,235,o),
(412,283,c),
(400,302,l),
(400,192,l),
(345,77,o),
(269,41,o),
(209,41,cs)
);
}
);
width = 878;
}
);
metricLeft = "=a";
metricRight = "=e";
unicode = 230;
},
{
color = 4;
glyphname = b;
kernLeft = KO_l;
kernRight = KO_b;
lastChange = "2023-07-04 07:16:15 +0000";
layers = (
{
anchors = (
{
name = bottom;
pos = (281,0);
},
{
name = top;
pos = (271,528);
}
);
layerId = "240BF9EB-FB0D-4A7D-9EDB-8E544078904A";
metricRight = "=o";
shapes = (
{
closed = 1;
nodes = (
(340,-12,o),
(402,66,o),
(402,260,cs),
(402,429,o),
(355,538,o),
(273,538,cs),
(213,538,o),
(176,480,o),
(162,361,c),
(152,361,l),
(165,429,o),
(173,501,o),
(173,581,cs),
(173,680,l),
(19,680,l),
(19,249,l),
(19,0,l),
(151,0,l),
(151,151,l),
(159,151,l),
(168,35,o),
(204,-12,o),
(263,-12,cs)
);
},
{
closed = 1;
nodes = (
(188,104,o),
(173,168,o),
(173,233,cs),
(173,254,ls),
(173,342,o),
(188,405,o),
(214,405,cs),
(236,405,o),
(245,360,o),
(245,253,cs),
(245,159,o),
(238,104,o),
(214,104,cs)
);
}
);
userData = {
com.schriftgestaltung.Glyphs.lastChange = "2020-05-30 08:05:40 +0000";
com.typemytype.robofont.Image.Brightness = 0;
com.typemytype.robofont.Image.Contrast = 1;
com.typemytype.robofont.Image.Saturation = 1;
com.typemytype.robofont.Image.Sharpness = 0.4;
};
width = 416;
},
{
anchors = (
{
name = bottom;
pos = (370,0);
},
{
name = top;
pos = (310,528);
}
);
layerId = "C665A7CC-B666-4F49-BFE5-A31D06CCF39B";
shapes = (
{
closed = 1;
nodes = (
(392,-14,o),
(470,89,o),
(470,268,cs),
(470,446,o),
(393,540,o),
(310,540,cs),
(250,540,o),
(210,489,o),
(188,398,c),
(167,398,l),
(189,489,o),
(202,555,o),
(202,591,cs),
(202,700,l),
(48,700,l),
(48,267,l),
(48,0,l),
(157,0,l),
(162,141,l),
(186,141,l),
(197,67,o),
(225,-14,o),
(304,-14,cs)
);
},
{
closed = 1;
nodes = (
(206,114,o),
(202,224,o),
(202,259,cs),
(202,272,ls),
(202,285,o),
(205,417,o),
(255,417,cs),
(283,417,o),
(312,372,o),
(312,266,cs),
(312,159,o),
(283,114,o),
(253,114,cs)
);
}
);
userData = {
com.schriftgestaltung.Glyphs.lastChange = "2020-05-30 08:05:40 +0000";
com.typemytype.robofont.Image.Brightness = 0;
com.typemytype.robofont.Image.Contrast = 1;
com.typemytype.robofont.Image.Saturation = 1;
com.typemytype.robofont.Image.Sharpness = 0.4;
};
width = 498;
},
{
anchors = (
{
name = bottom;
pos = (242,0);
},
{
name = top;
pos = (234,528);
}
);
layerId = "5F0F23F3-8289-4A13-984A-DE8C8AB95B73";
metricRight = "=o+1";
shapes = (
{
closed = 1;
nodes = (
(314,-12,o),
(372,73,o),
(372,263,cs),
(372,462,o),
(308,537,o),
(237,537,cs),
(174,537,o),
(148,476,o),
(133,418,c),
(118,418,l),
(122,468,o),
(127,565,o),
(127,611,cs),
(127,700,l),
(71,700,l),
(71,273,l),
(71,0,l),
(127,0,l),
(118,117,l),
(133,117,l),
(147,55,o),
(181,-12,o),
(244,-12,cs)
);
},
{
closed = 1;
nodes = (
(186,43,o),
(127,153,o),
(127,265,cs),
(127,279,ls),
(127,375,o),
(171,484,o),
(230,484,cs),
(273,484,o),
(315,427,o),
(315,262,cs),
(315,95,o),
(272,43,o),
(237,43,cs)
);
}
);
userData = {
com.schriftgestaltung.Glyphs.lastChange = "2020-05-30 08:05:40 +0000";
com.typemytype.robofont.Image.Brightness = 0;
com.typemytype.robofont.Image.Contrast = 1;
com.typemytype.robofont.Image.Saturation = 1;
com.typemytype.robofont.Image.Sharpness = 0.4;
};
width = 422;
},
{
anchors = (
{
name = bottom;
pos = (390,0);
},
{
name = top;
pos = (390,528);
}
);
layerId = "13870E78-3F0A-41D5-8A20-B477F2D0CF38";
metricRight = "=o+2";
shapes = (
{
closed = 1;
nodes = (
(532,-14,o),
(616,92,o),
(616,260,cs),
(616,433,o),
(530,540,o),
(399,540,cs),
(305,540,o),
(250,484,o),
(223,378,c),
(199,378,l),
(213,442,o),
(224,497,o),
(224,545,cs),
(224,720,l),
(63,720,l),
(63,261,l),
(63,0,l),
(194,0,l),
(197,156,l),
(217,156,l),
(233,44,o),
(296,-14,o),
(397,-14,cs)
);
},
{
closed = 1;
nodes = (
(255,116,o),
(224,198,o),
(224,254,cs),
(224,275,ls),
(224,338,o),
(267,412,o),
(341,412,cs),
(406,412,o),
(447,356,o),
(447,265,cs),
(447,175,o),
(403,116,o),
(337,116,cs)
);
}
);
userData = {
com.schriftgestaltung.Glyphs.lastChange = "2020-05-30 08:05:40 +0000";
com.typemytype.robofont.Image.Brightness = 0;
com.typemytype.robofont.Image.Contrast = 1;
com.typemytype.robofont.Image.Saturation = 1;
com.typemytype.robofont.Image.Sharpness = 0.4;
};
width = 650;
},
{
anchors = (
{
name = bottom;
pos = (299,0);
},
{
name = top;
pos = (290,510);
}
);
layerId = "9F71C57A-214D-4B4D-A956-3B8F1C0FEA05";
metricRight = "=o+1";
name = "Display Thin";
shapes = (
{
closed = 1;
nodes = (
(394,-13,o),
(490,63,o),
(490,254,cs),
(490,429,o),
(405,524,o),
(290,524,cs),
(175,524,o),
(113,433,o),
(98,308,c),
(88,308,l),
(102,413,o),
(108,489,o),
(108,546,cs),
(108,670,l),
(50,670,l),
(52,262,l),
(50,0,l),
(108,0,l),
(91,183,l),
(100,183,l),
(120,56,o),
(187,-13,o),
(286,-13,cs)
);
},
{
closed = 1;
nodes = (
(152,41,o),
(111,190,o),
(111,247,cs),
(111,256,ls),
(111,292,o),
(137,469,o),
(281,469,cs),
(371,469,o),
(433,396,o),
(433,254,cs),
(433,121,o),
(380,41,o),
(282,41,cs)
);
}
);
userData = {
com.schriftgestaltung.Glyphs.lastChange = "2020-05-30 08:05:40 +0000";
com.typemytype.robofont.Image.Brightness = 0;
com.typemytype.robofont.Image.Contrast = 1;
com.typemytype.robofont.Image.Saturation = 1;
com.typemytype.robofont.Image.Sharpness = 0.4;
};
width = 528;
},
{
anchors = (
{
name = bottom;
pos = (292,0);
},
{
name = top;
pos = (176,528);
}
);
layerId = "6FE9FA8B-990F-4278-A730-82C9E963D7AD";
name = "Display Compressed Thin";
shapes = (
{
closed = 1;
nodes = (
(241,-10,o),
(273,77,o),
(273,258,cs),
(273,442,o),
(240,537,o),
(174,537,cs),
(126,537,o),
(97,485,o),
(84,337,c),
(73,337,l),
(86,437,o),
(95,510,o),
(95,540,cs),
(95,680,l),
(39,680,l),
(39,256,l),
(35,0,l),
(93,0,l),
(75,173,l),
(84,173,l),
(102,32,o),
(131,-10,o),
(175,-10,cs)
);
},
{
closed = 1;
nodes = (
(125,44,o),
(95,143,o),
(95,242,cs),
(95,263,ls),
(95,340,o),
(116,483,o),
(161,483,cs),
(192,483,o),
(216,414,o),
(216,253,cs),
(216,122,o),
(200,44,o),
(165,44,cs)
);
}
);
userData = {
com.schriftgestaltung.Glyphs.lastChange = "2020-05-30 08:05:40 +0000";
com.typemytype.robofont.Image.Brightness = 0;
com.typemytype.robofont.Image.Contrast = 1;
com.typemytype.robofont.Image.Saturation = 1;
com.typemytype.robofont.Image.Sharpness = 0.4;
};
width = 298;
},
{
anchors = (
{
name = bottom;
pos = (343,0);
},
{
name = top;
pos = (343,528);
}
);
layerId = "C1A2FA2E-3F34-46D0-916F-7EEB4942386E";
name = "Display Bold";
shapes = (
{
closed = 1;
nodes = (
(467,-14,o),
(554,77,o),
(554,271,cs),
(554,452,o),
(478,542,o),
(360,542,cs),
(267,542,o),
(205,488,o),
(187,356,c),
(178,356,l),
(189,423,o),
(198,490,o),
(198,545,cs),
(198,700,l),
(36,700,l),
(36,186,l),
(36,0,l),
(177,0,l),
(177,163,l),
(184,163,l),
(206,46,o),
(262,-14,o),
(353,-14,cs)
);
},
{
closed = 1;
nodes = (
(245,115,o),
(196,161,o),
(196,259,cs),
(196,266,ls),
(196,367,o),
(249,407,o),
(296,407,cs),
(360,407,o),
(390,336,o),
(390,258,cs),
(390,180,o),
(356,115,o),
(296,115,cs)
);
}
);
userData = {
com.schriftgestaltung.Glyphs.lastChange = "2020-05-30 08:05:40 +0000";
com.typemytype.robofont.Image.Brightness = 0;
com.typemytype.robofont.Image.Contrast = 1;
com.typemytype.robofont.Image.Saturation = 1;
com.typemytype.robofont.Image.Sharpness = 0.4;
};
width = 576;
},
{
anchors = (
{
name = bottom;
pos = (394,0);
},
{
name = top;
pos = (323,512);
}
);
layerId = "FA4F2279-C2CB-4D21-8447-C28A701A0705";
metricRight = "=o+1";
shapes = (
{
closed = 1;
nodes = (
(458,-12,o),
(527,106,o),
(527,256,cs),
(527,409,o),
(453,524,o),
(323,524,cs),
(208,524,o),
(164,434,o),
(145,363,c),
(130,363,l),
(138,414,o),
(145,482,o),
(145,534,cs),
(145,691,l),
(88,691,l),
(88,252,l),
(88,0,l),
(145,0,l),
(137,130,l),
(151,130,l),
(176,58,o),
(222,-12,o),
(323,-12,cs)
);
},
{
closed = 1;
nodes = (
(216,42,o),
(144,156,o),
(144,248,cs),
(144,256,ls),
(144,327,o),
(197,469,o),
(318,469,cs),
(418,469,o),
(469,372,o),
(469,252,cs),
(469,123,o),
(414,42,o),
(321,42,cs)
);
}
);
userData = {
com.schriftgestaltung.Glyphs.lastChange = "2020-05-30 08:05:40 +0000";
com.typemytype.robofont.Image.Brightness = 0;
com.typemytype.robofont.Image.Contrast = 1;
com.typemytype.robofont.Image.Saturation = 1;
com.typemytype.robofont.Image.Sharpness = 0.4;
};
width = 589;
}
);
metricLeft = "=n";
metricRight = "=o";
unicode = 98;
},
